G04 MADE WITH FRITZING*
G04 WWW.FRITZING.ORG*
G04 DOUBLE SIDED*
G04 HOLES PLATED*
G04 CONTOUR ON CENTER OF CONTOUR VECTOR*
%ASAXBY*%
%FSLAX23Y23*%
%MOIN*%
%OFA0B0*%
%SFA1.0B1.0*%
%ADD10C,0.049370*%
%ADD11C,0.088000*%
%ADD12C,0.092900*%
%ADD13C,0.092836*%
%ADD14C,0.075328*%
%ADD15C,0.084667*%
%ADD16C,0.084695*%
%ADD17C,0.134033*%
%ADD18C,0.135984*%
%ADD19C,0.128110*%
%ADD20C,0.089370*%
%ADD21C,0.085000*%
%ADD22C,0.214725*%
%ADD23R,0.096614X0.096614*%
%ADD24R,0.089370X0.089370*%
%LNMASK0*%
G90*
G70*
G54D10*
X841Y1118D03*
X872Y1272D03*
X1336Y1191D03*
X997Y778D03*
X790Y2540D03*
X1014Y2953D03*
X621Y3060D03*
X463Y158D03*
G54D11*
X1175Y3162D03*
X1175Y3062D03*
X1175Y2962D03*
X1175Y2862D03*
X1175Y2762D03*
X83Y2769D03*
X83Y2669D03*
X83Y2569D03*
X83Y2469D03*
X83Y2369D03*
X83Y2769D03*
X83Y2669D03*
X83Y2569D03*
X83Y2469D03*
X83Y2369D03*
X183Y2369D03*
X183Y2469D03*
X183Y2569D03*
X183Y2669D03*
X183Y2769D03*
G54D12*
X648Y1962D03*
G54D13*
X651Y1634D03*
G54D14*
X651Y1532D03*
G54D12*
X244Y1955D03*
G54D13*
X246Y1628D03*
G54D14*
X246Y1525D03*
G54D15*
X550Y3012D03*
X550Y2912D03*
G54D16*
X550Y2812D03*
G54D17*
X846Y3106D03*
X846Y2717D03*
G54D15*
X891Y2527D03*
X891Y2427D03*
G54D16*
X891Y2327D03*
G54D17*
X1187Y2621D03*
X1187Y2233D03*
G54D15*
X278Y3497D03*
X278Y3397D03*
G54D16*
X278Y3297D03*
G54D17*
X573Y3591D03*
X573Y3203D03*
G54D15*
X545Y3789D03*
X545Y3889D03*
G54D16*
X545Y3989D03*
G54D17*
X249Y3695D03*
X249Y4083D03*
G54D18*
X1178Y1289D03*
X647Y1289D03*
G54D19*
X244Y1291D03*
X663Y810D03*
G54D18*
X1172Y1758D03*
G54D19*
X247Y347D03*
X650Y1764D03*
X1183Y350D03*
X244Y1758D03*
X658Y347D03*
X1181Y810D03*
X239Y811D03*
G54D12*
X241Y1004D03*
G54D13*
X243Y676D03*
G54D14*
X243Y574D03*
G54D11*
X922Y180D03*
X922Y280D03*
X922Y380D03*
X922Y480D03*
X72Y2080D03*
X172Y2080D03*
X272Y2080D03*
X372Y2080D03*
X472Y2080D03*
G54D12*
X654Y1102D03*
G54D13*
X651Y1430D03*
G54D14*
X651Y1532D03*
G54D12*
X1173Y1956D03*
G54D13*
X1176Y1628D03*
G54D14*
X1176Y1526D03*
G54D12*
X1180Y1102D03*
G54D13*
X1177Y1430D03*
G54D14*
X1177Y1532D03*
G54D12*
X1180Y1007D03*
G54D13*
X1182Y679D03*
G54D14*
X1182Y577D03*
G54D12*
X1185Y152D03*
G54D13*
X1182Y480D03*
G54D14*
X1182Y582D03*
G54D12*
X656Y1007D03*
G54D13*
X658Y680D03*
G54D14*
X658Y577D03*
G54D12*
X247Y1102D03*
G54D13*
X244Y1430D03*
G54D14*
X244Y1532D03*
G54D12*
X252Y144D03*
G54D13*
X250Y472D03*
G54D14*
X250Y574D03*
G54D12*
X658Y146D03*
G54D13*
X655Y474D03*
G54D14*
X655Y576D03*
G54D20*
X880Y4294D03*
X1180Y4294D03*
X880Y4194D03*
X1180Y4194D03*
X880Y4094D03*
X1180Y4094D03*
X880Y3994D03*
X1180Y3994D03*
X880Y3894D03*
X1180Y3894D03*
X880Y3794D03*
X1180Y3794D03*
X880Y3694D03*
X1180Y3694D03*
G54D21*
X416Y3001D03*
X416Y2701D03*
X1271Y4048D03*
X1271Y4348D03*
X353Y3092D03*
X353Y2792D03*
X157Y3483D03*
X157Y3183D03*
X76Y3594D03*
X76Y3294D03*
X1342Y3425D03*
X1342Y3125D03*
X1007Y3531D03*
X1007Y3231D03*
X782Y3505D03*
X782Y3205D03*
X1341Y4259D03*
X1341Y3959D03*
X1213Y3304D03*
X1213Y3604D03*
X756Y3909D03*
X756Y3609D03*
X482Y4227D03*
X763Y4123D03*
X1344Y3829D03*
X1292Y3534D03*
X1080Y3602D03*
X1080Y3302D03*
X506Y4320D03*
X788Y4217D03*
X875Y3226D03*
X875Y3526D03*
G54D22*
X137Y4262D03*
G54D11*
X922Y705D03*
X922Y805D03*
X922Y905D03*
X922Y1005D03*
X922Y1105D03*
G54D23*
X648Y1962D03*
X244Y1955D03*
X241Y1004D03*
X654Y1102D03*
X1173Y1956D03*
X1180Y1102D03*
X1180Y1007D03*
X1185Y152D03*
X656Y1007D03*
X247Y1102D03*
X252Y144D03*
X658Y146D03*
G54D24*
X880Y4294D03*
G04 End of Mask0*
M02*