; NON-PLATED HOLES START AT T1
; THROUGH (PLATED) HOLES START AT T100
M48
INCH
T1C0.125984
T2C0.118110
T100C0.125984
T101C0.061825
T102C0.015748
T103C0.035000
T104C0.061867
T105C0.088356
T106C0.050165
T107C0.038000
T108C0.041333
T109C0.039370
T110C0.041361
%
T1
X006472Y012886
X011722Y017580
X011777Y012886
T2
X002444Y012914
X006499Y017636
X002472Y003469
X006583Y003469
X011833Y003497
X011814Y008099
X002444Y017580
X006629Y008099
X002388Y008108
T100
X001370Y042617
T101
X006509Y016344
X006550Y004740
X006583Y006797
X011819Y004796
X002434Y006760
X011823Y006793
X011773Y014296
X002499Y004717
X002439Y014296
X006513Y014296
X011759Y016279
X002464Y016276
T102
X009972Y007775
X010140Y029528
X013361Y011913
X008722Y012719
X004629Y001580
X006207Y030602
X007903Y025399
X008411Y011180
T103
X001571Y031831
X007564Y039088
X012129Y036041
X003531Y027919
X004162Y030006
X007564Y036088
X012129Y033041
X013435Y038293
X012924Y035337
X013407Y042592
X005062Y043195
X000760Y035940
X010067Y035306
X000760Y032940
X010067Y032306
X003531Y030919
X007823Y035049
X004816Y042273
X007627Y041226
X007823Y032049
X010795Y036021
X004162Y027006
X008747Y035259
X010795Y033021
X008747Y032259
X013407Y039592
X012706Y043481
X007882Y042171
X013421Y034245
X012706Y040481
X001571Y034831
X013421Y031245
T104
X006557Y010074
X006576Y001464
X006483Y019620
X011845Y001520
X011798Y011020
X002409Y010037
X002465Y011020
X002524Y001441
X011733Y019555
X002439Y019552
X006539Y011020
X011798Y010069
T105
X002494Y036945
X005729Y035914
X008455Y027173
X002494Y040829
X008455Y031056
X005729Y032031
X011866Y026212
X011866Y022329
T106
X002439Y015319
X006509Y015320
X006583Y005774
X006513Y015319
X011819Y005819
X011823Y005769
X002434Y005737
X011773Y015319
X011759Y015255
X002464Y015252
X006550Y005764
X002499Y005740
T107
X009222Y001802
X000833Y024691
X001833Y024691
X011752Y029617
X011752Y030617
X009222Y004802
X000833Y027691
X009222Y011052
X011752Y027617
X001833Y027691
X009222Y008052
X009222Y002802
X000833Y025691
X001833Y025691
X011752Y031617
X000833Y023691
X004722Y020802
X002722Y020802
X000722Y020802
X001833Y023691
X003722Y020802
X001722Y020802
X011752Y028617
X009222Y009052
X009222Y003802
X000833Y026691
X009222Y010052
X001833Y026691
X009222Y007052
T108
X005447Y037887
X002776Y033972
X008913Y025270
X005447Y038887
X002776Y034972
X005502Y029115
X005502Y030115
X008913Y024270
T109
X008799Y039944
X011799Y038944
X011799Y042944
X011799Y039944
X008799Y036944
X008799Y040944
X008799Y037944
X011799Y036944
X008799Y041944
X011799Y040944
X008799Y038944
X011799Y037944
X008799Y042944
X011799Y041944
T110
X005502Y028115
X008913Y023270
X002776Y032972
X005447Y039887
T00
M30
