; NON-PLATED HOLES START AT T1
; THROUGH (PLATED) HOLES START AT T100
M48
INCH
T100C0.035000
T101C0.015748
T102C0.125984
T103C0.032000
T104C0.038889
T105C0.030000
T106C0.039370
T107C0.038000
%
T100
X012904Y003187
X013384Y025264
X009904Y006187
X008059Y009145
X005870Y003212
X005866Y001347
X008870Y003212
X008059Y010145
X008866Y001347
X011176Y028003
X011059Y012145
X011105Y039095
X012904Y001187
X008059Y015145
X005846Y002343
X009904Y004187
X008846Y002343
X012904Y006187
X011059Y009145
X013381Y018782
X011059Y010145
X008059Y013145
X009904Y002187
X010381Y018782
X011059Y015145
X012904Y004187
X000990Y009973
X011374Y033785
X009904Y007187
X013528Y026141
X003990Y009973
X008059Y011145
X007330Y004607
X010788Y038053
X011059Y013145
X012904Y002187
X009904Y005187
X011133Y032601
X012904Y007187
X013495Y031664
X013255Y030480
X000919Y011732
X013338Y036473
X011059Y011145
X001026Y009098
X010997Y027082
X008059Y014145
X003919Y011732
X009904Y003187
X004026Y009098
X012904Y005187
X013708Y037603
X010274Y019637
X000986Y010873
X004870Y006324
X013274Y019637
X008059Y012145
X009904Y001187
X003986Y010873
X011059Y014145
T101
X012000Y006778
X008288Y017873
X004816Y041731
X003722Y024243
X011560Y004203
X009708Y011197
X005794Y013382
X000711Y034747
X001592Y040090
X008138Y033334
X012779Y014042
X001739Y004716
X007074Y015725
X010577Y028986
X008408Y007765
X005740Y010836
X010723Y007828
X004342Y035564
X008972Y025197
X000777Y035947
X009508Y008971
X010212Y013356
X011879Y001234
X004758Y038579
X004415Y029146
X007509Y027043
X006027Y035031
X007674Y020266
X006841Y007053
X005666Y027197
X005518Y014058
X008037Y024531
X007694Y036164
X004519Y041021
X007253Y038727
X008796Y038711
X011926Y012651
T102
X012822Y042769
T103
X013372Y040357
X012372Y040357
X011858Y034759
X012358Y035509
X012872Y039607
X011924Y028877
X002690Y020258
X011659Y017995
X011358Y035509
X001940Y019758
X012159Y017245
X011159Y017245
X012424Y029627
X001940Y020758
X011424Y029627
T104
X009526Y033775
X003526Y033775
X005526Y038775
X009526Y038775
X003526Y038775
X006540Y036775
X009526Y031775
X003526Y031775
X005526Y036775
X009526Y036775
X003526Y036775
X004526Y042775
X006526Y042775
X006540Y039775
X004526Y034775
X005526Y042775
X007526Y042775
X009526Y042775
X003526Y042775
X009526Y034775
X003526Y034775
X006540Y040775
X008526Y042775
X005526Y039775
X009526Y039775
X003526Y039775
X006540Y037775
X004526Y032775
X005526Y040775
X009526Y040775
X003526Y040775
X009526Y032775
X003526Y032775
X005526Y037775
X009526Y037775
X003526Y037775
X009526Y029775
X003526Y029775
X006540Y035775
X004526Y030775
X009526Y030775
X003526Y030775
X005526Y035775
X009526Y035775
X003526Y035775
X006526Y041775
X006540Y038775
X004526Y033775
X005526Y041775
X009526Y041775
X003526Y041775
T105
X003739Y020543
X004169Y021448
X003857Y018947
X002855Y018947
T106
X000887Y003400
X003887Y006400
X000887Y004400
X003887Y007400
X003887Y001400
X000887Y005400
X003887Y002400
X000887Y006400
X003887Y003400
X000887Y007400
X000887Y001400
X003887Y004400
X000887Y002400
X003887Y005400
T107
X005283Y023629
X005523Y040781
X001919Y024285
X008523Y042773
X003540Y038770
X005523Y039781
X011472Y021058
X004972Y002058
X006538Y037773
X006283Y023629
X002919Y024285
X009523Y035781
X003540Y033770
X002944Y013403
X009523Y042781
X003540Y040770
X005523Y041781
X001866Y016381
X001919Y025285
X003540Y039770
X002370Y027873
X009523Y030781
X004972Y007308
X007283Y022629
X004523Y042773
X003944Y013403
X009523Y029781
X004539Y032781
X004972Y003058
X006538Y038773
X002919Y025285
X009523Y036781
X008283Y022629
X003540Y034770
X005523Y042773
X005523Y035781
X002944Y014403
X005564Y017605
X003540Y041770
X004537Y030791
X012472Y021058
X001866Y017381
X001919Y026285
X009283Y022629
X002370Y028873
X009523Y031781
X004972Y008308
X007283Y023629
X006538Y040773
X003944Y014403
X004539Y033781
X004972Y004058
X006538Y039773
X013472Y021058
X002919Y026285
X009523Y037781
X008283Y023629
X003540Y035770
X010283Y022629
X005523Y036781
X002944Y015403
X005564Y018605
X003540Y042770
X002370Y030873
X004972Y010308
X009283Y023629
X002370Y029873
X009523Y032781
X004972Y009308
X011283Y022629
X003540Y030770
X006538Y041773
X003944Y015403
X004539Y034781
X004972Y005058
X003540Y029770
X006523Y042773
X009523Y038781
X003540Y036770
X010283Y023629
X005523Y037781
X002944Y016403
X007523Y042773
X002370Y031873
X006538Y035773
X004972Y011308
X009523Y033781
X011283Y023629
X003540Y031770
X003944Y016403
X009523Y040781
X005555Y016614
X005283Y022629
X009523Y039781
X001919Y023285
X003540Y037770
X005523Y038781
X002944Y017403
X009472Y021058
X006538Y036773
X006283Y022629
X002919Y023285
X009523Y034781
X003540Y032770
X003944Y017403
X010472Y021058
X009523Y041781
T00
M30
