G04 MADE WITH FRITZING*
G04 WWW.FRITZING.ORG*
G04 DOUBLE SIDED*
G04 HOLES PLATED*
G04 CONTOUR ON CENTER OF CONTOUR VECTOR*
%ASAXBY*%
%FSLAX23Y23*%
%MOIN*%
%OFA0B0*%
%SFA1.0B1.0*%
%ADD10C,0.088000*%
%ADD11C,0.080000*%
%ADD12C,0.195039*%
%ADD13C,0.076667*%
%ADD14C,0.089370*%
%ADD15C,0.084000*%
%ADD16C,0.085000*%
%ADD17C,0.035000*%
%ADD18C,0.049370*%
%ADD19R,0.089370X0.089370*%
%ADD20R,0.085000X0.085000*%
%ADD21R,0.001000X0.001000*%
%LNMASK0*%
G90*
G70*
G54D10*
X454Y3079D03*
G54D11*
X286Y1895D03*
X386Y1895D03*
X374Y2054D03*
X417Y2145D03*
G54D12*
X1282Y4277D03*
G54D10*
X556Y1661D03*
G54D13*
X353Y4278D03*
X353Y4178D03*
X353Y4078D03*
X353Y3978D03*
X353Y3878D03*
X353Y3778D03*
X353Y3678D03*
X353Y3578D03*
X353Y3478D03*
X353Y3378D03*
X353Y3278D03*
X353Y3178D03*
X353Y3078D03*
X353Y2978D03*
X453Y3078D03*
X953Y4278D03*
X953Y4178D03*
X953Y4078D03*
X953Y3978D03*
X953Y3878D03*
X953Y3778D03*
X953Y3678D03*
X953Y3578D03*
X953Y3478D03*
X953Y3378D03*
X953Y3278D03*
X953Y3178D03*
X953Y3078D03*
X953Y2978D03*
X453Y3378D03*
X453Y3278D03*
X453Y3478D03*
X753Y4278D03*
X853Y4278D03*
X653Y4278D03*
X453Y4278D03*
X553Y4278D03*
X353Y4278D03*
X353Y4178D03*
X353Y4078D03*
X353Y3978D03*
X353Y3878D03*
X353Y3778D03*
X353Y3678D03*
X353Y3578D03*
X353Y3478D03*
X353Y3378D03*
X353Y3278D03*
X353Y3178D03*
X353Y3078D03*
X353Y2978D03*
X453Y3078D03*
X953Y4278D03*
X953Y4178D03*
X953Y4078D03*
X953Y3978D03*
X953Y3878D03*
X953Y3778D03*
X953Y3678D03*
X953Y3578D03*
X953Y3478D03*
X953Y3378D03*
X953Y3278D03*
X953Y3178D03*
X953Y3078D03*
X953Y2978D03*
X453Y3378D03*
X453Y3278D03*
X453Y3478D03*
X753Y4278D03*
X853Y4278D03*
X653Y4278D03*
X453Y4278D03*
X553Y4278D03*
X553Y4178D03*
X553Y4178D03*
X653Y4178D03*
X653Y4178D03*
X654Y4078D03*
X654Y3978D03*
X654Y3878D03*
X654Y3778D03*
X654Y3678D03*
X654Y3578D03*
X654Y4078D03*
X654Y3978D03*
X654Y3878D03*
X654Y3778D03*
X654Y3678D03*
X654Y3578D03*
X553Y4078D03*
X553Y3978D03*
X553Y3878D03*
X553Y3778D03*
X553Y3678D03*
X553Y3578D03*
X553Y4078D03*
X553Y3978D03*
X553Y3878D03*
X553Y3778D03*
X553Y3678D03*
X553Y3578D03*
G54D10*
X556Y1861D03*
X556Y1761D03*
X237Y3187D03*
X237Y3087D03*
X237Y2987D03*
X237Y2887D03*
X237Y2787D03*
X237Y3187D03*
X237Y3087D03*
X237Y2987D03*
X237Y2887D03*
X237Y2787D03*
X528Y2263D03*
X628Y2263D03*
X728Y2263D03*
X828Y2263D03*
X928Y2263D03*
X1028Y2263D03*
X1128Y2263D03*
X528Y2263D03*
X628Y2263D03*
X728Y2263D03*
X828Y2263D03*
X928Y2263D03*
X1028Y2263D03*
X1128Y2263D03*
X1128Y2363D03*
X1028Y2363D03*
X928Y2363D03*
X828Y2363D03*
X728Y2363D03*
X628Y2363D03*
X528Y2363D03*
X294Y1740D03*
X294Y1640D03*
X294Y1540D03*
X294Y1440D03*
X294Y1340D03*
X294Y1740D03*
X294Y1640D03*
X294Y1540D03*
X294Y1440D03*
X294Y1340D03*
X394Y1340D03*
X394Y1440D03*
X394Y1540D03*
X394Y1640D03*
X394Y1740D03*
G54D14*
X89Y740D03*
X389Y740D03*
X89Y640D03*
X389Y640D03*
X89Y540D03*
X389Y540D03*
X89Y440D03*
X389Y440D03*
X89Y340D03*
X389Y340D03*
X89Y240D03*
X389Y240D03*
X89Y140D03*
X389Y140D03*
G54D10*
X292Y2329D03*
X292Y2429D03*
X292Y2529D03*
X292Y2629D03*
X292Y2329D03*
X292Y2429D03*
X292Y2529D03*
X292Y2629D03*
X192Y2629D03*
X192Y2529D03*
X192Y2429D03*
X192Y2329D03*
G54D15*
X1337Y4036D03*
X1287Y3961D03*
X1237Y4036D03*
X1236Y3551D03*
X1186Y3476D03*
X1136Y3551D03*
X1116Y1725D03*
X1166Y1800D03*
X1216Y1725D03*
X1242Y2963D03*
X1192Y2888D03*
X1142Y2963D03*
G54D16*
X1334Y3647D03*
X1079Y3805D03*
X1326Y3048D03*
X1113Y3260D03*
X1327Y1964D03*
X1027Y1964D03*
X1338Y2526D03*
X1100Y2708D03*
X1111Y3910D03*
G54D17*
X1371Y3760D03*
G54D16*
X1137Y3379D03*
X1350Y3166D03*
X1038Y1878D03*
X1338Y1878D03*
X1118Y2800D03*
X1353Y2614D03*
X403Y910D03*
X103Y910D03*
X399Y997D03*
X99Y997D03*
X399Y1087D03*
X99Y1087D03*
X887Y135D03*
X587Y135D03*
X885Y234D03*
X585Y234D03*
X887Y321D03*
X587Y321D03*
X733Y461D03*
X487Y632D03*
X392Y1173D03*
X92Y1173D03*
X1106Y915D03*
X806Y915D03*
X1106Y1015D03*
X806Y1015D03*
X1106Y1115D03*
X806Y1115D03*
X1106Y1215D03*
X806Y1215D03*
X1106Y1315D03*
X806Y1315D03*
X1106Y1415D03*
X806Y1415D03*
X1106Y1515D03*
X806Y1515D03*
X990Y719D03*
X1290Y719D03*
X990Y619D03*
X1290Y619D03*
X990Y519D03*
X1290Y519D03*
X990Y419D03*
X1290Y419D03*
X990Y319D03*
X1290Y319D03*
X990Y219D03*
X1290Y219D03*
X990Y119D03*
X1290Y119D03*
G54D10*
X497Y206D03*
X497Y306D03*
X497Y406D03*
X497Y506D03*
X497Y206D03*
X497Y306D03*
X497Y406D03*
X497Y506D03*
X947Y2106D03*
X1047Y2106D03*
X1147Y2106D03*
X1247Y2106D03*
X1347Y2106D03*
X947Y2106D03*
X1047Y2106D03*
X1147Y2106D03*
X1247Y2106D03*
X1347Y2106D03*
X497Y731D03*
X497Y831D03*
X497Y931D03*
X497Y1031D03*
X497Y1131D03*
X497Y731D03*
X497Y831D03*
X497Y931D03*
X497Y1031D03*
X497Y1131D03*
X354Y4277D03*
X354Y4177D03*
X354Y4077D03*
X354Y3977D03*
X354Y3877D03*
X354Y3777D03*
X354Y3677D03*
X354Y3577D03*
X354Y3477D03*
X354Y3377D03*
X354Y3277D03*
X354Y3177D03*
X354Y3077D03*
X354Y2977D03*
X952Y4278D03*
X952Y4178D03*
X952Y4078D03*
X952Y3978D03*
X952Y3878D03*
X952Y3778D03*
X952Y3678D03*
X952Y3578D03*
X952Y3478D03*
X952Y3378D03*
X952Y3278D03*
X952Y3178D03*
X952Y3078D03*
X952Y2978D03*
X454Y3478D03*
X454Y3378D03*
X454Y3278D03*
X852Y4277D03*
X752Y4277D03*
X652Y4277D03*
X552Y4277D03*
X452Y4277D03*
X852Y4277D03*
X752Y4277D03*
X652Y4277D03*
X552Y4277D03*
X452Y4277D03*
X654Y4177D03*
X654Y4077D03*
X654Y3977D03*
X654Y3877D03*
X654Y3777D03*
X654Y3677D03*
X654Y3577D03*
X552Y4178D03*
X552Y4078D03*
X552Y3978D03*
X552Y3878D03*
X552Y3778D03*
X552Y3678D03*
X552Y3578D03*
G54D18*
X159Y4009D03*
X482Y4173D03*
X434Y3556D03*
X452Y4102D03*
X476Y3858D03*
X1021Y1336D03*
X951Y897D03*
X603Y3503D03*
X804Y2453D03*
X880Y3871D03*
X78Y3595D03*
X71Y3475D03*
X814Y3333D03*
X1200Y678D03*
X1193Y1265D03*
X1072Y783D03*
X174Y472D03*
X1188Y123D03*
X1156Y420D03*
X684Y705D03*
X769Y3616D03*
X751Y2704D03*
X725Y3873D03*
X442Y2915D03*
X372Y2424D03*
X552Y1406D03*
X897Y2520D03*
X1058Y2899D03*
X1278Y1404D03*
X579Y1338D03*
X567Y2720D03*
G54D15*
X194Y1976D03*
X269Y2026D03*
X194Y2076D03*
G54D10*
X187Y1738D03*
X187Y1638D03*
G54D18*
X829Y1787D03*
X767Y2027D03*
X574Y1084D03*
X707Y1573D03*
X841Y777D03*
X971Y1120D03*
G54D19*
X89Y740D03*
G54D20*
X1106Y915D03*
X990Y719D03*
G54D21*
X1363Y3803D02*
X1378Y3803D01*
X1358Y3802D02*
X1382Y3802D01*
X1356Y3801D02*
X1385Y3801D01*
X1353Y3800D02*
X1387Y3800D01*
X1351Y3799D02*
X1389Y3799D01*
X1349Y3798D02*
X1391Y3798D01*
X1348Y3797D02*
X1393Y3797D01*
X1346Y3796D02*
X1394Y3796D01*
X1345Y3795D02*
X1395Y3795D01*
X1344Y3794D02*
X1397Y3794D01*
X1342Y3793D02*
X1398Y3793D01*
X1341Y3792D02*
X1399Y3792D01*
X1340Y3791D02*
X1400Y3791D01*
X1339Y3790D02*
X1401Y3790D01*
X1338Y3789D02*
X1402Y3789D01*
X1338Y3788D02*
X1403Y3788D01*
X1337Y3787D02*
X1403Y3787D01*
X1336Y3786D02*
X1404Y3786D01*
X1335Y3785D02*
X1405Y3785D01*
X1335Y3784D02*
X1406Y3784D01*
X1334Y3783D02*
X1406Y3783D01*
X1334Y3782D02*
X1407Y3782D01*
X1333Y3781D02*
X1407Y3781D01*
X1333Y3780D02*
X1408Y3780D01*
X1332Y3779D02*
X1408Y3779D01*
X1332Y3778D02*
X1409Y3778D01*
X1331Y3777D02*
X1409Y3777D01*
X1331Y3776D02*
X1409Y3776D01*
X1330Y3775D02*
X1410Y3775D01*
X1330Y3774D02*
X1410Y3774D01*
X1330Y3773D02*
X1410Y3773D01*
X1330Y3772D02*
X1411Y3772D01*
X1329Y3771D02*
X1411Y3771D01*
X1329Y3770D02*
X1411Y3770D01*
X1329Y3769D02*
X1411Y3769D01*
X1329Y3768D02*
X1412Y3768D01*
X1329Y3767D02*
X1412Y3767D01*
X1328Y3766D02*
X1412Y3766D01*
X1328Y3765D02*
X1412Y3765D01*
X1328Y3764D02*
X1412Y3764D01*
X1328Y3763D02*
X1412Y3763D01*
X1328Y3762D02*
X1412Y3762D01*
X1328Y3761D02*
X1412Y3761D01*
X1328Y3760D02*
X1412Y3760D01*
X1328Y3759D02*
X1412Y3759D01*
X1328Y3758D02*
X1412Y3758D01*
X1328Y3757D02*
X1412Y3757D01*
X1329Y3756D02*
X1412Y3756D01*
X1329Y3755D02*
X1412Y3755D01*
X1329Y3754D02*
X1411Y3754D01*
X1329Y3753D02*
X1411Y3753D01*
X1329Y3752D02*
X1411Y3752D01*
X1329Y3751D02*
X1411Y3751D01*
X1330Y3750D02*
X1410Y3750D01*
X1330Y3749D02*
X1410Y3749D01*
X1330Y3748D02*
X1410Y3748D01*
X1331Y3747D02*
X1410Y3747D01*
X1331Y3746D02*
X1409Y3746D01*
X1331Y3745D02*
X1409Y3745D01*
X1332Y3744D02*
X1408Y3744D01*
X1332Y3743D02*
X1408Y3743D01*
X1333Y3742D02*
X1407Y3742D01*
X1333Y3741D02*
X1407Y3741D01*
X1334Y3740D02*
X1406Y3740D01*
X1335Y3739D02*
X1406Y3739D01*
X1335Y3738D02*
X1405Y3738D01*
X1336Y3737D02*
X1404Y3737D01*
X1337Y3736D02*
X1404Y3736D01*
X1337Y3735D02*
X1403Y3735D01*
X1338Y3734D02*
X1402Y3734D01*
X1339Y3733D02*
X1401Y3733D01*
X1340Y3732D02*
X1400Y3732D01*
X1341Y3731D02*
X1399Y3731D01*
X1342Y3730D02*
X1398Y3730D01*
X1343Y3729D02*
X1397Y3729D01*
X1344Y3728D02*
X1396Y3728D01*
X1346Y3727D02*
X1395Y3727D01*
X1347Y3726D02*
X1393Y3726D01*
X1349Y3725D02*
X1392Y3725D01*
X1350Y3724D02*
X1390Y3724D01*
X1352Y3723D02*
X1388Y3723D01*
X1355Y3722D02*
X1386Y3722D01*
X1357Y3721D02*
X1383Y3721D01*
X1361Y3720D02*
X1379Y3720D01*
X1368Y3719D02*
X1372Y3719D01*
D02*
G04 End of Mask0*
M02*