G04 MADE WITH FRITZING*
G04 WWW.FRITZING.ORG*
G04 DOUBLE SIDED*
G04 HOLES PLATED*
G04 CONTOUR ON CENTER OF CONTOUR VECTOR*
%ASAXBY*%
%FSLAX23Y23*%
%MOIN*%
%OFA0B0*%
%SFA1.0B1.0*%
%ADD10C,0.075000*%
%ADD11C,0.062992*%
%ADD12C,0.078000*%
%ADD13C,0.079370*%
%ADD14C,0.074000*%
%ADD15C,0.045000*%
%ADD16C,0.066667*%
%ADD17R,0.062992X0.062992*%
%ADD18R,0.079370X0.079370*%
%ADD19R,0.075000X0.075000*%
%ADD20C,0.007000*%
%ADD21C,0.024000*%
%ADD22C,0.008000*%
%ADD23C,0.012000*%
%ADD24C,0.016000*%
%ADD25C,0.006000*%
%ADD26R,0.001000X0.001000*%
%LNCOPPER0*%
G90*
G70*
G54D10*
X744Y2119D03*
X744Y1819D03*
G54D11*
X851Y1762D03*
X851Y1664D03*
G54D10*
X417Y2905D03*
X413Y2363D03*
G54D12*
X586Y1942D03*
X586Y1842D03*
X586Y1742D03*
G54D10*
X279Y1265D03*
X690Y1410D03*
G54D12*
X237Y3187D03*
X237Y3087D03*
X237Y2987D03*
X237Y2887D03*
X237Y2787D03*
X528Y2263D03*
X628Y2263D03*
X728Y2263D03*
X828Y2263D03*
X928Y2263D03*
X1028Y2263D03*
X1128Y2263D03*
X528Y2263D03*
X628Y2263D03*
X728Y2263D03*
X828Y2263D03*
X928Y2263D03*
X1028Y2263D03*
X1128Y2263D03*
X1128Y2363D03*
X1028Y2363D03*
X928Y2363D03*
X828Y2363D03*
X728Y2363D03*
X628Y2363D03*
X528Y2363D03*
X245Y2069D03*
X245Y1969D03*
X245Y1869D03*
X245Y1769D03*
X245Y1669D03*
X245Y1569D03*
X245Y1469D03*
X245Y1369D03*
X245Y2069D03*
X245Y1969D03*
X245Y1869D03*
X245Y1769D03*
X245Y1669D03*
X245Y1569D03*
X245Y1469D03*
X245Y1369D03*
X345Y1369D03*
X345Y1469D03*
X345Y1569D03*
X345Y1669D03*
X345Y1769D03*
X345Y1869D03*
X345Y1969D03*
X345Y2069D03*
G54D13*
X89Y740D03*
X389Y740D03*
X89Y640D03*
X389Y640D03*
X89Y540D03*
X389Y540D03*
X89Y440D03*
X389Y440D03*
X89Y340D03*
X389Y340D03*
X89Y240D03*
X389Y240D03*
X89Y140D03*
X389Y140D03*
G54D12*
X292Y2329D03*
X292Y2429D03*
X292Y2529D03*
X292Y2629D03*
X292Y2329D03*
X292Y2429D03*
X292Y2529D03*
X292Y2629D03*
X192Y2629D03*
X192Y2529D03*
X192Y2429D03*
X192Y2329D03*
G54D14*
X1226Y4269D03*
X1176Y4194D03*
X1126Y4269D03*
G54D10*
X756Y273D03*
X1326Y1316D03*
G54D14*
X1222Y3679D03*
X1172Y3604D03*
X1122Y3679D03*
G54D10*
X1204Y1219D03*
X751Y380D03*
G54D14*
X1116Y1725D03*
X1166Y1800D03*
X1216Y1725D03*
G54D10*
X868Y3188D03*
X733Y539D03*
G54D14*
X1242Y2985D03*
X1192Y2910D03*
X1142Y2985D03*
G54D10*
X869Y3292D03*
X1313Y1110D03*
X1329Y3774D03*
X1117Y3986D03*
X871Y3405D03*
X1223Y1349D03*
X1337Y3159D03*
X1124Y3371D03*
X1327Y1964D03*
X1027Y1964D03*
X1285Y2518D03*
X1073Y2730D03*
X1143Y4099D03*
X1355Y3887D03*
X1140Y3481D03*
X1352Y3269D03*
X1071Y1878D03*
X1371Y1878D03*
X1137Y2826D03*
G54D15*
X1372Y2640D03*
G54D10*
X403Y910D03*
X103Y910D03*
X399Y997D03*
X99Y997D03*
X399Y1087D03*
X99Y1087D03*
X392Y1173D03*
X92Y1173D03*
X1106Y915D03*
X806Y915D03*
X1106Y1015D03*
X806Y1015D03*
X1106Y1115D03*
X806Y1115D03*
X1106Y1215D03*
X806Y1215D03*
X1106Y1315D03*
X806Y1315D03*
X1106Y1415D03*
X806Y1415D03*
X1106Y1515D03*
X806Y1515D03*
X882Y680D03*
X1182Y680D03*
X882Y580D03*
X1182Y580D03*
X882Y480D03*
X1182Y480D03*
X882Y380D03*
X1182Y380D03*
X882Y280D03*
X1182Y280D03*
X882Y180D03*
X1182Y180D03*
X882Y80D03*
X1182Y80D03*
G54D12*
X497Y206D03*
X497Y306D03*
X497Y406D03*
X497Y506D03*
X947Y2106D03*
X1047Y2106D03*
X1147Y2106D03*
X1247Y2106D03*
X1347Y2106D03*
X497Y731D03*
X497Y831D03*
X497Y931D03*
X497Y1031D03*
X497Y1131D03*
G54D16*
X353Y4278D03*
X353Y4178D03*
X353Y4078D03*
X353Y3978D03*
X353Y3878D03*
X353Y3778D03*
X353Y3678D03*
X353Y3578D03*
X353Y3478D03*
X353Y3378D03*
X353Y3278D03*
X353Y3178D03*
X353Y3078D03*
X353Y2978D03*
X453Y3078D03*
X953Y4278D03*
X953Y4178D03*
X953Y4078D03*
X953Y3978D03*
X953Y3878D03*
X953Y3778D03*
X953Y3678D03*
X953Y3578D03*
X953Y3478D03*
X953Y3378D03*
X953Y3278D03*
X953Y3178D03*
X953Y3078D03*
X953Y2978D03*
X453Y3378D03*
X453Y3278D03*
X453Y3478D03*
X753Y4278D03*
X853Y4278D03*
X653Y4278D03*
X453Y4278D03*
X553Y4278D03*
X353Y4278D03*
X353Y4178D03*
X353Y4078D03*
X353Y3978D03*
X353Y3878D03*
X353Y3778D03*
X353Y3678D03*
X353Y3578D03*
X353Y3478D03*
X353Y3378D03*
X353Y3278D03*
X353Y3178D03*
X353Y3078D03*
X353Y2978D03*
X453Y3078D03*
X953Y4278D03*
X953Y4178D03*
X953Y4078D03*
X953Y3978D03*
X953Y3878D03*
X953Y3778D03*
X953Y3678D03*
X953Y3578D03*
X953Y3478D03*
X953Y3378D03*
X953Y3278D03*
X953Y3178D03*
X953Y3078D03*
X953Y2978D03*
X453Y3378D03*
X453Y3278D03*
X453Y3478D03*
X753Y4278D03*
X853Y4278D03*
X653Y4278D03*
X453Y4278D03*
X553Y4278D03*
X553Y4178D03*
X553Y4178D03*
X653Y4178D03*
X653Y4178D03*
X654Y4078D03*
X654Y3978D03*
X654Y3878D03*
X654Y3778D03*
X654Y3678D03*
X654Y3578D03*
X654Y4078D03*
X654Y3978D03*
X654Y3878D03*
X654Y3778D03*
X654Y3678D03*
X654Y3578D03*
X553Y4078D03*
X553Y3978D03*
X553Y3878D03*
X553Y3778D03*
X553Y3678D03*
X553Y3578D03*
X553Y4078D03*
X553Y3978D03*
X553Y3878D03*
X553Y3778D03*
X553Y3678D03*
X553Y3578D03*
G54D17*
X851Y1762D03*
G54D18*
X89Y740D03*
G54D19*
X1106Y915D03*
X882Y680D03*
G54D20*
X429Y43D02*
X553Y81D01*
D02*
X301Y49D02*
X429Y43D01*
D02*
X553Y81D02*
X627Y206D01*
D02*
X684Y355D02*
X729Y371D01*
G54D21*
D02*
X89Y209D02*
X89Y171D01*
G54D20*
D02*
X90Y66D02*
X301Y49D01*
D02*
X30Y277D02*
X33Y78D01*
D02*
X627Y206D02*
X684Y355D01*
D02*
X33Y78D02*
X90Y66D01*
D02*
X75Y290D02*
X53Y288D01*
D02*
X53Y288D02*
X30Y277D01*
D02*
X126Y294D02*
X100Y290D01*
D02*
X127Y387D02*
X142Y379D01*
D02*
X52Y390D02*
X77Y390D01*
D02*
X151Y306D02*
X126Y294D01*
D02*
X142Y379D02*
X162Y339D01*
D02*
X77Y390D02*
X98Y390D01*
D02*
X163Y339D02*
X151Y306D01*
D02*
X100Y290D02*
X75Y290D01*
D02*
X98Y390D02*
X127Y387D01*
D02*
X25Y404D02*
X52Y390D01*
G54D22*
D02*
X17Y3684D02*
X13Y423D01*
G54D23*
D02*
X289Y23D02*
X956Y17D01*
G54D21*
D02*
X1175Y1217D02*
X1135Y1216D01*
G54D23*
D02*
X956Y17D02*
X1114Y236D01*
G54D22*
D02*
X14Y308D02*
X17Y36D01*
G54D23*
D02*
X1114Y236D02*
X1163Y267D01*
G54D22*
D02*
X65Y330D02*
X14Y308D01*
G54D23*
D02*
X17Y36D02*
X289Y23D01*
G54D22*
D02*
X339Y4157D02*
X17Y3684D01*
G54D21*
D02*
X314Y2069D02*
X275Y2069D01*
G54D23*
D02*
X1014Y2048D02*
X966Y2090D01*
G54D21*
D02*
X933Y2036D02*
X941Y2076D01*
G54D22*
D02*
X606Y417D02*
X549Y356D01*
D02*
X549Y356D02*
X464Y356D01*
D02*
X464Y356D02*
X413Y345D01*
D02*
X783Y914D02*
X675Y909D01*
X675Y909D02*
X606Y417D01*
G54D21*
D02*
X994Y1806D02*
X933Y2036D01*
D02*
X1121Y2802D02*
X1089Y2754D01*
D02*
X1093Y1740D02*
X994Y1806D01*
D02*
X267Y3185D02*
X322Y3180D01*
G54D23*
D02*
X1244Y1917D02*
X1100Y2002D01*
G54D21*
D02*
X1136Y3453D02*
X1129Y3400D01*
G54D24*
D02*
X1403Y1889D02*
X1393Y1886D01*
D02*
X1403Y2573D02*
X1403Y1889D01*
G54D23*
D02*
X1349Y1885D02*
X1244Y1917D01*
D02*
X1100Y2002D02*
X1014Y2048D01*
D02*
X280Y1260D02*
X281Y1242D01*
D02*
X151Y855D02*
X270Y1065D01*
D02*
X31Y465D02*
X31Y809D01*
D02*
X270Y1065D02*
X280Y1260D01*
D02*
X31Y809D02*
X151Y855D01*
D02*
X139Y2267D02*
X139Y2380D01*
D02*
X139Y2380D02*
X174Y2412D01*
D02*
X146Y1324D02*
X139Y2267D01*
D02*
X280Y1260D02*
X146Y1324D01*
G54D24*
D02*
X1382Y2619D02*
X1403Y2573D01*
G54D23*
D02*
X309Y2715D02*
X176Y2736D01*
D02*
X464Y2530D02*
X402Y2681D01*
D02*
X402Y2681D02*
X309Y2715D01*
D02*
X176Y2736D02*
X180Y3134D01*
D02*
X180Y3134D02*
X219Y3171D01*
D02*
X316Y2529D02*
X464Y2530D01*
D02*
X66Y450D02*
X31Y465D01*
D02*
X419Y2139D02*
X139Y2267D01*
D02*
X570Y1961D02*
X419Y2139D01*
G54D21*
D02*
X314Y1369D02*
X275Y1369D01*
G54D23*
D02*
X476Y1043D02*
X419Y1076D01*
G54D22*
D02*
X724Y3773D02*
X689Y3827D01*
D02*
X919Y2432D02*
X680Y2561D01*
D02*
X667Y3386D02*
X757Y3584D01*
D02*
X925Y2387D02*
X919Y2432D01*
D02*
X604Y3833D02*
X601Y3929D01*
D02*
X601Y3929D02*
X570Y3960D01*
D02*
X680Y2561D02*
X667Y3386D01*
D02*
X757Y3584D02*
X724Y3773D01*
D02*
X689Y3827D02*
X604Y3833D01*
G54D21*
D02*
X814Y1542D02*
X843Y1638D01*
D02*
X1117Y423D02*
X1100Y467D01*
D02*
X1108Y523D02*
X1160Y562D01*
D02*
X1158Y395D02*
X1117Y423D01*
D02*
X1100Y467D02*
X1108Y523D01*
D02*
X1111Y2036D02*
X1067Y2084D01*
D02*
X1300Y1973D02*
X1111Y2036D01*
D02*
X262Y2329D02*
X222Y2329D01*
D02*
X314Y1969D02*
X275Y1969D01*
G54D22*
D02*
X154Y2719D02*
X156Y3213D01*
D02*
X229Y2697D02*
X154Y2719D01*
D02*
X275Y2647D02*
X229Y2697D01*
G54D21*
D02*
X433Y282D02*
X411Y261D01*
D02*
X469Y295D02*
X433Y282D01*
D02*
X1246Y4251D02*
X1327Y4175D01*
D02*
X1327Y4175D02*
X1352Y3915D01*
D02*
X245Y1599D02*
X245Y1639D01*
D02*
X314Y1669D02*
X275Y1669D01*
D02*
X314Y1569D02*
X275Y1569D01*
G54D25*
D02*
X408Y3431D02*
X410Y3495D01*
G54D23*
D02*
X431Y3578D02*
X503Y4048D01*
G54D20*
D02*
X417Y3517D02*
X431Y3578D01*
D02*
X395Y3253D02*
X402Y3276D01*
D02*
X402Y3276D02*
X408Y3431D01*
G54D22*
D02*
X264Y3270D02*
X325Y3228D01*
D02*
X192Y3267D02*
X264Y3270D01*
G54D20*
D02*
X325Y3228D02*
X379Y3231D01*
G54D22*
D02*
X156Y3213D02*
X192Y3267D01*
G54D20*
D02*
X379Y3231D02*
X395Y3253D01*
G54D25*
D02*
X410Y3495D02*
X417Y3517D01*
G54D23*
D02*
X503Y4048D02*
X531Y4065D01*
D02*
X330Y3468D02*
X111Y3374D01*
D02*
X111Y3374D02*
X117Y2647D01*
D02*
X1000Y2695D02*
X1019Y2865D01*
D02*
X1019Y2865D02*
X1025Y3045D01*
D02*
X1025Y3045D02*
X975Y3067D01*
G54D21*
D02*
X973Y1249D02*
X834Y1220D01*
G54D23*
D02*
X117Y2647D02*
X115Y1311D01*
D02*
X234Y1050D02*
X118Y927D01*
G54D21*
D02*
X833Y1407D02*
X951Y1374D01*
D02*
X951Y1374D02*
X973Y1249D01*
G54D23*
D02*
X115Y1311D02*
X231Y1241D01*
D02*
X231Y1241D02*
X234Y1050D01*
D02*
X1074Y1663D02*
X964Y1753D01*
D02*
X1270Y2247D02*
X1256Y2454D01*
D02*
X1215Y2502D02*
X1000Y2695D01*
D02*
X925Y2161D02*
X1181Y2165D01*
D02*
X1256Y2454D02*
X1215Y2502D01*
D02*
X883Y2053D02*
X889Y2139D01*
D02*
X889Y2139D02*
X925Y2161D01*
D02*
X1181Y2165D02*
X1270Y2247D01*
D02*
X964Y1753D02*
X883Y2053D01*
D02*
X1178Y1660D02*
X1074Y1663D01*
G54D21*
D02*
X556Y1845D02*
X374Y1865D01*
D02*
X896Y3185D02*
X922Y3181D01*
D02*
X1214Y3167D02*
X1258Y3625D01*
G54D23*
D02*
X1205Y1706D02*
X1178Y1660D01*
D02*
X1022Y3628D02*
X1033Y4191D01*
D02*
X973Y3592D02*
X1022Y3628D01*
G54D21*
D02*
X1258Y3625D02*
X1237Y3656D01*
D02*
X1238Y3012D02*
X1214Y3167D01*
D02*
X262Y2529D02*
X222Y2529D01*
D02*
X262Y2429D02*
X222Y2429D01*
G54D22*
D02*
X363Y1221D02*
X783Y1310D01*
D02*
X322Y570D02*
X341Y1208D01*
D02*
X366Y551D02*
X322Y570D01*
D02*
X341Y1208D02*
X363Y1221D01*
D02*
X896Y3548D02*
X875Y3427D01*
D02*
X909Y3711D02*
X896Y3548D01*
D02*
X939Y3757D02*
X909Y3711D01*
G54D21*
D02*
X1093Y1860D02*
X1145Y1817D01*
G54D23*
D02*
X1033Y4191D02*
X1110Y4255D01*
G54D21*
D02*
X1153Y2850D02*
X1177Y2887D01*
D02*
X1137Y4071D02*
X1124Y4014D01*
G54D22*
D02*
X1185Y2374D02*
X1174Y2426D01*
D02*
X1174Y2426D02*
X1127Y2455D01*
G54D21*
D02*
X1298Y1325D02*
X1250Y1341D01*
G54D22*
D02*
X769Y3390D02*
X835Y3574D01*
D02*
X835Y3574D02*
X809Y4076D01*
D02*
X1185Y2287D02*
X1185Y2374D01*
D02*
X1127Y2455D02*
X763Y2610D01*
D02*
X763Y2610D02*
X769Y3390D01*
D02*
X1151Y2273D02*
X1185Y2287D01*
G54D20*
D02*
X406Y3567D02*
X397Y3499D01*
G54D23*
D02*
X461Y4114D02*
X406Y3567D01*
G54D25*
D02*
X397Y3499D02*
X395Y3450D01*
D02*
X395Y3450D02*
X380Y3430D01*
D02*
X380Y3430D02*
X315Y3429D01*
G54D23*
D02*
X532Y4163D02*
X461Y4114D01*
G54D21*
D02*
X1196Y1341D02*
X1133Y1323D01*
G54D22*
D02*
X809Y4076D02*
X675Y4164D01*
G54D21*
D02*
X733Y4350D02*
X1187Y4350D01*
D02*
X675Y4298D02*
X733Y4350D01*
D02*
X1187Y4350D02*
X1214Y4293D01*
G54D22*
D02*
X264Y3407D02*
X136Y3345D01*
G54D25*
D02*
X315Y3429D02*
X276Y3413D01*
G54D22*
D02*
X136Y3345D02*
X137Y2695D01*
D02*
X137Y2695D02*
X176Y2647D01*
D02*
X753Y1245D02*
X774Y1264D01*
D02*
X864Y1277D02*
X878Y1312D01*
D02*
X736Y1242D02*
X753Y1245D01*
D02*
X830Y1265D02*
X864Y1277D01*
D02*
X774Y1264D02*
X830Y1265D01*
D02*
X736Y1173D02*
X736Y1242D01*
D02*
X788Y1129D02*
X736Y1173D01*
D02*
X868Y1349D02*
X838Y1364D01*
D02*
X661Y1328D02*
X367Y1459D01*
D02*
X785Y1365D02*
X661Y1328D01*
D02*
X838Y1364D02*
X785Y1365D01*
D02*
X878Y1312D02*
X868Y1349D01*
G54D21*
D02*
X856Y490D02*
X760Y529D01*
G54D22*
D02*
X643Y3555D02*
X571Y3404D01*
G54D21*
D02*
X345Y1599D02*
X345Y1639D01*
D02*
X245Y1499D02*
X245Y1539D01*
D02*
X314Y1869D02*
X275Y1869D01*
G54D22*
D02*
X476Y2819D02*
X261Y2791D01*
G54D25*
D02*
X567Y270D02*
X533Y258D01*
G54D22*
D02*
X562Y2884D02*
X476Y2819D01*
G54D25*
D02*
X733Y464D02*
X633Y381D01*
D02*
X928Y428D02*
X842Y431D01*
D02*
X1166Y664D02*
X928Y428D01*
D02*
X842Y431D02*
X733Y464D01*
D02*
X633Y381D02*
X567Y270D01*
D02*
X457Y254D02*
X436Y192D01*
D02*
X533Y258D02*
X457Y254D01*
G54D22*
D02*
X571Y3404D02*
X562Y2884D01*
G54D25*
D02*
X450Y95D02*
X421Y78D01*
D02*
X457Y145D02*
X450Y95D01*
D02*
X318Y84D02*
X198Y181D01*
D02*
X165Y448D02*
X105Y521D01*
D02*
X202Y346D02*
X165Y448D01*
D02*
X436Y192D02*
X457Y145D01*
D02*
X421Y78D02*
X318Y84D01*
D02*
X198Y181D02*
X202Y346D01*
G54D22*
D02*
X482Y525D02*
X405Y620D01*
G54D21*
D02*
X345Y1499D02*
X345Y1539D01*
G54D22*
D02*
X341Y1241D02*
X313Y1217D01*
D02*
X384Y3128D02*
X502Y3137D01*
D02*
X502Y3137D02*
X509Y3337D01*
D02*
X509Y3337D02*
X473Y3363D01*
D02*
X260Y3097D02*
X331Y3128D01*
D02*
X331Y3128D02*
X384Y3128D01*
D02*
X289Y504D02*
X367Y454D01*
D02*
X313Y1217D02*
X289Y504D01*
D02*
X422Y1259D02*
X341Y1241D01*
D02*
X517Y1393D02*
X422Y1259D01*
D02*
X367Y1459D02*
X517Y1393D01*
G54D20*
D02*
X1230Y2382D02*
X1209Y2457D01*
D02*
X1107Y2523D02*
X824Y2634D01*
D02*
X679Y2232D02*
X724Y2177D01*
D02*
X678Y2295D02*
X679Y2232D01*
D02*
X724Y2177D02*
X1163Y2186D01*
D02*
X1163Y2186D02*
X1237Y2250D01*
D02*
X1237Y2250D02*
X1230Y2382D01*
D02*
X1209Y2456D02*
X1107Y2523D01*
D02*
X824Y2634D02*
X811Y3391D01*
D02*
X714Y2343D02*
X678Y2295D01*
D02*
X878Y3565D02*
X898Y3806D01*
D02*
X856Y3495D02*
X878Y3565D01*
D02*
X724Y3584D02*
X701Y3692D01*
D02*
X811Y3391D02*
X856Y3495D01*
D02*
X631Y3388D02*
X724Y3584D01*
D02*
X898Y3806D02*
X937Y3858D01*
D02*
X684Y3728D02*
X630Y3730D01*
D02*
X701Y3692D02*
X684Y3728D01*
D02*
X630Y3730D02*
X574Y3764D01*
D02*
X814Y2407D02*
X630Y2526D01*
G54D21*
D02*
X854Y278D02*
X785Y274D01*
D02*
X89Y671D02*
X89Y709D01*
G54D20*
D02*
X821Y2386D02*
X814Y2407D01*
D02*
X630Y2526D02*
X631Y3388D01*
G54D21*
D02*
X1303Y331D02*
X1209Y369D01*
D02*
X1210Y188D02*
X1308Y217D01*
D02*
X1308Y217D02*
X1303Y331D01*
D02*
X1152Y4126D02*
X1167Y4168D01*
D02*
X1397Y3798D02*
X1367Y3861D01*
G54D23*
D02*
X1324Y2457D02*
X1298Y2499D01*
G54D20*
D02*
X494Y3732D02*
X488Y3779D01*
G54D21*
D02*
X777Y1413D02*
X719Y1411D01*
G54D23*
D02*
X1237Y2180D02*
X1315Y2243D01*
D02*
X1315Y2243D02*
X1324Y2457D01*
G54D20*
D02*
X488Y3779D02*
X539Y3857D01*
G54D21*
D02*
X1079Y924D02*
X833Y1005D01*
G54D23*
D02*
X1166Y2122D02*
X1237Y2180D01*
G54D21*
D02*
X1397Y3342D02*
X1397Y3798D01*
D02*
X1367Y3294D02*
X1397Y3342D01*
G54D20*
D02*
X703Y3588D02*
X696Y3609D01*
D02*
X672Y3514D02*
X689Y3549D01*
D02*
X696Y3609D02*
X682Y3624D01*
D02*
X689Y3549D02*
X700Y3570D01*
D02*
X752Y2419D02*
X594Y2511D01*
D02*
X778Y2388D02*
X752Y2419D01*
D02*
X778Y2331D02*
X778Y2388D01*
D02*
X607Y3389D02*
X672Y3514D01*
D02*
X700Y3570D02*
X703Y3588D01*
D02*
X548Y3729D02*
X494Y3732D01*
D02*
X594Y2511D02*
X607Y3389D01*
D02*
X682Y3624D02*
X609Y3636D01*
D02*
X609Y3636D02*
X599Y3713D01*
D02*
X599Y3713D02*
X548Y3729D01*
G54D21*
D02*
X516Y1484D02*
X685Y1543D01*
D02*
X685Y1543D02*
X778Y1521D01*
D02*
X375Y1471D02*
X516Y1484D01*
G54D22*
D02*
X491Y86D02*
X428Y61D01*
D02*
X496Y181D02*
X491Y86D01*
G54D20*
D02*
X814Y2283D02*
X778Y2331D01*
G54D23*
D02*
X89Y3411D02*
X331Y3564D01*
D02*
X209Y1082D02*
X206Y1224D01*
D02*
X117Y1011D02*
X209Y1082D01*
D02*
X93Y1297D02*
X89Y3411D01*
D02*
X206Y1224D02*
X93Y1297D01*
G54D21*
D02*
X827Y1775D02*
X769Y1806D01*
G54D22*
D02*
X428Y61D02*
X308Y67D01*
G54D21*
D02*
X1086Y894D02*
X902Y701D01*
G54D22*
D02*
X308Y67D02*
X113Y132D01*
G54D21*
D02*
X1147Y3509D02*
X1165Y3578D01*
G54D23*
D02*
X1267Y3161D02*
X1297Y3411D01*
D02*
X1297Y3411D02*
X1327Y3751D01*
G54D21*
D02*
X1331Y3872D02*
X1253Y3823D01*
D02*
X1253Y3823D02*
X1228Y3705D01*
G54D23*
D02*
X474Y1140D02*
X413Y1165D01*
D02*
X1352Y2193D02*
X1350Y2541D01*
D02*
X1350Y2541D02*
X1289Y2587D01*
D02*
X1276Y2708D02*
X1331Y2758D01*
D02*
X1331Y2758D02*
X1330Y3045D01*
G54D22*
D02*
X1122Y2387D02*
X1106Y2439D01*
G54D23*
D02*
X1300Y2160D02*
X1352Y2193D01*
D02*
X1289Y2587D02*
X1276Y2708D01*
D02*
X1330Y3045D02*
X1289Y3097D01*
D02*
X1289Y3097D02*
X1267Y3161D01*
D02*
X1264Y2123D02*
X1300Y2160D01*
G54D22*
D02*
X817Y3574D02*
X776Y4002D01*
G54D25*
D02*
X104Y620D02*
X274Y407D01*
G54D22*
D02*
X1106Y2439D02*
X739Y2597D01*
D02*
X744Y3390D02*
X817Y3574D01*
D02*
X776Y4002D02*
X675Y4064D01*
D02*
X739Y2597D02*
X744Y3390D01*
G54D21*
D02*
X935Y1050D02*
X834Y1022D01*
D02*
X834Y1208D02*
X957Y1180D01*
D02*
X957Y1180D02*
X935Y1050D01*
G54D25*
D02*
X274Y407D02*
X359Y390D01*
D02*
X421Y390D02*
X473Y401D01*
D02*
X359Y390D02*
X421Y390D01*
G54D21*
D02*
X1285Y1111D02*
X1135Y1114D01*
G54D20*
D02*
X878Y2325D02*
X878Y2404D01*
D02*
X878Y2404D02*
X656Y2552D01*
D02*
X648Y3386D02*
X739Y3583D01*
D02*
X656Y2552D02*
X648Y3386D01*
D02*
X913Y2282D02*
X878Y2325D01*
G54D22*
D02*
X833Y3499D02*
X856Y3571D01*
G54D20*
D02*
X739Y3583D02*
X703Y3749D01*
G54D22*
D02*
X789Y3390D02*
X833Y3499D01*
D02*
X856Y3571D02*
X844Y4110D01*
D02*
X712Y4222D02*
X478Y4228D01*
G54D20*
D02*
X703Y3749D02*
X676Y3765D01*
G54D22*
D02*
X789Y2619D02*
X789Y3390D01*
D02*
X844Y4110D02*
X712Y4222D01*
D02*
X478Y4228D02*
X464Y4255D01*
D02*
X1207Y2380D02*
X1194Y2442D01*
D02*
X1194Y2442D02*
X1098Y2502D01*
G54D21*
D02*
X1119Y3181D02*
X1139Y3012D01*
G54D22*
D02*
X759Y2195D02*
X1152Y2202D01*
D02*
X1211Y2261D02*
X1207Y2380D01*
D02*
X1098Y2502D02*
X789Y2619D01*
D02*
X739Y2241D02*
X759Y2195D01*
D02*
X1152Y2202D02*
X1211Y2261D01*
G54D21*
D02*
X979Y3363D02*
X1081Y3306D01*
D02*
X1081Y3306D02*
X1119Y3181D01*
G54D22*
D02*
X464Y2848D02*
X536Y2915D01*
D02*
X322Y2828D02*
X464Y2848D01*
D02*
X536Y2915D02*
X554Y3553D01*
D02*
X257Y2873D02*
X322Y2828D01*
G54D20*
D02*
X1056Y2428D02*
X717Y2586D01*
D02*
X1078Y2391D02*
X1056Y2428D01*
D02*
X717Y2586D02*
X720Y3386D01*
D02*
X1079Y2323D02*
X1078Y2391D01*
D02*
X1044Y2282D02*
X1079Y2323D01*
G54D21*
D02*
X1113Y3653D02*
X1074Y3547D01*
D02*
X1074Y3547D02*
X979Y3493D01*
D02*
X1333Y691D02*
X1205Y597D01*
D02*
X923Y3283D02*
X898Y3287D01*
D02*
X854Y380D02*
X780Y380D01*
D02*
X389Y671D02*
X389Y709D01*
D02*
X1330Y836D02*
X1333Y691D01*
D02*
X1133Y905D02*
X1330Y836D01*
G54D20*
D02*
X720Y3386D02*
X796Y3580D01*
D02*
X796Y3580D02*
X750Y3950D01*
D02*
X750Y3950D02*
X678Y3971D01*
G54D23*
D02*
X336Y3959D02*
X41Y3636D01*
G54D21*
D02*
X389Y209D02*
X389Y171D01*
G54D23*
D02*
X41Y3636D02*
X39Y1265D01*
G54D21*
D02*
X1392Y170D02*
X1208Y91D01*
D02*
X1394Y586D02*
X1392Y170D01*
G54D23*
D02*
X39Y1265D02*
X80Y1193D01*
D02*
X477Y945D02*
X418Y984D01*
G54D21*
D02*
X1400Y2708D02*
X1397Y3220D01*
D02*
X898Y1595D02*
X828Y1533D01*
D02*
X1394Y1603D02*
X898Y1595D01*
D02*
X1394Y1603D02*
X1393Y1843D01*
D02*
X1393Y1843D02*
X1386Y1854D01*
D02*
X1208Y493D02*
X1394Y586D01*
D02*
X1394Y586D02*
X1394Y1603D01*
D02*
X1397Y3220D02*
X1372Y3248D01*
G54D23*
D02*
X478Y847D02*
X420Y895D01*
G54D22*
D02*
X993Y2418D02*
X696Y2573D01*
D02*
X696Y3388D02*
X780Y3582D01*
G54D21*
D02*
X628Y2293D02*
X628Y2333D01*
G54D22*
D02*
X696Y2573D02*
X696Y3388D01*
D02*
X1015Y2384D02*
X993Y2418D01*
G54D21*
D02*
X1058Y1904D02*
X1041Y1938D01*
D02*
X1383Y2667D02*
X1400Y2708D01*
D02*
X314Y1769D02*
X275Y1769D01*
D02*
X314Y1469D02*
X275Y1469D01*
G54D22*
D02*
X743Y3808D02*
X703Y3875D01*
D02*
X309Y3030D02*
X364Y3028D01*
D02*
X471Y3015D02*
X520Y3026D01*
D02*
X531Y3397D02*
X507Y3433D01*
D02*
X520Y3026D02*
X531Y3397D01*
D02*
X507Y3433D02*
X472Y3462D01*
D02*
X258Y3000D02*
X309Y3030D01*
D02*
X364Y3028D02*
X471Y3015D01*
D02*
X780Y3582D02*
X743Y3808D01*
D02*
X703Y3875D02*
X679Y3876D01*
G54D23*
D02*
X1365Y2730D02*
X1361Y3047D01*
D02*
X1361Y3047D02*
X1342Y3137D01*
D02*
X1376Y2184D02*
X1374Y2560D01*
D02*
X1374Y2560D02*
X1311Y2600D01*
D02*
X1311Y2600D02*
X1309Y2682D01*
D02*
X334Y3861D02*
X65Y3615D01*
D02*
X65Y3615D02*
X67Y1280D01*
D02*
X1309Y2682D02*
X1365Y2730D01*
D02*
X1356Y2129D02*
X1376Y2184D01*
D02*
X67Y1280D02*
X172Y1204D01*
D02*
X172Y1204D02*
X159Y1136D01*
G54D21*
D02*
X463Y2176D02*
X314Y2309D01*
D02*
X676Y2048D02*
X463Y2176D01*
D02*
X676Y2048D02*
X635Y2234D01*
D02*
X685Y1543D02*
X676Y2048D01*
G54D20*
D02*
X724Y2177D02*
X736Y2141D01*
G54D23*
D02*
X159Y1136D02*
X117Y1102D01*
G54D21*
D02*
X469Y2528D02*
X518Y2391D01*
D02*
X322Y2529D02*
X469Y2528D01*
D02*
X388Y2376D02*
X318Y2414D01*
D02*
X373Y2955D02*
X398Y2927D01*
D02*
X434Y2344D02*
X506Y2283D01*
G54D26*
X41Y4337D02*
X60Y4337D01*
X70Y4337D02*
X88Y4337D01*
X39Y4336D02*
X62Y4336D01*
X67Y4336D02*
X90Y4336D01*
X38Y4335D02*
X64Y4335D01*
X66Y4335D02*
X91Y4335D01*
X37Y4334D02*
X92Y4334D01*
X37Y4333D02*
X93Y4333D01*
X36Y4332D02*
X93Y4332D01*
X36Y4331D02*
X93Y4331D01*
X36Y4330D02*
X93Y4330D01*
X36Y4329D02*
X43Y4329D01*
X60Y4329D02*
X70Y4329D01*
X87Y4329D02*
X93Y4329D01*
X36Y4328D02*
X43Y4328D01*
X61Y4328D02*
X69Y4328D01*
X87Y4328D02*
X93Y4328D01*
X36Y4327D02*
X43Y4327D01*
X61Y4327D02*
X68Y4327D01*
X87Y4327D02*
X93Y4327D01*
X36Y4326D02*
X43Y4326D01*
X62Y4326D02*
X68Y4326D01*
X87Y4326D02*
X93Y4326D01*
X36Y4325D02*
X43Y4325D01*
X62Y4325D02*
X68Y4325D01*
X87Y4325D02*
X93Y4325D01*
X36Y4324D02*
X43Y4324D01*
X62Y4324D02*
X68Y4324D01*
X87Y4324D02*
X93Y4324D01*
X36Y4323D02*
X43Y4323D01*
X62Y4323D02*
X68Y4323D01*
X87Y4323D02*
X93Y4323D01*
X36Y4322D02*
X43Y4322D01*
X62Y4322D02*
X68Y4322D01*
X87Y4322D02*
X93Y4322D01*
X36Y4321D02*
X43Y4321D01*
X62Y4321D02*
X68Y4321D01*
X87Y4321D02*
X93Y4321D01*
X36Y4320D02*
X43Y4320D01*
X62Y4320D02*
X68Y4320D01*
X87Y4320D02*
X93Y4320D01*
X36Y4319D02*
X43Y4319D01*
X62Y4319D02*
X68Y4319D01*
X87Y4319D02*
X93Y4319D01*
X36Y4318D02*
X43Y4318D01*
X62Y4318D02*
X68Y4318D01*
X87Y4318D02*
X93Y4318D01*
X36Y4317D02*
X43Y4317D01*
X62Y4317D02*
X68Y4317D01*
X87Y4317D02*
X93Y4317D01*
X36Y4316D02*
X43Y4316D01*
X62Y4316D02*
X68Y4316D01*
X87Y4316D02*
X93Y4316D01*
X36Y4315D02*
X43Y4315D01*
X62Y4315D02*
X68Y4315D01*
X87Y4315D02*
X93Y4315D01*
X36Y4314D02*
X43Y4314D01*
X62Y4314D02*
X68Y4314D01*
X87Y4314D02*
X93Y4314D01*
X36Y4313D02*
X43Y4313D01*
X62Y4313D02*
X68Y4313D01*
X87Y4313D02*
X93Y4313D01*
X36Y4312D02*
X43Y4312D01*
X62Y4312D02*
X68Y4312D01*
X87Y4312D02*
X93Y4312D01*
X36Y4311D02*
X43Y4311D01*
X62Y4311D02*
X68Y4311D01*
X87Y4311D02*
X93Y4311D01*
X36Y4310D02*
X43Y4310D01*
X62Y4310D02*
X68Y4310D01*
X87Y4310D02*
X93Y4310D01*
X36Y4309D02*
X43Y4309D01*
X62Y4309D02*
X67Y4309D01*
X87Y4309D02*
X93Y4309D01*
X36Y4308D02*
X43Y4308D01*
X64Y4308D02*
X66Y4308D01*
X87Y4308D02*
X93Y4308D01*
X36Y4307D02*
X43Y4307D01*
X87Y4307D02*
X93Y4307D01*
X36Y4306D02*
X43Y4306D01*
X87Y4306D02*
X93Y4306D01*
X36Y4305D02*
X43Y4305D01*
X87Y4305D02*
X93Y4305D01*
X36Y4304D02*
X43Y4304D01*
X87Y4304D02*
X93Y4304D01*
X36Y4303D02*
X42Y4303D01*
X87Y4303D02*
X93Y4303D01*
X37Y4302D02*
X42Y4302D01*
X88Y4302D02*
X93Y4302D01*
X38Y4301D02*
X41Y4301D01*
X88Y4301D02*
X92Y4301D01*
X49Y4272D02*
X56Y4272D01*
X47Y4271D02*
X57Y4271D01*
X46Y4270D02*
X58Y4270D01*
X46Y4269D02*
X58Y4269D01*
X46Y4268D02*
X58Y4268D01*
X46Y4267D02*
X59Y4267D01*
X46Y4266D02*
X59Y4266D01*
X46Y4265D02*
X59Y4265D01*
X46Y4264D02*
X59Y4264D01*
X46Y4263D02*
X59Y4263D01*
X46Y4262D02*
X59Y4262D01*
X46Y4261D02*
X58Y4261D01*
X46Y4260D02*
X58Y4260D01*
X46Y4259D02*
X58Y4259D01*
X47Y4258D02*
X57Y4258D01*
X42Y4229D02*
X87Y4229D01*
X40Y4228D02*
X90Y4228D01*
X38Y4227D02*
X91Y4227D01*
X38Y4226D02*
X92Y4226D01*
X37Y4225D02*
X93Y4225D01*
X36Y4224D02*
X93Y4224D01*
X36Y4223D02*
X93Y4223D01*
X36Y4222D02*
X93Y4222D01*
X36Y4221D02*
X43Y4221D01*
X87Y4221D02*
X93Y4221D01*
X36Y4220D02*
X43Y4220D01*
X87Y4220D02*
X93Y4220D01*
X36Y4219D02*
X43Y4219D01*
X87Y4219D02*
X93Y4219D01*
X36Y4218D02*
X43Y4218D01*
X87Y4218D02*
X93Y4218D01*
X36Y4217D02*
X43Y4217D01*
X87Y4217D02*
X93Y4217D01*
X36Y4216D02*
X43Y4216D01*
X87Y4216D02*
X93Y4216D01*
X36Y4215D02*
X43Y4215D01*
X87Y4215D02*
X93Y4215D01*
X36Y4214D02*
X43Y4214D01*
X87Y4214D02*
X93Y4214D01*
X36Y4213D02*
X43Y4213D01*
X87Y4213D02*
X93Y4213D01*
X36Y4212D02*
X43Y4212D01*
X87Y4212D02*
X93Y4212D01*
X36Y4211D02*
X43Y4211D01*
X87Y4211D02*
X93Y4211D01*
X36Y4210D02*
X43Y4210D01*
X87Y4210D02*
X93Y4210D01*
X36Y4209D02*
X43Y4209D01*
X87Y4209D02*
X93Y4209D01*
X36Y4208D02*
X43Y4208D01*
X87Y4208D02*
X93Y4208D01*
X36Y4207D02*
X43Y4207D01*
X87Y4207D02*
X93Y4207D01*
X36Y4206D02*
X43Y4206D01*
X87Y4206D02*
X93Y4206D01*
X36Y4205D02*
X43Y4205D01*
X87Y4205D02*
X93Y4205D01*
X36Y4204D02*
X43Y4204D01*
X87Y4204D02*
X93Y4204D01*
X36Y4203D02*
X43Y4203D01*
X87Y4203D02*
X93Y4203D01*
X36Y4202D02*
X43Y4202D01*
X87Y4202D02*
X93Y4202D01*
X36Y4201D02*
X43Y4201D01*
X87Y4201D02*
X93Y4201D01*
X36Y4200D02*
X43Y4200D01*
X87Y4200D02*
X93Y4200D01*
X36Y4199D02*
X93Y4199D01*
X36Y4198D02*
X93Y4198D01*
X36Y4197D02*
X93Y4197D01*
X37Y4196D02*
X93Y4196D01*
X38Y4195D02*
X92Y4195D01*
X38Y4194D02*
X91Y4194D01*
X40Y4193D02*
X90Y4193D01*
X42Y4192D02*
X87Y4192D01*
X47Y4163D02*
X57Y4163D01*
X46Y4162D02*
X58Y4162D01*
X46Y4161D02*
X58Y4161D01*
X46Y4160D02*
X58Y4160D01*
X46Y4159D02*
X59Y4159D01*
X46Y4158D02*
X59Y4158D01*
X46Y4157D02*
X59Y4157D01*
X46Y4156D02*
X59Y4156D01*
X46Y4155D02*
X59Y4155D01*
X46Y4154D02*
X59Y4154D01*
X46Y4153D02*
X58Y4153D01*
X46Y4152D02*
X58Y4152D01*
X46Y4151D02*
X58Y4151D01*
X47Y4150D02*
X57Y4150D01*
X48Y4149D02*
X56Y4149D01*
X38Y4120D02*
X60Y4120D01*
X37Y4119D02*
X61Y4119D01*
X36Y4118D02*
X62Y4118D01*
X36Y4117D02*
X62Y4117D01*
X36Y4116D02*
X62Y4116D01*
X36Y4115D02*
X61Y4115D01*
X36Y4114D02*
X60Y4114D01*
X36Y4113D02*
X43Y4113D01*
X36Y4112D02*
X43Y4112D01*
X36Y4111D02*
X43Y4111D01*
X36Y4110D02*
X43Y4110D01*
X36Y4109D02*
X43Y4109D01*
X36Y4108D02*
X43Y4108D01*
X36Y4107D02*
X43Y4107D01*
X36Y4106D02*
X43Y4106D01*
X36Y4105D02*
X93Y4105D01*
X36Y4104D02*
X93Y4104D01*
X36Y4103D02*
X93Y4103D01*
X36Y4102D02*
X93Y4102D01*
X36Y4101D02*
X93Y4101D01*
X36Y4100D02*
X93Y4100D01*
X36Y4099D02*
X93Y4099D01*
X36Y4098D02*
X43Y4098D01*
X87Y4098D02*
X93Y4098D01*
X36Y4097D02*
X43Y4097D01*
X87Y4097D02*
X93Y4097D01*
X36Y4096D02*
X43Y4096D01*
X87Y4096D02*
X93Y4096D01*
X36Y4095D02*
X43Y4095D01*
X87Y4095D02*
X93Y4095D01*
X36Y4094D02*
X43Y4094D01*
X87Y4094D02*
X93Y4094D01*
X36Y4093D02*
X43Y4093D01*
X87Y4093D02*
X93Y4093D01*
X36Y4092D02*
X43Y4092D01*
X87Y4092D02*
X93Y4092D01*
X36Y4091D02*
X43Y4091D01*
X87Y4091D02*
X93Y4091D01*
X36Y4090D02*
X43Y4090D01*
X87Y4090D02*
X93Y4090D01*
X36Y4089D02*
X43Y4089D01*
X87Y4089D02*
X93Y4089D01*
X36Y4088D02*
X43Y4088D01*
X87Y4088D02*
X93Y4088D01*
X36Y4087D02*
X43Y4087D01*
X87Y4087D02*
X93Y4087D01*
X36Y4086D02*
X42Y4086D01*
X87Y4086D02*
X93Y4086D01*
X37Y4085D02*
X42Y4085D01*
X88Y4085D02*
X93Y4085D01*
X38Y4084D02*
X41Y4084D01*
X89Y4084D02*
X91Y4084D01*
X30Y4066D02*
X33Y4066D01*
X29Y4065D02*
X34Y4065D01*
X29Y4064D02*
X35Y4064D01*
X29Y4063D02*
X35Y4063D01*
X28Y4062D02*
X35Y4062D01*
X28Y4061D02*
X35Y4061D01*
X28Y4060D02*
X35Y4060D01*
X28Y4059D02*
X35Y4059D01*
X28Y4058D02*
X35Y4058D01*
X28Y4057D02*
X35Y4057D01*
X28Y4056D02*
X35Y4056D01*
X28Y4055D02*
X35Y4055D01*
X28Y4054D02*
X35Y4054D01*
X28Y4053D02*
X35Y4053D01*
X28Y4052D02*
X35Y4052D01*
X28Y4051D02*
X35Y4051D01*
X28Y4050D02*
X35Y4050D01*
X28Y4049D02*
X35Y4049D01*
X28Y4048D02*
X35Y4048D01*
X28Y4047D02*
X35Y4047D01*
X28Y4046D02*
X35Y4046D01*
X28Y4045D02*
X35Y4045D01*
X28Y4044D02*
X35Y4044D01*
X28Y4043D02*
X35Y4043D01*
X28Y4042D02*
X35Y4042D01*
X28Y4041D02*
X35Y4041D01*
X28Y4040D02*
X35Y4040D01*
X28Y4039D02*
X35Y4039D01*
X28Y4038D02*
X35Y4038D01*
X28Y4037D02*
X35Y4037D01*
X28Y4036D02*
X35Y4036D01*
X28Y4035D02*
X35Y4035D01*
X28Y4034D02*
X35Y4034D01*
X29Y4033D02*
X35Y4033D01*
X29Y4032D02*
X35Y4032D01*
X29Y4031D02*
X34Y4031D01*
X30Y4030D02*
X33Y4030D01*
X47Y4012D02*
X57Y4012D01*
X73Y4012D02*
X82Y4012D01*
X45Y4011D02*
X60Y4011D01*
X70Y4011D02*
X85Y4011D01*
X43Y4010D02*
X61Y4010D01*
X68Y4010D02*
X87Y4010D01*
X42Y4009D02*
X62Y4009D01*
X67Y4009D02*
X88Y4009D01*
X41Y4008D02*
X64Y4008D01*
X66Y4008D02*
X89Y4008D01*
X40Y4007D02*
X90Y4007D01*
X39Y4006D02*
X91Y4006D01*
X38Y4005D02*
X91Y4005D01*
X38Y4004D02*
X47Y4004D01*
X58Y4004D02*
X72Y4004D01*
X83Y4004D02*
X92Y4004D01*
X37Y4003D02*
X45Y4003D01*
X59Y4003D02*
X71Y4003D01*
X84Y4003D02*
X92Y4003D01*
X37Y4002D02*
X44Y4002D01*
X60Y4002D02*
X70Y4002D01*
X85Y4002D02*
X93Y4002D01*
X37Y4001D02*
X44Y4001D01*
X61Y4001D02*
X69Y4001D01*
X86Y4001D02*
X93Y4001D01*
X36Y4000D02*
X43Y4000D01*
X61Y4000D02*
X69Y4000D01*
X86Y4000D02*
X93Y4000D01*
X36Y3999D02*
X43Y3999D01*
X61Y3999D02*
X68Y3999D01*
X87Y3999D02*
X93Y3999D01*
X36Y3998D02*
X43Y3998D01*
X61Y3998D02*
X68Y3998D01*
X87Y3998D02*
X93Y3998D01*
X36Y3997D02*
X43Y3997D01*
X62Y3997D02*
X68Y3997D01*
X87Y3997D02*
X93Y3997D01*
X36Y3996D02*
X43Y3996D01*
X62Y3996D02*
X68Y3996D01*
X87Y3996D02*
X93Y3996D01*
X36Y3995D02*
X43Y3995D01*
X62Y3995D02*
X68Y3995D01*
X87Y3995D02*
X93Y3995D01*
X36Y3994D02*
X43Y3994D01*
X62Y3994D02*
X68Y3994D01*
X87Y3994D02*
X93Y3994D01*
X36Y3993D02*
X43Y3993D01*
X62Y3993D02*
X68Y3993D01*
X87Y3993D02*
X93Y3993D01*
X36Y3992D02*
X43Y3992D01*
X62Y3992D02*
X68Y3992D01*
X87Y3992D02*
X93Y3992D01*
X36Y3991D02*
X43Y3991D01*
X62Y3991D02*
X68Y3991D01*
X87Y3991D02*
X93Y3991D01*
X36Y3990D02*
X43Y3990D01*
X62Y3990D02*
X68Y3990D01*
X87Y3990D02*
X93Y3990D01*
X36Y3989D02*
X43Y3989D01*
X62Y3989D02*
X68Y3989D01*
X87Y3989D02*
X93Y3989D01*
X36Y3988D02*
X43Y3988D01*
X62Y3988D02*
X68Y3988D01*
X87Y3988D02*
X93Y3988D01*
X36Y3987D02*
X43Y3987D01*
X62Y3987D02*
X68Y3987D01*
X87Y3987D02*
X93Y3987D01*
X36Y3986D02*
X43Y3986D01*
X62Y3986D02*
X68Y3986D01*
X87Y3986D02*
X93Y3986D01*
X36Y3985D02*
X43Y3985D01*
X62Y3985D02*
X68Y3985D01*
X87Y3985D02*
X93Y3985D01*
X36Y3984D02*
X43Y3984D01*
X62Y3984D02*
X68Y3984D01*
X87Y3984D02*
X93Y3984D01*
X36Y3983D02*
X43Y3983D01*
X61Y3983D02*
X68Y3983D01*
X87Y3983D02*
X93Y3983D01*
X36Y3982D02*
X93Y3982D01*
X36Y3981D02*
X93Y3981D01*
X36Y3980D02*
X93Y3980D01*
X36Y3979D02*
X93Y3979D01*
X36Y3978D02*
X93Y3978D01*
X36Y3977D02*
X93Y3977D01*
X36Y3976D02*
X93Y3976D01*
X67Y3958D02*
X75Y3958D01*
X65Y3957D02*
X77Y3957D01*
X62Y3956D02*
X77Y3956D01*
X60Y3955D02*
X78Y3955D01*
X58Y3954D02*
X77Y3954D01*
X55Y3953D02*
X77Y3953D01*
X53Y3952D02*
X76Y3952D01*
X51Y3951D02*
X75Y3951D01*
X49Y3950D02*
X66Y3950D01*
X46Y3949D02*
X64Y3949D01*
X44Y3948D02*
X62Y3948D01*
X42Y3947D02*
X60Y3947D01*
X39Y3946D02*
X57Y3946D01*
X38Y3945D02*
X55Y3945D01*
X37Y3944D02*
X53Y3944D01*
X36Y3943D02*
X50Y3943D01*
X36Y3942D02*
X48Y3942D01*
X36Y3941D02*
X46Y3941D01*
X36Y3940D02*
X44Y3940D01*
X36Y3939D02*
X44Y3939D01*
X36Y3938D02*
X47Y3938D01*
X36Y3937D02*
X49Y3937D01*
X36Y3936D02*
X51Y3936D01*
X37Y3935D02*
X54Y3935D01*
X38Y3934D02*
X56Y3934D01*
X40Y3933D02*
X58Y3933D01*
X43Y3932D02*
X61Y3932D01*
X45Y3931D02*
X63Y3931D01*
X47Y3930D02*
X65Y3930D01*
X49Y3929D02*
X67Y3929D01*
X52Y3928D02*
X76Y3928D01*
X54Y3927D02*
X77Y3927D01*
X56Y3926D02*
X77Y3926D01*
X59Y3925D02*
X78Y3925D01*
X61Y3924D02*
X77Y3924D01*
X63Y3923D02*
X77Y3923D01*
X66Y3922D02*
X76Y3922D01*
X39Y3904D02*
X40Y3904D01*
X55Y3904D02*
X66Y3904D01*
X37Y3903D02*
X42Y3903D01*
X53Y3903D02*
X69Y3903D01*
X36Y3902D02*
X42Y3902D01*
X52Y3902D02*
X71Y3902D01*
X36Y3901D02*
X43Y3901D01*
X52Y3901D02*
X72Y3901D01*
X36Y3900D02*
X43Y3900D01*
X52Y3900D02*
X73Y3900D01*
X36Y3899D02*
X43Y3899D01*
X52Y3899D02*
X74Y3899D01*
X36Y3898D02*
X43Y3898D01*
X52Y3898D02*
X75Y3898D01*
X36Y3897D02*
X43Y3897D01*
X52Y3897D02*
X75Y3897D01*
X36Y3896D02*
X43Y3896D01*
X52Y3896D02*
X59Y3896D01*
X67Y3896D02*
X76Y3896D01*
X36Y3895D02*
X43Y3895D01*
X52Y3895D02*
X59Y3895D01*
X68Y3895D02*
X77Y3895D01*
X36Y3894D02*
X43Y3894D01*
X52Y3894D02*
X59Y3894D01*
X69Y3894D02*
X77Y3894D01*
X36Y3893D02*
X43Y3893D01*
X52Y3893D02*
X59Y3893D01*
X70Y3893D02*
X77Y3893D01*
X36Y3892D02*
X43Y3892D01*
X52Y3892D02*
X59Y3892D01*
X71Y3892D02*
X77Y3892D01*
X36Y3891D02*
X43Y3891D01*
X52Y3891D02*
X59Y3891D01*
X71Y3891D02*
X78Y3891D01*
X36Y3890D02*
X43Y3890D01*
X52Y3890D02*
X59Y3890D01*
X71Y3890D02*
X78Y3890D01*
X36Y3889D02*
X43Y3889D01*
X52Y3889D02*
X59Y3889D01*
X71Y3889D02*
X78Y3889D01*
X36Y3888D02*
X43Y3888D01*
X52Y3888D02*
X59Y3888D01*
X71Y3888D02*
X78Y3888D01*
X36Y3887D02*
X43Y3887D01*
X52Y3887D02*
X59Y3887D01*
X71Y3887D02*
X78Y3887D01*
X36Y3886D02*
X43Y3886D01*
X52Y3886D02*
X59Y3886D01*
X71Y3886D02*
X78Y3886D01*
X36Y3885D02*
X43Y3885D01*
X52Y3885D02*
X59Y3885D01*
X71Y3885D02*
X78Y3885D01*
X36Y3884D02*
X43Y3884D01*
X52Y3884D02*
X59Y3884D01*
X71Y3884D02*
X78Y3884D01*
X36Y3883D02*
X43Y3883D01*
X52Y3883D02*
X59Y3883D01*
X71Y3883D02*
X78Y3883D01*
X36Y3882D02*
X43Y3882D01*
X52Y3882D02*
X59Y3882D01*
X71Y3882D02*
X78Y3882D01*
X36Y3881D02*
X43Y3881D01*
X52Y3881D02*
X59Y3881D01*
X71Y3881D02*
X78Y3881D01*
X36Y3880D02*
X43Y3880D01*
X52Y3880D02*
X59Y3880D01*
X71Y3880D02*
X78Y3880D01*
X36Y3879D02*
X43Y3879D01*
X52Y3879D02*
X59Y3879D01*
X71Y3879D02*
X77Y3879D01*
X36Y3878D02*
X44Y3878D01*
X52Y3878D02*
X59Y3878D01*
X70Y3878D02*
X77Y3878D01*
X37Y3877D02*
X45Y3877D01*
X52Y3877D02*
X59Y3877D01*
X69Y3877D02*
X77Y3877D01*
X37Y3876D02*
X46Y3876D01*
X52Y3876D02*
X59Y3876D01*
X68Y3876D02*
X76Y3876D01*
X38Y3875D02*
X47Y3875D01*
X52Y3875D02*
X59Y3875D01*
X67Y3875D02*
X76Y3875D01*
X38Y3874D02*
X75Y3874D01*
X39Y3873D02*
X74Y3873D01*
X40Y3872D02*
X74Y3872D01*
X41Y3871D02*
X73Y3871D01*
X42Y3870D02*
X72Y3870D01*
X43Y3869D02*
X70Y3869D01*
X45Y3868D02*
X69Y3868D01*
X49Y3867D02*
X65Y3867D01*
X65Y3850D02*
X67Y3850D01*
X63Y3849D02*
X71Y3849D01*
X62Y3848D02*
X73Y3848D01*
X62Y3847D02*
X74Y3847D01*
X62Y3846D02*
X75Y3846D01*
X62Y3845D02*
X76Y3845D01*
X62Y3844D02*
X76Y3844D01*
X64Y3843D02*
X77Y3843D01*
X69Y3842D02*
X77Y3842D01*
X70Y3841D02*
X77Y3841D01*
X71Y3840D02*
X77Y3840D01*
X71Y3839D02*
X78Y3839D01*
X71Y3838D02*
X78Y3838D01*
X71Y3837D02*
X78Y3837D01*
X71Y3836D02*
X78Y3836D01*
X71Y3835D02*
X78Y3835D01*
X71Y3834D02*
X78Y3834D01*
X71Y3833D02*
X78Y3833D01*
X70Y3832D02*
X78Y3832D01*
X70Y3831D02*
X78Y3831D01*
X69Y3830D02*
X77Y3830D01*
X68Y3829D02*
X77Y3829D01*
X67Y3828D02*
X76Y3828D01*
X66Y3827D02*
X75Y3827D01*
X65Y3826D02*
X74Y3826D01*
X64Y3825D02*
X73Y3825D01*
X63Y3824D02*
X72Y3824D01*
X63Y3823D02*
X72Y3823D01*
X62Y3822D02*
X71Y3822D01*
X61Y3821D02*
X70Y3821D01*
X38Y3820D02*
X75Y3820D01*
X37Y3819D02*
X77Y3819D01*
X36Y3818D02*
X77Y3818D01*
X36Y3817D02*
X78Y3817D01*
X36Y3816D02*
X78Y3816D01*
X36Y3815D02*
X77Y3815D01*
X37Y3814D02*
X77Y3814D01*
X39Y3813D02*
X75Y3813D01*
X1366Y2678D02*
X1377Y2678D01*
X1362Y2677D02*
X1381Y2677D01*
X1359Y2676D02*
X1384Y2676D01*
X1356Y2675D02*
X1387Y2675D01*
X1354Y2674D02*
X1389Y2674D01*
X1353Y2673D02*
X1391Y2673D01*
X1351Y2672D02*
X1392Y2672D01*
X1350Y2671D02*
X1394Y2671D01*
X1348Y2670D02*
X1395Y2670D01*
X1347Y2669D02*
X1396Y2669D01*
X1346Y2668D02*
X1397Y2668D01*
X1345Y2667D02*
X1398Y2667D01*
X1344Y2666D02*
X1399Y2666D01*
X1343Y2665D02*
X1400Y2665D01*
X1342Y2664D02*
X1401Y2664D01*
X1342Y2663D02*
X1401Y2663D01*
X1341Y2662D02*
X1402Y2662D01*
X1340Y2661D02*
X1403Y2661D01*
X1340Y2660D02*
X1403Y2660D01*
X1339Y2659D02*
X1404Y2659D01*
X1339Y2658D02*
X1366Y2658D01*
X1377Y2658D02*
X1404Y2658D01*
X1338Y2657D02*
X1363Y2657D01*
X1380Y2657D02*
X1405Y2657D01*
X1338Y2656D02*
X1362Y2656D01*
X1381Y2656D02*
X1405Y2656D01*
X1337Y2655D02*
X1360Y2655D01*
X1383Y2655D02*
X1406Y2655D01*
X1337Y2654D02*
X1359Y2654D01*
X1384Y2654D02*
X1406Y2654D01*
X1337Y2653D02*
X1358Y2653D01*
X1385Y2653D02*
X1406Y2653D01*
X1336Y2652D02*
X1357Y2652D01*
X1386Y2652D02*
X1407Y2652D01*
X1336Y2651D02*
X1357Y2651D01*
X1387Y2651D02*
X1407Y2651D01*
X1336Y2650D02*
X1356Y2650D01*
X1387Y2650D02*
X1407Y2650D01*
X1336Y2649D02*
X1355Y2649D01*
X1388Y2649D02*
X1408Y2649D01*
X1335Y2648D02*
X1355Y2648D01*
X1388Y2648D02*
X1408Y2648D01*
X1335Y2647D02*
X1355Y2647D01*
X1389Y2647D02*
X1408Y2647D01*
X1335Y2646D02*
X1354Y2646D01*
X1389Y2646D02*
X1408Y2646D01*
X1335Y2645D02*
X1354Y2645D01*
X1389Y2645D02*
X1408Y2645D01*
X1335Y2644D02*
X1354Y2644D01*
X1389Y2644D02*
X1408Y2644D01*
X1335Y2643D02*
X1354Y2643D01*
X1389Y2643D02*
X1408Y2643D01*
X1335Y2642D02*
X1354Y2642D01*
X1390Y2642D02*
X1409Y2642D01*
X1335Y2641D02*
X1354Y2641D01*
X1390Y2641D02*
X1408Y2641D01*
X1335Y2640D02*
X1354Y2640D01*
X1390Y2640D02*
X1408Y2640D01*
X1335Y2639D02*
X1354Y2639D01*
X1390Y2639D02*
X1408Y2639D01*
X1335Y2638D02*
X1354Y2638D01*
X1389Y2638D02*
X1408Y2638D01*
X1335Y2637D02*
X1354Y2637D01*
X1389Y2637D02*
X1408Y2637D01*
X1335Y2636D02*
X1354Y2636D01*
X1389Y2636D02*
X1408Y2636D01*
X1335Y2635D02*
X1355Y2635D01*
X1389Y2635D02*
X1408Y2635D01*
X1335Y2634D02*
X1355Y2634D01*
X1388Y2634D02*
X1408Y2634D01*
X1336Y2633D02*
X1355Y2633D01*
X1388Y2633D02*
X1407Y2633D01*
X1336Y2632D02*
X1356Y2632D01*
X1387Y2632D02*
X1407Y2632D01*
X1336Y2631D02*
X1357Y2631D01*
X1386Y2631D02*
X1407Y2631D01*
X1336Y2630D02*
X1357Y2630D01*
X1386Y2630D02*
X1407Y2630D01*
X1337Y2629D02*
X1359Y2629D01*
X1385Y2629D02*
X1406Y2629D01*
X1337Y2628D02*
X1360Y2628D01*
X1384Y2628D02*
X1406Y2628D01*
X1338Y2627D02*
X1361Y2627D01*
X1383Y2627D02*
X1406Y2627D01*
X1338Y2626D02*
X1362Y2626D01*
X1381Y2626D02*
X1405Y2626D01*
X1338Y2625D02*
X1364Y2625D01*
X1379Y2625D02*
X1405Y2625D01*
X1339Y2624D02*
X1367Y2624D01*
X1375Y2624D02*
X1404Y2624D01*
X1339Y2623D02*
X1404Y2623D01*
X1340Y2622D02*
X1403Y2622D01*
X1341Y2621D02*
X1403Y2621D01*
X1341Y2620D02*
X1402Y2620D01*
X1342Y2619D02*
X1401Y2619D01*
X1343Y2618D02*
X1401Y2618D01*
X1344Y2617D02*
X1400Y2617D01*
X1344Y2616D02*
X1399Y2616D01*
X1345Y2615D02*
X1398Y2615D01*
X1346Y2614D02*
X1397Y2614D01*
X1347Y2613D02*
X1396Y2613D01*
X1349Y2612D02*
X1394Y2612D01*
X1350Y2611D02*
X1393Y2611D01*
X1351Y2610D02*
X1392Y2610D01*
X1353Y2609D02*
X1390Y2609D01*
X1355Y2608D02*
X1388Y2608D01*
X1357Y2607D02*
X1386Y2607D01*
X1360Y2606D02*
X1384Y2606D01*
X1363Y2605D02*
X1381Y2605D01*
X1368Y2604D02*
X1376Y2604D01*
D02*
G04 End of Copper0*
M02*