G04 MADE WITH FRITZING*
G04 WWW.FRITZING.ORG*
G04 DOUBLE SIDED*
G04 HOLES PLATED*
G04 CONTOUR ON CENTER OF CONTOUR VECTOR*
%ASAXBY*%
%FSLAX23Y23*%
%MOIN*%
%OFA0B0*%
%SFA1.0B1.0*%
%ADD10C,0.078000*%
%ADD11C,0.086614*%
%ADD12C,0.086555*%
%ADD13C,0.070232*%
%ADD14C,0.074667*%
%ADD15C,0.074695*%
%ADD16C,0.124033*%
%ADD17C,0.079370*%
%ADD18C,0.075000*%
%ADD19C,0.204725*%
%ADD20R,0.086614X0.086614*%
%ADD21R,0.079370X0.079370*%
%ADD22C,0.008000*%
%ADD23C,0.024000*%
%ADD24C,0.012000*%
%ADD25C,0.007000*%
%ADD26C,0.016000*%
%LNCOPPER0*%
G90*
G70*
G54D10*
X144Y2819D03*
X144Y2719D03*
X144Y2619D03*
X144Y2519D03*
X144Y2419D03*
G54D11*
X648Y2012D03*
G54D12*
X651Y1684D03*
G54D13*
X651Y1582D03*
G54D11*
X244Y2005D03*
G54D12*
X246Y1678D03*
G54D13*
X246Y1575D03*
G54D14*
X550Y3062D03*
X550Y2962D03*
G54D15*
X550Y2862D03*
G54D16*
X846Y3156D03*
X846Y2767D03*
G54D14*
X891Y2577D03*
X891Y2477D03*
G54D15*
X891Y2377D03*
G54D16*
X1187Y2671D03*
X1187Y2283D03*
G54D14*
X278Y3547D03*
X278Y3447D03*
G54D15*
X278Y3347D03*
G54D16*
X573Y3641D03*
X573Y3253D03*
G54D14*
X545Y3839D03*
X545Y3939D03*
G54D15*
X545Y4039D03*
G54D16*
X249Y3745D03*
X249Y4133D03*
G54D11*
X241Y1054D03*
G54D12*
X243Y726D03*
G54D13*
X243Y624D03*
G54D10*
X922Y230D03*
X922Y330D03*
X922Y430D03*
X922Y530D03*
X72Y2130D03*
X172Y2130D03*
X272Y2130D03*
X372Y2130D03*
X472Y2130D03*
G54D11*
X654Y1152D03*
G54D12*
X651Y1480D03*
G54D13*
X651Y1582D03*
G54D11*
X1173Y2006D03*
G54D12*
X1176Y1678D03*
G54D13*
X1176Y1576D03*
G54D11*
X1180Y1152D03*
G54D12*
X1177Y1480D03*
G54D13*
X1177Y1582D03*
G54D11*
X1180Y1057D03*
G54D12*
X1182Y729D03*
G54D13*
X1182Y627D03*
G54D11*
X1185Y202D03*
G54D12*
X1182Y530D03*
G54D13*
X1182Y632D03*
G54D11*
X656Y1057D03*
G54D12*
X658Y730D03*
G54D13*
X658Y627D03*
G54D11*
X247Y1152D03*
G54D12*
X244Y1480D03*
G54D13*
X244Y1582D03*
G54D11*
X252Y194D03*
G54D12*
X250Y522D03*
G54D13*
X250Y624D03*
G54D11*
X658Y196D03*
G54D12*
X655Y524D03*
G54D13*
X655Y626D03*
G54D17*
X880Y4344D03*
X1180Y4344D03*
X880Y4244D03*
X1180Y4244D03*
X880Y4144D03*
X1180Y4144D03*
X880Y4044D03*
X1180Y4044D03*
X880Y3944D03*
X1180Y3944D03*
X880Y3844D03*
X1180Y3844D03*
X880Y3744D03*
X1180Y3744D03*
G54D18*
X416Y3051D03*
X416Y2751D03*
X1288Y4000D03*
X1288Y4300D03*
X353Y3142D03*
X353Y2842D03*
X168Y3522D03*
X168Y3222D03*
X98Y3633D03*
X98Y3333D03*
X1353Y3508D03*
X1353Y3208D03*
X962Y3647D03*
X962Y3347D03*
X751Y3568D03*
X751Y3268D03*
X1354Y4378D03*
X1354Y4078D03*
X1213Y3354D03*
X1213Y3654D03*
X756Y3992D03*
X756Y3692D03*
X483Y4266D03*
X783Y4266D03*
X1355Y3896D03*
X1290Y3603D03*
X1080Y3652D03*
X1080Y3352D03*
X475Y4355D03*
X775Y4355D03*
X886Y3276D03*
X886Y3576D03*
G54D19*
X137Y4312D03*
G54D10*
X922Y755D03*
X922Y855D03*
X922Y955D03*
X922Y1055D03*
X922Y1155D03*
X1175Y3212D03*
X1175Y3112D03*
X1175Y3012D03*
X1175Y2912D03*
X1175Y2812D03*
G54D18*
X652Y4174D03*
X869Y1619D03*
X1147Y3538D03*
X969Y1330D03*
X816Y3638D03*
X920Y1477D03*
G54D20*
X648Y2012D03*
X244Y2005D03*
X241Y1054D03*
X654Y1152D03*
X1173Y2006D03*
X1180Y1152D03*
X1180Y1057D03*
X1185Y202D03*
X656Y1057D03*
X247Y1152D03*
X252Y194D03*
X658Y196D03*
G54D21*
X880Y4344D03*
G54D22*
X570Y3933D02*
X606Y3925D01*
D02*
X606Y3925D02*
X594Y3806D01*
D02*
X594Y3806D02*
X346Y3554D01*
D02*
X346Y3554D02*
X322Y3399D01*
D02*
X322Y3399D02*
X239Y3395D01*
D02*
X239Y3395D02*
X219Y3343D01*
D02*
X219Y3343D02*
X259Y3277D01*
D02*
X259Y3277D02*
X285Y3021D01*
D02*
X285Y3021D02*
X465Y2869D01*
D02*
X465Y2869D02*
X550Y2723D01*
D02*
X550Y2723D02*
X874Y2319D01*
D02*
X874Y2319D02*
X943Y2336D01*
D02*
X943Y2336D02*
X1333Y2549D01*
D02*
X1333Y2549D02*
X1324Y3034D01*
D02*
X1324Y3034D02*
X1215Y3264D01*
D02*
X1215Y3264D02*
X1141Y3267D01*
D02*
X1141Y3267D02*
X1085Y3199D01*
D02*
X1085Y3199D02*
X1098Y3001D01*
D02*
X1098Y3001D02*
X1139Y2964D01*
D02*
X1139Y2964D02*
X1211Y2962D01*
D02*
X1211Y2962D02*
X1237Y2897D01*
D02*
X1237Y2897D02*
X1219Y2849D01*
D02*
X1219Y2849D02*
X1194Y2828D01*
D02*
X215Y3419D02*
X254Y3437D01*
D02*
X193Y3354D02*
X215Y3419D01*
D02*
X237Y3269D02*
X193Y3354D01*
D02*
X257Y3019D02*
X237Y3269D01*
D02*
X444Y2854D02*
X257Y3019D01*
D02*
X530Y2708D02*
X444Y2854D01*
D02*
X861Y2299D02*
X530Y2708D01*
D02*
X1102Y2140D02*
X861Y2299D01*
D02*
X1330Y2138D02*
X1102Y2140D01*
D02*
X1385Y2317D02*
X1330Y2138D01*
D02*
X1378Y3132D02*
X1385Y2317D01*
D02*
X1322Y3164D02*
X1378Y3132D01*
D02*
X1285Y3219D02*
X1322Y3164D01*
D02*
X1256Y3275D02*
X1285Y3219D01*
D02*
X1131Y3297D02*
X1256Y3275D01*
D02*
X1052Y3208D02*
X1131Y3297D01*
D02*
X1067Y2975D02*
X1052Y3208D01*
D02*
X1154Y2924D02*
X1067Y2975D01*
G54D23*
D02*
X658Y664D02*
X658Y688D01*
G54D22*
D02*
X950Y967D02*
X993Y986D01*
D02*
X993Y986D02*
X1030Y1195D01*
D02*
X1030Y1195D02*
X978Y1309D01*
G54D23*
D02*
X283Y1576D02*
X391Y1577D01*
D02*
X391Y1577D02*
X384Y630D01*
D02*
X384Y630D02*
X280Y625D01*
G54D22*
D02*
X678Y651D02*
X884Y906D01*
D02*
X884Y906D02*
X962Y906D01*
D02*
X962Y906D02*
X1027Y955D01*
D02*
X1027Y955D02*
X1058Y1186D01*
D02*
X1058Y1186D02*
X1096Y1239D01*
D02*
X1096Y1239D02*
X1109Y1544D01*
D02*
X1109Y1544D02*
X1151Y1567D01*
G54D23*
D02*
X777Y3673D02*
X795Y3657D01*
G54D24*
D02*
X111Y3352D02*
X149Y3413D01*
D02*
X149Y3413D02*
X217Y3490D01*
D02*
X217Y3490D02*
X259Y3529D01*
G54D23*
D02*
X804Y2123D02*
X800Y1249D01*
X800Y1249D02*
X689Y1175D01*
D02*
X704Y2386D02*
X804Y2123D01*
D02*
X434Y2728D02*
X704Y2386D01*
G54D24*
D02*
X1057Y3351D02*
X985Y3348D01*
G54D22*
D02*
X930Y1253D02*
X993Y1195D01*
D02*
X993Y1195D02*
X981Y1095D01*
D02*
X893Y1330D02*
X930Y1253D01*
D02*
X981Y1095D02*
X943Y1069D01*
D02*
X916Y1454D02*
X893Y1330D01*
G54D23*
D02*
X869Y2399D02*
X843Y2424D01*
D02*
X843Y2424D02*
X568Y2835D01*
D02*
X1150Y3936D02*
X1089Y3919D01*
D02*
X1089Y3919D02*
X974Y3673D01*
G54D24*
D02*
X1198Y4227D02*
X1337Y4094D01*
G54D22*
D02*
X529Y2877D02*
X307Y3045D01*
D02*
X307Y3045D02*
X280Y3321D01*
D02*
X864Y3964D02*
X789Y4053D01*
D02*
X789Y4053D02*
X716Y4048D01*
D02*
X716Y4048D02*
X671Y3977D01*
D02*
X671Y3977D02*
X671Y3717D01*
D02*
X671Y3717D02*
X740Y3589D01*
D02*
X348Y3367D02*
X303Y3354D01*
D02*
X369Y3512D02*
X348Y3367D01*
D02*
X383Y3565D02*
X369Y3512D01*
D02*
X622Y3801D02*
X383Y3565D01*
D02*
X633Y4001D02*
X622Y3801D01*
D02*
X569Y4028D02*
X633Y4001D01*
G54D24*
D02*
X178Y2064D02*
X252Y2116D01*
D02*
X178Y1944D02*
X178Y2064D01*
D02*
X169Y1847D02*
X178Y1944D01*
D02*
X175Y1241D02*
X169Y1847D01*
D02*
X224Y1181D02*
X175Y1241D01*
G54D23*
D02*
X941Y3328D02*
X907Y3295D01*
G54D22*
D02*
X944Y2530D02*
X1263Y2603D01*
D02*
X1263Y2603D02*
X1254Y2980D01*
D02*
X844Y2528D02*
X944Y2530D01*
D02*
X1254Y2980D02*
X1198Y3003D01*
D02*
X711Y2703D02*
X844Y2528D01*
D02*
X617Y2927D02*
X711Y2703D01*
D02*
X573Y2949D02*
X617Y2927D01*
G54D24*
D02*
X389Y3450D02*
X724Y3559D01*
D02*
X356Y3165D02*
X389Y3450D01*
G54D23*
D02*
X353Y2813D02*
X352Y2697D01*
D02*
X352Y2697D02*
X667Y2371D01*
D02*
X667Y2371D02*
X759Y2112D01*
D02*
X759Y2112D02*
X759Y1275D01*
D02*
X759Y1275D02*
X556Y1230D01*
D02*
X556Y1230D02*
X559Y1097D01*
D02*
X559Y1097D02*
X617Y1073D01*
D02*
X1249Y4104D02*
X1206Y4129D01*
D02*
X1278Y4027D02*
X1249Y4104D01*
G54D25*
D02*
X944Y4346D02*
X960Y4246D01*
D02*
X960Y4246D02*
X917Y4194D01*
D02*
X905Y4345D02*
X944Y4346D01*
D02*
X917Y4194D02*
X844Y4195D01*
D02*
X844Y4195D02*
X506Y4261D01*
G54D23*
D02*
X981Y204D02*
X950Y218D01*
D02*
X1142Y203D02*
X981Y204D01*
D02*
X1215Y2005D02*
X1341Y2003D01*
D02*
X1341Y2003D02*
X1389Y1938D01*
D02*
X1389Y1938D02*
X1396Y127D01*
D02*
X1396Y127D02*
X859Y134D01*
D02*
X859Y134D02*
X864Y522D01*
D02*
X864Y522D02*
X892Y526D01*
G54D22*
D02*
X455Y4344D02*
X413Y4319D01*
D02*
X413Y4319D02*
X402Y4106D01*
D02*
X402Y4106D02*
X317Y4050D01*
D02*
X317Y4050D02*
X169Y4028D01*
D02*
X169Y4028D02*
X42Y3670D01*
D02*
X42Y3670D02*
X44Y3559D01*
D02*
X44Y3559D02*
X93Y3355D01*
G54D23*
D02*
X1210Y4350D02*
X1326Y4373D01*
G54D24*
D02*
X781Y4289D02*
X777Y4332D01*
G54D23*
D02*
X153Y3546D02*
X114Y3609D01*
G54D24*
D02*
X1276Y2997D02*
X1191Y3093D01*
D02*
X1287Y2588D02*
X1276Y2997D01*
D02*
X917Y2484D02*
X1287Y2588D01*
D02*
X447Y3394D02*
X900Y3482D01*
D02*
X900Y3482D02*
X963Y3530D01*
D02*
X418Y3074D02*
X447Y3394D01*
D02*
X963Y3530D02*
X962Y3624D01*
D02*
X852Y1334D02*
X913Y1178D01*
D02*
X867Y1596D02*
X852Y1334D01*
D02*
X900Y3829D02*
X944Y3793D01*
D02*
X944Y3793D02*
X937Y3704D01*
D02*
X937Y3704D02*
X889Y3664D01*
D02*
X889Y3664D02*
X887Y3599D01*
D02*
X1354Y4055D02*
X1355Y3919D01*
G54D23*
D02*
X859Y3867D02*
X809Y3919D01*
D02*
X809Y3919D02*
X773Y3969D01*
D02*
X1110Y1127D02*
X1140Y1138D01*
D02*
X1100Y990D02*
X1110Y1127D01*
D02*
X1326Y986D02*
X1100Y990D01*
D02*
X1319Y393D02*
X1326Y986D01*
D02*
X1256Y319D02*
X1319Y393D01*
D02*
X1058Y322D02*
X1256Y319D01*
D02*
X946Y412D02*
X1058Y322D01*
D02*
X582Y3060D02*
X630Y3058D01*
D02*
X630Y3058D02*
X730Y2884D01*
D02*
X730Y2884D02*
X741Y2749D01*
D02*
X741Y2749D02*
X870Y2601D01*
D02*
X1203Y3681D02*
X1191Y3716D01*
G54D22*
D02*
X629Y2079D02*
X637Y2052D01*
D02*
X602Y2308D02*
X629Y2079D01*
D02*
X29Y2313D02*
X602Y2308D01*
D02*
X22Y3126D02*
X29Y2313D01*
D02*
X28Y4058D02*
X22Y3126D01*
D02*
X51Y4154D02*
X28Y4058D01*
D02*
X162Y4195D02*
X51Y4154D01*
D02*
X258Y4228D02*
X162Y4195D01*
D02*
X473Y4433D02*
X258Y4228D01*
D02*
X1091Y4435D02*
X473Y4433D01*
D02*
X1138Y4295D02*
X1091Y4435D01*
D02*
X1218Y4293D02*
X1138Y4295D01*
D02*
X1266Y4298D02*
X1218Y4293D01*
G54D23*
D02*
X1179Y663D02*
X1185Y596D01*
D02*
X651Y1546D02*
X651Y1522D01*
G54D22*
D02*
X118Y3321D02*
X216Y3265D01*
D02*
X216Y3265D02*
X237Y3017D01*
D02*
X237Y3017D02*
X424Y2847D01*
D02*
X424Y2847D02*
X483Y2745D01*
D02*
X483Y2745D02*
X511Y2697D01*
D02*
X511Y2697D02*
X843Y2285D01*
D02*
X843Y2285D02*
X1033Y2148D01*
D02*
X1033Y2148D02*
X1069Y2084D01*
D02*
X1069Y2084D02*
X1058Y1968D01*
D02*
X1058Y1968D02*
X1071Y1704D01*
D02*
X1071Y1704D02*
X1111Y1606D01*
D02*
X1111Y1606D02*
X1148Y1592D01*
D02*
X1211Y3299D02*
X1135Y3321D01*
D02*
X1135Y3321D02*
X1100Y3341D01*
D02*
X1259Y3301D02*
X1211Y3299D01*
D02*
X1337Y3224D02*
X1259Y3301D01*
G54D23*
D02*
X615Y1581D02*
X283Y1576D01*
D02*
X657Y591D02*
X656Y566D01*
D02*
X783Y3703D02*
X852Y3732D01*
D02*
X1362Y3730D02*
X1276Y3875D01*
D02*
X1276Y3875D02*
X1286Y3972D01*
D02*
X1354Y3536D02*
X1362Y3730D01*
D02*
X351Y2109D02*
X274Y2035D01*
D02*
X1070Y3501D02*
X1193Y3375D01*
D02*
X1078Y3624D02*
X1070Y3501D01*
G54D24*
D02*
X684Y611D02*
X767Y560D01*
D02*
X767Y560D02*
X733Y280D01*
D02*
X733Y280D02*
X580Y284D01*
D02*
X580Y284D02*
X265Y602D01*
G54D26*
D02*
X133Y1125D02*
X206Y1077D01*
D02*
X135Y2053D02*
X133Y1125D01*
D02*
X159Y2103D02*
X135Y2053D01*
G54D24*
D02*
X735Y3252D02*
X569Y3080D01*
D02*
X1289Y3580D02*
X1284Y3417D01*
D02*
X1284Y3417D02*
X1346Y3230D01*
D02*
X787Y4127D02*
X575Y4050D01*
D02*
X861Y4061D02*
X787Y4127D01*
G54D22*
D02*
X915Y2388D02*
X1307Y2567D01*
D02*
X1307Y2567D02*
X1298Y3015D01*
D02*
X1298Y3015D02*
X1188Y3191D01*
D02*
X184Y3539D02*
X313Y3673D01*
D02*
X313Y3673D02*
X415Y3993D01*
D02*
X415Y3993D02*
X524Y4094D01*
D02*
X524Y4094D02*
X593Y4097D01*
D02*
X593Y4097D02*
X803Y4162D01*
D02*
X803Y4162D02*
X855Y4150D01*
G54D23*
D02*
X811Y4260D02*
X850Y4251D01*
G54D22*
D02*
X1241Y3867D02*
X1240Y3986D01*
D02*
X1286Y3626D02*
X1241Y3867D01*
D02*
X1240Y3986D02*
X1198Y4027D01*
D02*
X184Y3037D02*
X170Y3199D01*
D02*
X285Y2660D02*
X184Y3037D01*
D02*
X504Y2421D02*
X285Y2660D01*
D02*
X624Y2340D02*
X504Y2421D01*
D02*
X656Y2110D02*
X624Y2340D01*
D02*
X708Y2108D02*
X656Y2110D01*
D02*
X711Y1941D02*
X708Y2108D01*
D02*
X644Y1939D02*
X711Y1941D01*
D02*
X562Y1957D02*
X644Y1939D01*
D02*
X553Y2195D02*
X562Y1957D01*
D02*
X462Y2219D02*
X553Y2195D01*
D02*
X160Y2195D02*
X462Y2219D01*
D02*
X124Y2178D02*
X160Y2195D01*
D02*
X122Y2097D02*
X124Y2178D01*
D02*
X63Y2033D02*
X122Y2097D01*
D02*
X50Y1341D02*
X63Y2033D01*
D02*
X78Y375D02*
X50Y1341D01*
D02*
X394Y261D02*
X78Y375D01*
D02*
X622Y205D02*
X394Y261D01*
G54D23*
D02*
X508Y4252D02*
X627Y4188D01*
D02*
X686Y1573D02*
X662Y1579D01*
D02*
X662Y1579D02*
X686Y1573D01*
D02*
X651Y1618D02*
X651Y1642D01*
D02*
X1199Y3629D02*
X1161Y3563D01*
D02*
X477Y2101D02*
X553Y1657D01*
D02*
X553Y1657D02*
X622Y1604D01*
G54D22*
D02*
X1164Y4064D02*
X1127Y4110D01*
D02*
X1127Y4110D02*
X1111Y4293D01*
D02*
X1111Y4293D02*
X1071Y4408D01*
D02*
X1071Y4408D02*
X616Y4415D01*
D02*
X616Y4415D02*
X496Y4364D01*
D02*
X1159Y3830D02*
X1080Y3773D01*
D02*
X1080Y3773D02*
X1062Y3695D01*
D02*
X1062Y3695D02*
X1071Y3674D01*
G54D24*
D02*
X863Y3275D02*
X774Y3270D01*
G54D23*
D02*
X1037Y275D02*
X949Y317D01*
D02*
X1278Y275D02*
X1037Y275D01*
D02*
X1358Y364D02*
X1278Y275D01*
D02*
X1358Y1053D02*
X1358Y364D01*
D02*
X1222Y1056D02*
X1358Y1053D01*
G54D24*
D02*
X689Y631D02*
X916Y657D01*
D02*
X916Y657D02*
X1152Y630D01*
G54D23*
D02*
X1205Y1558D02*
X1193Y1568D01*
D02*
X1193Y1568D02*
X1209Y1561D01*
D02*
X25Y2050D02*
X57Y2104D01*
D02*
X22Y355D02*
X25Y2050D01*
D02*
X218Y218D02*
X22Y355D01*
G54D24*
D02*
X1377Y4380D02*
X1404Y4381D01*
D02*
X1404Y4381D02*
X1405Y3519D01*
D02*
X1405Y3519D02*
X1404Y2297D01*
D02*
X1404Y2297D02*
X1344Y2104D01*
D02*
X1344Y2104D02*
X1149Y2099D01*
D02*
X1149Y2099D02*
X1108Y2094D01*
D02*
X1108Y2094D02*
X1091Y2059D01*
D02*
X1091Y2059D02*
X1091Y1970D01*
D02*
X1091Y1970D02*
X1129Y1935D01*
D02*
X1129Y1935D02*
X1305Y1941D01*
D02*
X1305Y1941D02*
X1348Y1895D01*
D02*
X1348Y1895D02*
X1351Y1297D01*
D02*
X1351Y1297D02*
X1298Y1210D01*
D02*
X1298Y1210D02*
X1113Y1215D01*
D02*
X1113Y1215D02*
X1081Y1170D01*
D02*
X1081Y1170D02*
X1049Y924D01*
D02*
X1049Y924D02*
X944Y867D01*
G54D23*
D02*
X523Y3815D02*
X299Y3571D01*
G04 End of Copper0*
M02*