G04 MADE WITH FRITZING*
G04 WWW.FRITZING.ORG*
G04 DOUBLE SIDED*
G04 HOLES PLATED*
G04 CONTOUR ON CENTER OF CONTOUR VECTOR*
%ASAXBY*%
%FSLAX23Y23*%
%MOIN*%
%OFA0B0*%
%SFA1.0B1.0*%
%ADD10C,0.088000*%
%ADD11C,0.092900*%
%ADD12C,0.092836*%
%ADD13C,0.075328*%
%ADD14C,0.084667*%
%ADD15C,0.084695*%
%ADD16C,0.134033*%
%ADD17C,0.135984*%
%ADD18C,0.128110*%
%ADD19C,0.089370*%
%ADD20C,0.085000*%
%ADD21C,0.214725*%
%ADD22R,0.096614X0.096614*%
%ADD23R,0.089370X0.089370*%
%LNMASK0*%
G90*
G70*
G54D10*
X144Y2819D03*
X144Y2719D03*
X144Y2619D03*
X144Y2519D03*
X144Y2419D03*
G54D11*
X648Y2012D03*
G54D12*
X651Y1684D03*
G54D13*
X651Y1582D03*
G54D11*
X244Y2005D03*
G54D12*
X246Y1678D03*
G54D13*
X246Y1575D03*
G54D14*
X550Y3062D03*
X550Y2962D03*
G54D15*
X550Y2862D03*
G54D16*
X846Y3156D03*
X846Y2767D03*
G54D14*
X891Y2577D03*
X891Y2477D03*
G54D15*
X891Y2377D03*
G54D16*
X1187Y2671D03*
X1187Y2283D03*
G54D14*
X278Y3547D03*
X278Y3447D03*
G54D15*
X278Y3347D03*
G54D16*
X573Y3641D03*
X573Y3253D03*
G54D14*
X545Y3839D03*
X545Y3939D03*
G54D15*
X545Y4039D03*
G54D16*
X249Y3745D03*
X249Y4133D03*
G54D17*
X1178Y1339D03*
X647Y1339D03*
G54D18*
X244Y1341D03*
X663Y860D03*
G54D17*
X1172Y1808D03*
G54D18*
X247Y397D03*
X650Y1814D03*
X1183Y400D03*
X244Y1808D03*
X658Y397D03*
X1181Y860D03*
X239Y861D03*
G54D11*
X241Y1054D03*
G54D12*
X243Y726D03*
G54D13*
X243Y624D03*
G54D10*
X922Y230D03*
X922Y330D03*
X922Y430D03*
X922Y530D03*
X72Y2130D03*
X172Y2130D03*
X272Y2130D03*
X372Y2130D03*
X472Y2130D03*
G54D11*
X654Y1152D03*
G54D12*
X651Y1480D03*
G54D13*
X651Y1582D03*
G54D11*
X1173Y2006D03*
G54D12*
X1176Y1678D03*
G54D13*
X1176Y1576D03*
G54D11*
X1180Y1152D03*
G54D12*
X1177Y1480D03*
G54D13*
X1177Y1582D03*
G54D11*
X1180Y1057D03*
G54D12*
X1182Y729D03*
G54D13*
X1182Y627D03*
G54D11*
X1185Y202D03*
G54D12*
X1182Y530D03*
G54D13*
X1182Y632D03*
G54D11*
X656Y1057D03*
G54D12*
X658Y730D03*
G54D13*
X658Y627D03*
G54D11*
X247Y1152D03*
G54D12*
X244Y1480D03*
G54D13*
X244Y1582D03*
G54D11*
X252Y194D03*
G54D12*
X250Y522D03*
G54D13*
X250Y624D03*
G54D11*
X658Y196D03*
G54D12*
X655Y524D03*
G54D13*
X655Y626D03*
G54D19*
X880Y4344D03*
X1180Y4344D03*
X880Y4244D03*
X1180Y4244D03*
X880Y4144D03*
X1180Y4144D03*
X880Y4044D03*
X1180Y4044D03*
X880Y3944D03*
X1180Y3944D03*
X880Y3844D03*
X1180Y3844D03*
X880Y3744D03*
X1180Y3744D03*
G54D20*
X416Y3051D03*
X416Y2751D03*
X1288Y4000D03*
X1288Y4300D03*
X353Y3142D03*
X353Y2842D03*
X168Y3522D03*
X168Y3222D03*
X98Y3633D03*
X98Y3333D03*
X1353Y3508D03*
X1353Y3208D03*
X962Y3647D03*
X962Y3347D03*
X751Y3568D03*
X751Y3268D03*
X1354Y4378D03*
X1354Y4078D03*
X1213Y3354D03*
X1213Y3654D03*
X756Y3992D03*
X756Y3692D03*
X483Y4266D03*
X783Y4266D03*
X1355Y3896D03*
X1290Y3603D03*
X1080Y3652D03*
X1080Y3352D03*
X475Y4355D03*
X775Y4355D03*
X886Y3276D03*
X886Y3576D03*
G54D21*
X137Y4312D03*
G54D10*
X922Y755D03*
X922Y855D03*
X922Y955D03*
X922Y1055D03*
X922Y1155D03*
X1175Y3212D03*
X1175Y3112D03*
X1175Y3012D03*
X1175Y2912D03*
X1175Y2812D03*
G54D20*
X652Y4174D03*
X869Y1619D03*
X1147Y3538D03*
X969Y1330D03*
X816Y3638D03*
X920Y1477D03*
G54D22*
X648Y2012D03*
X244Y2005D03*
X241Y1054D03*
X654Y1152D03*
X1173Y2006D03*
X1180Y1152D03*
X1180Y1057D03*
X1185Y202D03*
X656Y1057D03*
X247Y1152D03*
X252Y194D03*
X658Y196D03*
G54D23*
X880Y4344D03*
G04 End of Mask0*
M02*