; NON-PLATED HOLES START AT T1
; THROUGH (PLATED) HOLES START AT T100
M48
INCH
T1C0.118110
T2C0.125984
T100C0.041333
T101C0.039370
T102C0.041361
T103C0.125984
T104C0.061825
T105C0.035000
T106C0.061867
T107C0.088356
T108C0.050165
T109C0.038000
%
T1
X011833Y003997
X011814Y008599
X006499Y018136
X006629Y008599
X002388Y008608
X002472Y003969
X002444Y018080
X006583Y003969
X002444Y013414
T2
X011722Y018080
X011777Y013386
X006472Y013386
T100
X005447Y039387
X002776Y035472
X005502Y029615
X005502Y030615
X008913Y024771
X005447Y038387
X002776Y034472
X008913Y025771
T101
X011799Y038444
X008799Y043444
X011799Y042444
X011799Y039444
X011799Y043444
X008799Y040444
X008799Y037444
X008799Y041444
X011799Y040444
X008799Y038444
X011799Y037444
X008799Y042444
X011799Y041444
X008799Y039444
T102
X008913Y023770
X005447Y040387
X002776Y033472
X005502Y028615
T103
X001370Y043117
T104
X006583Y007297
X006550Y005240
X002439Y014796
X011823Y007293
X006513Y014796
X011759Y016779
X011819Y005296
X002434Y007260
X002464Y016776
X002499Y005217
X006509Y016844
X011773Y014796
T105
X004162Y027506
X012129Y036541
X009623Y033473
X004833Y042657
X001682Y035220
X007833Y042657
X003531Y031419
X007564Y036921
X006518Y041738
X012884Y040003
X007512Y032682
X003531Y028419
X010795Y033521
X013540Y040781
X012897Y036029
X009623Y036473
X008157Y036377
X004750Y043553
X000982Y033328
X007750Y043553
X013550Y038957
X007564Y039921
X011472Y035377
X012884Y043003
X007512Y035682
X008685Y016191
X010795Y036521
X013540Y043781
X008858Y032759
X013532Y032078
X000982Y036328
X012129Y033541
X009203Y014766
X008858Y035759
X013532Y035078
X001682Y032220
X004162Y030506
X009685Y013303
T106
X002409Y010537
X002524Y001941
X011733Y020055
X011845Y002020
X002439Y020052
X002465Y011520
X006539Y011520
X011798Y010569
X006557Y010574
X006576Y001964
X006483Y020120
X011798Y011520
T107
X005729Y036414
X008455Y027673
X002494Y041329
X008455Y031556
X005729Y032531
X011866Y026712
X011866Y022829
X002494Y037445
T108
X006550Y006264
X006583Y006274
X011823Y006270
X002439Y015820
X006513Y015820
X011759Y015755
X011819Y006320
X002464Y015752
X006509Y015820
X011773Y015820
X002434Y006237
X002499Y006241
T109
X003722Y021303
X009222Y009553
X002722Y021303
X011752Y030117
X009222Y010553
X009222Y003303
X001444Y028191
X011752Y028117
X001444Y025191
X011752Y032117
X009222Y008553
X004722Y021303
X009222Y005303
X009222Y002303
X001722Y021303
X001444Y027191
X000722Y021303
X001444Y024191
X011752Y031117
X009222Y007553
X009222Y011553
X009222Y004303
X011752Y029117
X001444Y026191
T00
M30
