G04 MADE WITH FRITZING*
G04 WWW.FRITZING.ORG*
G04 DOUBLE SIDED*
G04 HOLES PLATED*
G04 CONTOUR ON CENTER OF CONTOUR VECTOR*
%ASAXBY*%
%FSLAX23Y23*%
%MOIN*%
%OFA0B0*%
%SFA1.0B1.0*%
%ADD10C,0.078000*%
%ADD11C,0.075000*%
%ADD12C,0.079370*%
%ADD13C,0.074000*%
%ADD14C,0.045000*%
%ADD15R,0.079370X0.079370*%
%ADD16R,0.075000X0.075000*%
%ADD17R,0.001000X0.001000*%
%LNCOPPER1*%
G90*
G70*
G54D10*
X237Y3210D03*
X237Y3110D03*
X237Y3010D03*
X237Y2910D03*
X237Y2810D03*
X458Y2330D03*
X558Y2330D03*
X658Y2330D03*
X758Y2330D03*
X858Y2330D03*
X958Y2330D03*
X1058Y2330D03*
X458Y2330D03*
X558Y2330D03*
X658Y2330D03*
X758Y2330D03*
X858Y2330D03*
X958Y2330D03*
X1058Y2330D03*
X1058Y2430D03*
X958Y2430D03*
X858Y2430D03*
X758Y2430D03*
X658Y2430D03*
X558Y2430D03*
X458Y2430D03*
G54D11*
X330Y2841D03*
X580Y2841D03*
X328Y2748D03*
X593Y2748D03*
G54D10*
X237Y2109D03*
X237Y2009D03*
X237Y1909D03*
X237Y1809D03*
X237Y1709D03*
X237Y1609D03*
X237Y1509D03*
X237Y1409D03*
X237Y2109D03*
X237Y2009D03*
X237Y1909D03*
X237Y1809D03*
X237Y1709D03*
X237Y1609D03*
X237Y1509D03*
X237Y1409D03*
X337Y1409D03*
X337Y1509D03*
X337Y1609D03*
X337Y1709D03*
X337Y1809D03*
X337Y1909D03*
X337Y2009D03*
X337Y2109D03*
G54D12*
X89Y762D03*
X389Y762D03*
X89Y662D03*
X389Y662D03*
X89Y562D03*
X389Y562D03*
X89Y462D03*
X389Y462D03*
X89Y362D03*
X389Y362D03*
X89Y262D03*
X389Y262D03*
X89Y162D03*
X389Y162D03*
G54D10*
X292Y2295D03*
X292Y2395D03*
X292Y2495D03*
X292Y2595D03*
X292Y2295D03*
X292Y2395D03*
X292Y2495D03*
X292Y2595D03*
X192Y2595D03*
X192Y2495D03*
X192Y2395D03*
X192Y2295D03*
G54D11*
X577Y1494D03*
X341Y857D03*
G54D13*
X1226Y4291D03*
X1176Y4216D03*
X1126Y4291D03*
X1226Y4291D03*
X1176Y4216D03*
X1126Y4291D03*
G54D11*
X778Y348D03*
X1203Y1336D03*
G54D13*
X1244Y3701D03*
X1194Y3626D03*
X1144Y3701D03*
X1244Y3701D03*
X1194Y3626D03*
X1144Y3701D03*
G54D11*
X1208Y1232D03*
X777Y454D03*
G54D13*
X1116Y1747D03*
X1166Y1822D03*
X1216Y1747D03*
X1116Y1747D03*
X1166Y1822D03*
X1216Y1747D03*
G54D11*
X869Y3081D03*
X656Y561D03*
G54D13*
X1242Y3007D03*
X1192Y2932D03*
X1142Y3007D03*
X1242Y3007D03*
X1192Y2932D03*
X1142Y3007D03*
G54D11*
X897Y3295D03*
X1213Y1129D03*
X1329Y3796D03*
X1117Y4008D03*
X914Y3403D03*
X1306Y1339D03*
X1337Y3181D03*
X1124Y3393D03*
X232Y859D03*
X472Y1493D03*
X1350Y1989D03*
X1050Y1989D03*
X1237Y2246D03*
X1237Y2546D03*
X1143Y4121D03*
X1355Y3909D03*
X1140Y3504D03*
X1352Y3291D03*
X1071Y1900D03*
X1371Y1900D03*
X1196Y2840D03*
G54D14*
X1381Y2604D03*
G54D11*
X403Y943D03*
X103Y943D03*
X399Y1031D03*
X99Y1031D03*
X401Y1129D03*
X101Y1129D03*
X398Y1223D03*
X98Y1223D03*
X1106Y937D03*
X806Y937D03*
X1106Y1037D03*
X806Y1037D03*
X1106Y1137D03*
X806Y1137D03*
X1106Y1237D03*
X806Y1237D03*
X1106Y1337D03*
X806Y1337D03*
X1106Y1437D03*
X806Y1437D03*
X1106Y1537D03*
X806Y1537D03*
X882Y758D03*
X1182Y758D03*
X882Y658D03*
X1182Y658D03*
X882Y558D03*
X1182Y558D03*
X882Y458D03*
X1182Y458D03*
X882Y358D03*
X1182Y358D03*
X882Y258D03*
X1182Y258D03*
X882Y158D03*
X1182Y158D03*
G54D10*
X497Y228D03*
X497Y328D03*
X497Y428D03*
X497Y528D03*
X947Y2128D03*
X1047Y2128D03*
X1147Y2128D03*
X1247Y2128D03*
X1347Y2128D03*
X497Y753D03*
X497Y853D03*
X497Y953D03*
X497Y1053D03*
X497Y1153D03*
G54D15*
X89Y762D03*
G54D16*
X1106Y937D03*
X882Y758D03*
G54D17*
X1374Y2641D02*
X1386Y2641D01*
X1370Y2640D02*
X1390Y2640D01*
X1367Y2639D02*
X1393Y2639D01*
X1364Y2638D02*
X1395Y2638D01*
X1362Y2637D02*
X1397Y2637D01*
X1360Y2636D02*
X1399Y2636D01*
X1359Y2635D02*
X1400Y2635D01*
X1358Y2634D02*
X1402Y2634D01*
X1356Y2633D02*
X1403Y2633D01*
X1355Y2632D02*
X1404Y2632D01*
X1354Y2631D02*
X1405Y2631D01*
X1353Y2630D02*
X1406Y2630D01*
X1352Y2629D02*
X1407Y2629D01*
X1351Y2628D02*
X1408Y2628D01*
X1351Y2627D02*
X1409Y2627D01*
X1350Y2626D02*
X1410Y2626D01*
X1349Y2625D02*
X1410Y2625D01*
X1349Y2624D02*
X1411Y2624D01*
X1348Y2623D02*
X1412Y2623D01*
X1347Y2622D02*
X1412Y2622D01*
X1347Y2621D02*
X1374Y2621D01*
X1386Y2621D02*
X1413Y2621D01*
X1347Y2620D02*
X1372Y2620D01*
X1388Y2620D02*
X1413Y2620D01*
X1346Y2619D02*
X1370Y2619D01*
X1390Y2619D02*
X1414Y2619D01*
X1346Y2618D02*
X1369Y2618D01*
X1391Y2618D02*
X1414Y2618D01*
X1345Y2617D02*
X1367Y2617D01*
X1392Y2617D02*
X1414Y2617D01*
X1345Y2616D02*
X1366Y2616D01*
X1393Y2616D02*
X1415Y2616D01*
X1344Y2615D02*
X1365Y2615D01*
X1394Y2615D02*
X1415Y2615D01*
X1344Y2614D02*
X1365Y2614D01*
X1395Y2614D02*
X1415Y2614D01*
X1344Y2613D02*
X1364Y2613D01*
X1395Y2613D02*
X1416Y2613D01*
X1344Y2612D02*
X1363Y2612D01*
X1396Y2612D02*
X1416Y2612D01*
X1343Y2611D02*
X1363Y2611D01*
X1397Y2611D02*
X1416Y2611D01*
X1343Y2610D02*
X1363Y2610D01*
X1397Y2610D02*
X1416Y2610D01*
X1343Y2609D02*
X1362Y2609D01*
X1397Y2609D02*
X1416Y2609D01*
X1343Y2608D02*
X1362Y2608D01*
X1398Y2608D02*
X1416Y2608D01*
X1343Y2607D02*
X1362Y2607D01*
X1398Y2607D02*
X1417Y2607D01*
X1343Y2606D02*
X1362Y2606D01*
X1398Y2606D02*
X1417Y2606D01*
X1343Y2605D02*
X1362Y2605D01*
X1398Y2605D02*
X1417Y2605D01*
X1343Y2604D02*
X1362Y2604D01*
X1398Y2604D02*
X1417Y2604D01*
X1343Y2603D02*
X1362Y2603D01*
X1398Y2603D02*
X1417Y2603D01*
X1343Y2602D02*
X1362Y2602D01*
X1398Y2602D02*
X1417Y2602D01*
X1343Y2601D02*
X1362Y2601D01*
X1397Y2601D02*
X1417Y2601D01*
X1343Y2600D02*
X1362Y2600D01*
X1397Y2600D02*
X1417Y2600D01*
X1343Y2599D02*
X1362Y2599D01*
X1397Y2599D02*
X1416Y2599D01*
X1344Y2598D02*
X1363Y2598D01*
X1397Y2598D02*
X1416Y2598D01*
X1344Y2597D02*
X1363Y2597D01*
X1396Y2597D02*
X1416Y2597D01*
X1344Y2596D02*
X1364Y2596D01*
X1396Y2596D02*
X1416Y2596D01*
X1344Y2595D02*
X1364Y2595D01*
X1395Y2595D02*
X1416Y2595D01*
X1344Y2594D02*
X1365Y2594D01*
X1395Y2594D02*
X1415Y2594D01*
X1345Y2593D02*
X1366Y2593D01*
X1394Y2593D02*
X1415Y2593D01*
X1345Y2592D02*
X1367Y2592D01*
X1393Y2592D02*
X1415Y2592D01*
X1345Y2591D02*
X1368Y2591D01*
X1392Y2591D02*
X1414Y2591D01*
X1346Y2590D02*
X1369Y2590D01*
X1390Y2590D02*
X1414Y2590D01*
X1346Y2589D02*
X1370Y2589D01*
X1389Y2589D02*
X1413Y2589D01*
X1347Y2588D02*
X1373Y2588D01*
X1387Y2588D02*
X1413Y2588D01*
X1347Y2587D02*
X1377Y2587D01*
X1384Y2587D02*
X1412Y2587D01*
X1348Y2586D02*
X1412Y2586D01*
X1348Y2585D02*
X1411Y2585D01*
X1349Y2584D02*
X1411Y2584D01*
X1349Y2583D02*
X1410Y2583D01*
X1350Y2582D02*
X1409Y2582D01*
X1351Y2581D02*
X1409Y2581D01*
X1352Y2580D02*
X1408Y2580D01*
X1353Y2579D02*
X1407Y2579D01*
X1354Y2578D02*
X1406Y2578D01*
X1355Y2577D02*
X1405Y2577D01*
X1356Y2576D02*
X1404Y2576D01*
X1357Y2575D02*
X1403Y2575D01*
X1358Y2574D02*
X1401Y2574D01*
X1360Y2573D02*
X1400Y2573D01*
X1362Y2572D02*
X1398Y2572D01*
X1363Y2571D02*
X1396Y2571D01*
X1365Y2570D02*
X1394Y2570D01*
X1368Y2569D02*
X1391Y2569D01*
X1371Y2568D02*
X1388Y2568D01*
X1376Y2567D02*
X1382Y2567D01*
D02*
G04 End of Copper1*
M02*