; NON-PLATED HOLES START AT T1
; THROUGH (PLATED) HOLES START AT T100
M48
INCH
T100C0.039370
T101C0.038889
T102C0.041000
T103C0.035000
T104C0.031497
T105C0.032000
T106C0.038000
%
T100
X003887Y005400
X000887Y003400
X003887Y006400
X000887Y004400
X003887Y007400
X003887Y001400
X000887Y005400
X003887Y002400
X000887Y006400
X003887Y003400
X000887Y007400
X000887Y001400
X003887Y004400
X000887Y002400
T101
X004526Y042775
X006526Y042775
X006540Y039775
X004526Y034775
X005526Y042775
X007526Y042775
X009526Y042775
X003526Y042775
X009526Y034775
X003526Y034775
X006540Y040775
X008526Y042775
X005526Y039775
X009526Y039775
X003526Y039775
X006540Y037775
X004526Y032775
X005526Y040775
X009526Y040775
X003526Y040775
X009526Y032775
X003526Y032775
X005526Y037775
X009526Y037775
X003526Y037775
X009526Y029775
X003526Y029775
X006540Y035775
X004526Y030775
X009526Y030775
X003526Y030775
X005526Y035775
X009526Y035775
X003526Y035775
X006526Y041775
X006540Y038775
X004526Y033775
X005526Y041775
X009526Y041775
X003526Y041775
X009526Y033775
X003526Y033775
X005526Y038775
X009526Y038775
X003526Y038775
X006540Y036775
X009526Y031775
X003526Y031775
X005526Y036775
X009526Y036775
X003526Y036775
T102
X013723Y026400
T103
X011821Y006798
X013523Y032692
X013255Y013164
X010714Y018782
X011429Y040989
X012231Y013493
X008059Y011145
X004026Y009098
X006899Y014099
X011821Y005798
X000986Y010873
X012039Y012185
X010274Y019637
X008059Y010145
X013714Y018782
X011821Y004798
X008821Y006798
X003986Y010873
X013274Y019637
X004127Y023625
X011821Y003798
X008821Y005798
X007561Y002725
X011821Y002798
X008821Y004798
X002792Y012649
X011821Y001798
X013132Y011102
X008821Y003798
X007333Y005392
X000919Y011732
X012851Y025179
X010730Y027300
X011821Y000798
X008821Y002798
X004166Y029053
X011059Y015145
X008675Y031882
X013294Y037738
X003919Y011732
X007510Y003795
X008821Y001798
X011244Y033712
X011059Y014145
X008821Y000798
X011059Y013145
X008059Y015145
X011059Y009145
X011059Y012145
X008709Y034046
X007437Y018187
X008059Y014145
X008694Y032923
X007437Y021187
X011059Y011145
X013366Y031591
X000990Y009973
X008059Y013145
X011371Y028262
X013550Y038868
X008059Y009145
X011402Y034813
X011059Y010145
X001026Y009098
X008059Y012145
X011173Y039859
X003990Y009973
T104
X008512Y016640
X008512Y017624
T105
X012159Y017245
X011261Y042690
X012261Y042690
X011719Y036037
X011219Y036787
X012219Y036787
X011424Y029849
X011761Y041940
X011659Y017995
X011159Y017245
X012424Y029849
X011924Y029099
T106
X004972Y008308
X001919Y024285
X003445Y017687
X004972Y011308
X009283Y022629
X003445Y020687
X010283Y023629
X004972Y007308
X001919Y023285
X003445Y016687
X011472Y021058
X004972Y010308
X010283Y022629
X005861Y019419
X003445Y015687
X002919Y026285
X002370Y029873
X007283Y023629
X005861Y018419
X003445Y014687
X002919Y025285
X002370Y028873
X007283Y022629
X005861Y017419
X002370Y031873
X003445Y013687
X002919Y024285
X002370Y027873
X002370Y030873
X011283Y023629
X002919Y023285
X012472Y021058
X002445Y019687
X005283Y023629
X011283Y022629
X002445Y018687
X005283Y022629
X008283Y023629
X004972Y005058
X009472Y021058
X002445Y017687
X008283Y022629
X002445Y020687
X004972Y004058
X002445Y016687
X010472Y021058
X004972Y003058
X002445Y015687
X001919Y026285
X013472Y021058
X003445Y019687
X004972Y002058
X006283Y023629
X002445Y014687
X004972Y009308
X001919Y025285
X003445Y018687
X006283Y022629
X009283Y023629
X002445Y013687
T00
M30
