G04 MADE WITH FRITZING*
G04 WWW.FRITZING.ORG*
G04 DOUBLE SIDED*
G04 HOLES PLATED*
G04 CONTOUR ON CENTER OF CONTOUR VECTOR*
%ASAXBY*%
%FSLAX23Y23*%
%MOIN*%
%OFA0B0*%
%SFA1.0B1.0*%
%ADD10C,0.088000*%
%ADD11C,0.085000*%
%ADD12C,0.089370*%
%ADD13C,0.084000*%
%ADD14C,0.035000*%
%ADD15C,0.072992*%
%ADD16R,0.089370X0.089370*%
%ADD17R,0.085000X0.085000*%
%ADD18R,0.072992X0.072992*%
%ADD19R,0.001000X0.001000*%
%LNMASK1*%
G90*
G70*
G54D10*
X586Y1942D03*
X586Y1842D03*
X586Y1742D03*
G54D11*
X279Y1265D03*
X690Y1410D03*
G54D10*
X237Y3187D03*
X237Y3087D03*
X237Y2987D03*
X237Y2887D03*
X237Y2787D03*
X528Y2263D03*
X628Y2263D03*
X728Y2263D03*
X828Y2263D03*
X928Y2263D03*
X1028Y2263D03*
X1128Y2263D03*
X528Y2263D03*
X628Y2263D03*
X728Y2263D03*
X828Y2263D03*
X928Y2263D03*
X1028Y2263D03*
X1128Y2263D03*
X1128Y2363D03*
X1028Y2363D03*
X928Y2363D03*
X828Y2363D03*
X728Y2363D03*
X628Y2363D03*
X528Y2363D03*
X245Y2069D03*
X245Y1969D03*
X245Y1869D03*
X245Y1769D03*
X245Y1669D03*
X245Y1569D03*
X245Y1469D03*
X245Y1369D03*
X245Y2069D03*
X245Y1969D03*
X245Y1869D03*
X245Y1769D03*
X245Y1669D03*
X245Y1569D03*
X245Y1469D03*
X245Y1369D03*
X345Y1369D03*
X345Y1469D03*
X345Y1569D03*
X345Y1669D03*
X345Y1769D03*
X345Y1869D03*
X345Y1969D03*
X345Y2069D03*
G54D12*
X89Y740D03*
X389Y740D03*
X89Y640D03*
X389Y640D03*
X89Y540D03*
X389Y540D03*
X89Y440D03*
X389Y440D03*
X89Y340D03*
X389Y340D03*
X89Y240D03*
X389Y240D03*
X89Y140D03*
X389Y140D03*
G54D10*
X292Y2329D03*
X292Y2429D03*
X292Y2529D03*
X292Y2629D03*
X292Y2329D03*
X292Y2429D03*
X292Y2529D03*
X292Y2629D03*
X192Y2629D03*
X192Y2529D03*
X192Y2429D03*
X192Y2329D03*
G54D13*
X1226Y4269D03*
X1176Y4194D03*
X1126Y4269D03*
X1226Y4269D03*
X1176Y4194D03*
X1126Y4269D03*
G54D11*
X756Y273D03*
X1326Y1316D03*
G54D13*
X1222Y3679D03*
X1172Y3604D03*
X1122Y3679D03*
X1222Y3679D03*
X1172Y3604D03*
X1122Y3679D03*
G54D11*
X1204Y1219D03*
X751Y380D03*
G54D13*
X1116Y1725D03*
X1166Y1800D03*
X1216Y1725D03*
X1116Y1725D03*
X1166Y1800D03*
X1216Y1725D03*
G54D11*
X868Y3188D03*
X733Y539D03*
G54D13*
X1242Y2985D03*
X1192Y2910D03*
X1142Y2985D03*
X1242Y2985D03*
X1192Y2910D03*
X1142Y2985D03*
G54D11*
X869Y3292D03*
X1313Y1110D03*
X1329Y3774D03*
X1117Y3986D03*
X871Y3405D03*
X1223Y1349D03*
X1337Y3159D03*
X1124Y3371D03*
X1327Y1964D03*
X1027Y1964D03*
X1285Y2518D03*
X1073Y2730D03*
X1143Y4099D03*
X1355Y3887D03*
X1140Y3481D03*
X1352Y3269D03*
X1071Y1878D03*
X1371Y1878D03*
X1137Y2826D03*
G54D14*
X1372Y2640D03*
G54D11*
X403Y910D03*
X103Y910D03*
X399Y997D03*
X99Y997D03*
X399Y1087D03*
X99Y1087D03*
X392Y1173D03*
X92Y1173D03*
X1106Y915D03*
X806Y915D03*
X1106Y1015D03*
X806Y1015D03*
X1106Y1115D03*
X806Y1115D03*
X1106Y1215D03*
X806Y1215D03*
X1106Y1315D03*
X806Y1315D03*
X1106Y1415D03*
X806Y1415D03*
X1106Y1515D03*
X806Y1515D03*
X882Y680D03*
X1182Y680D03*
X882Y580D03*
X1182Y580D03*
X882Y480D03*
X1182Y480D03*
X882Y380D03*
X1182Y380D03*
X882Y280D03*
X1182Y280D03*
X882Y180D03*
X1182Y180D03*
X882Y80D03*
X1182Y80D03*
G54D10*
X497Y206D03*
X497Y306D03*
X497Y406D03*
X497Y506D03*
X947Y2106D03*
X1047Y2106D03*
X1147Y2106D03*
X1247Y2106D03*
X1347Y2106D03*
G54D11*
X744Y2119D03*
X744Y1819D03*
G54D15*
X851Y1762D03*
X851Y1664D03*
G54D10*
X497Y731D03*
X497Y831D03*
X497Y931D03*
X497Y1031D03*
X497Y1131D03*
G54D11*
X417Y2905D03*
X413Y2363D03*
G54D16*
X89Y740D03*
G54D17*
X1106Y915D03*
X882Y680D03*
G54D18*
X851Y1762D03*
G54D19*
X1365Y2683D02*
X1378Y2683D01*
X1361Y2682D02*
X1383Y2682D01*
X1358Y2681D02*
X1386Y2681D01*
X1355Y2680D02*
X1388Y2680D01*
X1353Y2679D02*
X1390Y2679D01*
X1351Y2678D02*
X1392Y2678D01*
X1349Y2677D02*
X1394Y2677D01*
X1348Y2676D02*
X1395Y2676D01*
X1347Y2675D02*
X1397Y2675D01*
X1345Y2674D02*
X1398Y2674D01*
X1344Y2673D02*
X1399Y2673D01*
X1343Y2672D02*
X1400Y2672D01*
X1342Y2671D02*
X1401Y2671D01*
X1341Y2670D02*
X1402Y2670D01*
X1340Y2669D02*
X1403Y2669D01*
X1339Y2668D02*
X1404Y2668D01*
X1338Y2667D02*
X1405Y2667D01*
X1338Y2666D02*
X1405Y2666D01*
X1337Y2665D02*
X1406Y2665D01*
X1336Y2664D02*
X1407Y2664D01*
X1336Y2663D02*
X1407Y2663D01*
X1335Y2662D02*
X1408Y2662D01*
X1335Y2661D02*
X1409Y2661D01*
X1334Y2660D02*
X1409Y2660D01*
X1334Y2659D02*
X1410Y2659D01*
X1333Y2658D02*
X1410Y2658D01*
X1333Y2657D02*
X1410Y2657D01*
X1332Y2656D02*
X1411Y2656D01*
X1332Y2655D02*
X1411Y2655D01*
X1332Y2654D02*
X1412Y2654D01*
X1331Y2653D02*
X1412Y2653D01*
X1331Y2652D02*
X1412Y2652D01*
X1331Y2651D02*
X1412Y2651D01*
X1331Y2650D02*
X1413Y2650D01*
X1330Y2649D02*
X1413Y2649D01*
X1330Y2648D02*
X1413Y2648D01*
X1330Y2647D02*
X1413Y2647D01*
X1330Y2646D02*
X1413Y2646D01*
X1330Y2645D02*
X1413Y2645D01*
X1330Y2644D02*
X1413Y2644D01*
X1330Y2643D02*
X1413Y2643D01*
X1330Y2642D02*
X1414Y2642D01*
X1330Y2641D02*
X1413Y2641D01*
X1330Y2640D02*
X1413Y2640D01*
X1330Y2639D02*
X1413Y2639D01*
X1330Y2638D02*
X1413Y2638D01*
X1330Y2637D02*
X1413Y2637D01*
X1330Y2636D02*
X1413Y2636D01*
X1330Y2635D02*
X1413Y2635D01*
X1330Y2634D02*
X1413Y2634D01*
X1330Y2633D02*
X1413Y2633D01*
X1331Y2632D02*
X1413Y2632D01*
X1331Y2631D02*
X1412Y2631D01*
X1331Y2630D02*
X1412Y2630D01*
X1331Y2629D02*
X1412Y2629D01*
X1332Y2628D02*
X1411Y2628D01*
X1332Y2627D02*
X1411Y2627D01*
X1332Y2626D02*
X1411Y2626D01*
X1333Y2625D02*
X1410Y2625D01*
X1333Y2624D02*
X1410Y2624D01*
X1334Y2623D02*
X1409Y2623D01*
X1334Y2622D02*
X1409Y2622D01*
X1335Y2621D02*
X1408Y2621D01*
X1335Y2620D02*
X1408Y2620D01*
X1336Y2619D02*
X1407Y2619D01*
X1337Y2618D02*
X1407Y2618D01*
X1337Y2617D02*
X1406Y2617D01*
X1338Y2616D02*
X1405Y2616D01*
X1339Y2615D02*
X1405Y2615D01*
X1340Y2614D02*
X1404Y2614D01*
X1340Y2613D02*
X1403Y2613D01*
X1341Y2612D02*
X1402Y2612D01*
X1342Y2611D02*
X1401Y2611D01*
X1343Y2610D02*
X1400Y2610D01*
X1344Y2609D02*
X1399Y2609D01*
X1346Y2608D02*
X1398Y2608D01*
X1347Y2607D02*
X1396Y2607D01*
X1348Y2606D02*
X1395Y2606D01*
X1350Y2605D02*
X1393Y2605D01*
X1352Y2604D02*
X1392Y2604D01*
X1354Y2603D02*
X1390Y2603D01*
X1356Y2602D02*
X1387Y2602D01*
X1358Y2601D02*
X1385Y2601D01*
X1362Y2600D02*
X1381Y2600D01*
X1367Y2599D02*
X1376Y2599D01*
D02*
G04 End of Mask1*
M02*