; NON-PLATED HOLES START AT T1
; THROUGH (PLATED) HOLES START AT T100
M48
INCH
T100C0.032000
T101C0.038889
T102C0.031497
T103C0.039370
T104C0.038000
T105C0.035000
T106C0.015748
%
T100
X012424Y029849
X011659Y017995
X011159Y017245
X012159Y017245
X011924Y029099
X011261Y042690
X012261Y042690
X011719Y036037
X011219Y036787
X012219Y036787
X011424Y029849
X011761Y041940
T101
X005526Y035775
X009526Y035775
X003526Y041775
X003526Y033775
X006526Y041775
X006540Y038775
X004526Y033775
X005526Y041775
X009526Y041775
X003526Y038775
X009526Y033775
X005526Y038775
X009526Y038775
X003526Y031775
X006540Y036775
X003526Y036775
X009526Y031775
X005526Y036775
X009526Y036775
X003526Y042775
X003526Y034775
X004526Y042775
X006526Y042775
X008526Y042775
X006540Y039775
X004526Y034775
X005526Y042775
X007526Y042775
X009526Y042775
X003526Y039775
X009526Y034775
X006540Y040775
X003526Y040775
X005526Y039775
X009526Y039775
X003526Y032775
X006540Y037775
X004526Y032775
X005526Y040775
X009526Y040775
X003526Y037775
X009526Y032775
X003526Y029775
X005526Y037775
X009526Y037775
X003526Y030775
X009526Y029775
X006540Y035775
X004526Y030775
X003526Y035775
X009526Y030775
T102
X008734Y017196
X008734Y018180
T103
X000887Y006400
X003887Y004400
X000887Y007400
X000887Y001400
X003887Y005400
X000887Y002400
X003887Y006400
X000887Y003400
X003887Y007400
X003887Y001400
X000887Y004400
X003887Y002400
X000887Y005400
X003887Y003400
T104
X009283Y023629
X002370Y029873
X009523Y040781
X005283Y022629
X009523Y039781
X002445Y014687
X001919Y023285
X003540Y037770
X003445Y018687
X006538Y036773
X006283Y022629
X005523Y037781
X009523Y034781
X002370Y031873
X003540Y032770
X003445Y013687
X010472Y021058
X009523Y041781
X005283Y023629
X003445Y020687
X002445Y015687
X001919Y024285
X008523Y042773
X003540Y038770
X003445Y019687
X011472Y021058
X004972Y002058
X006538Y037773
X006283Y023629
X005523Y038781
X009472Y021058
X009523Y035781
X003540Y033770
X003445Y014687
X002919Y023285
X009523Y042781
X003540Y040770
X002445Y016687
X001919Y025285
X003540Y039770
X009523Y030781
X004972Y007308
X007283Y022629
X004523Y042773
X005523Y040781
X009523Y029781
X004539Y032781
X004972Y003058
X006538Y038773
X005523Y039781
X005564Y017382
X009523Y036781
X008283Y022629
X003540Y034770
X003445Y015687
X002919Y024285
X003540Y041770
X012472Y021058
X002445Y017687
X001919Y026285
X009523Y031781
X004972Y008308
X007283Y023629
X006538Y040773
X005523Y041781
X004539Y033781
X004972Y004058
X002370Y027873
X006538Y039773
X013472Y021058
X005564Y018382
X009523Y037781
X008283Y023629
X003540Y035770
X010283Y022629
X003445Y016687
X002919Y025285
X003540Y042770
X004972Y010308
X005523Y042773
X005523Y035781
X002445Y018687
X009523Y032781
X004972Y009308
X011283Y022629
X003540Y030770
X006538Y041773
X004539Y034781
X009283Y022629
X004972Y005058
X002370Y028873
X003540Y029770
X006523Y042773
X005564Y019382
X009523Y038781
X002445Y013687
X003540Y036770
X010283Y023629
X003445Y017687
X002919Y026285
X002445Y020687
X007523Y042773
X006538Y035773
X004972Y011308
X005523Y036781
X002445Y019687
X009523Y033781
X011283Y023629
X002370Y030873
X003540Y031770
T105
X011821Y004798
X007272Y017780
X010274Y019637
X011244Y033712
X000986Y010873
X013274Y019637
X013366Y031591
X008059Y012145
X008821Y000798
X010931Y027148
X011173Y039859
X003986Y010873
X013550Y038868
X011059Y014145
X011821Y002798
X008821Y005798
X011429Y040989
X008059Y009145
X008059Y010145
X011059Y012145
X011821Y000798
X008059Y015145
X013317Y025331
X008821Y003798
X007777Y004836
X011821Y005798
X011059Y009145
X010381Y018782
X013294Y037738
X013381Y018782
X011059Y010145
X008059Y013145
X008821Y001798
X011059Y015145
X011821Y003798
X008821Y006798
X000990Y009973
X008277Y031308
X011402Y034813
X003990Y009973
X011259Y028030
X008059Y011145
X011059Y013145
X011821Y001798
X008821Y004798
X011821Y006798
X004026Y009098
X013523Y032692
X000919Y011732
X007272Y020780
X011059Y011145
X001026Y009098
X013612Y026168
X008059Y014145
X003919Y011732
X008821Y002798
T106
X004758Y038579
X012935Y017864
X001925Y004660
X004342Y035564
X004351Y028892
X008472Y034512
X009083Y025086
X006027Y035031
X000711Y035969
X010555Y003651
X005666Y027197
X007092Y007169
X011926Y012651
X009962Y004271
X001481Y039058
X010733Y029164
X006259Y004669
X003722Y024243
X007583Y026808
X008037Y024531
X009444Y010484
X007694Y036164
X004519Y041021
X000666Y034814
X004816Y041731
X007253Y038727
X011185Y004614
X010851Y000762
X004861Y014419
X010374Y038711
X007185Y014169
T00
M30
