; NON-PLATED HOLES START AT T1
; THROUGH (PLATED) HOLES START AT T100
M48
INCH
T1C0.118110
T2C0.125984
T100C0.039370
T101C0.041361
T102C0.125984
T103C0.061825
T104C0.015748
T105C0.035000
T106C0.061867
T107C0.031497
T108C0.088356
T109C0.050165
T110C0.038000
T111C0.041333
%
T1
X002444Y012914
X006583Y003469
X006499Y017636
X002472Y003469
X011833Y003497
X011814Y008099
X006629Y008099
X002444Y017580
X002388Y008108
T2
X011722Y017580
X011777Y012886
X006472Y012886
T100
X008799Y039944
X011799Y038944
X011799Y042944
X011799Y039944
X008799Y036944
X008799Y040944
X008799Y037944
X011799Y036944
X008799Y041944
X011799Y040944
X008799Y038944
X011799Y037944
X008799Y042944
X011799Y041944
T101
X002776Y032972
X005447Y039887
X005502Y028115
X008913Y023270
T102
X001370Y042617
T103
X006550Y004740
X011819Y004796
X002434Y006760
X011773Y014296
X011823Y006793
X002499Y004717
X002439Y014296
X006513Y014296
X002464Y016276
X011759Y016279
X006583Y006797
X006509Y016344
T104
X008499Y007839
X004629Y001580
X006207Y030602
X007903Y025399
X010140Y029528
X009299Y011891
X010033Y012497
X013361Y011913
T105
X005062Y043195
X010795Y036021
X007564Y039088
X007934Y032132
X000760Y032940
X013421Y031245
X012706Y040481
X009777Y021321
X010067Y032306
X006777Y021321
X004816Y042273
X012129Y033041
X007934Y035132
X007627Y041226
X008802Y032287
X000760Y035940
X013421Y034245
X012706Y043481
X004162Y030006
X010067Y035306
X004162Y027006
X012129Y036041
X012924Y035337
X013407Y042592
X008802Y035287
X003531Y030919
X007882Y042171
X001571Y031831
X013407Y039592
X003531Y027919
X013435Y038293
X010795Y033021
X007564Y036088
X001571Y034831
T106
X006557Y010074
X006576Y001464
X006483Y019620
X011845Y001520
X011798Y011020
X002409Y010037
X002465Y011020
X002524Y001441
X011733Y019555
X002439Y019552
X006539Y011020
X011798Y010069
T107
X004850Y023530
X004850Y024514
T108
X002494Y040829
X008455Y031056
X005729Y032031
X011866Y026212
X011866Y022329
X002494Y036945
X005729Y035914
X008455Y027173
T109
X006583Y005774
X006509Y015320
X006513Y015319
X011819Y005819
X002434Y005737
X011823Y005769
X011773Y015319
X002464Y015252
X011759Y015255
X006550Y005764
X002499Y005740
X002439Y015319
T110
X001833Y025691
X009222Y008052
X009222Y002802
X011752Y031617
X000833Y023691
X004722Y020802
X002722Y020802
X000722Y020802
X001833Y023691
X003722Y020802
X001722Y020802
X011752Y028617
X000833Y026691
X001833Y026691
X009222Y009052
X009222Y003802
X009222Y010052
X000833Y024691
X001833Y024691
X009222Y007052
X009222Y001802
X000611Y021775
X002611Y021775
X011752Y029617
X001611Y021775
X003611Y021775
X011752Y030617
X004611Y021775
X000833Y027691
X011752Y027617
X001833Y027691
X009222Y004802
X009222Y011052
X000833Y025691
T111
X005502Y029115
X005502Y030115
X008913Y024270
X005447Y037887
X002776Y033972
X008913Y025270
X005447Y038887
X002776Y034972
T00
M30
