G04 MADE WITH FRITZING*
G04 WWW.FRITZING.ORG*
G04 DOUBLE SIDED*
G04 HOLES PLATED*
G04 CONTOUR ON CENTER OF CONTOUR VECTOR*
%ASAXBY*%
%FSLAX23Y23*%
%MOIN*%
%OFA0B0*%
%SFA1.0B1.0*%
%ADD10C,0.078000*%
%ADD11C,0.075000*%
%ADD12C,0.079370*%
%ADD13C,0.074000*%
%ADD14C,0.066667*%
%ADD15R,0.079370X0.079370*%
%ADD16R,0.075000X0.075000*%
%ADD17C,0.008000*%
%ADD18C,0.024000*%
%ADD19C,0.012000*%
%ADD20C,0.007000*%
%ADD21C,0.006000*%
%ADD22R,0.001000X0.001000*%
%LNCOPPER0*%
G90*
G70*
G54D10*
X237Y3210D03*
X237Y3110D03*
X237Y3010D03*
X237Y2910D03*
X237Y2810D03*
X528Y2285D03*
X628Y2285D03*
X728Y2285D03*
X828Y2285D03*
X928Y2285D03*
X1028Y2285D03*
X1128Y2285D03*
X528Y2285D03*
X628Y2285D03*
X728Y2285D03*
X828Y2285D03*
X928Y2285D03*
X1028Y2285D03*
X1128Y2285D03*
X1128Y2385D03*
X1028Y2385D03*
X928Y2385D03*
X828Y2385D03*
X728Y2385D03*
X628Y2385D03*
X528Y2385D03*
G54D11*
X330Y2841D03*
X580Y2841D03*
X328Y2748D03*
X593Y2748D03*
G54D10*
X245Y2069D03*
X245Y1969D03*
X245Y1869D03*
X245Y1769D03*
X245Y1669D03*
X245Y1569D03*
X245Y1469D03*
X245Y1369D03*
X245Y2069D03*
X245Y1969D03*
X245Y1869D03*
X245Y1769D03*
X245Y1669D03*
X245Y1569D03*
X245Y1469D03*
X245Y1369D03*
X345Y1369D03*
X345Y1469D03*
X345Y1569D03*
X345Y1669D03*
X345Y1769D03*
X345Y1869D03*
X345Y1969D03*
X345Y2069D03*
G54D12*
X89Y762D03*
X389Y762D03*
X89Y662D03*
X389Y662D03*
X89Y562D03*
X389Y562D03*
X89Y462D03*
X389Y462D03*
X89Y362D03*
X389Y362D03*
X89Y262D03*
X389Y262D03*
X89Y162D03*
X389Y162D03*
G54D10*
X292Y2351D03*
X292Y2451D03*
X292Y2551D03*
X292Y2651D03*
X292Y2351D03*
X292Y2451D03*
X292Y2551D03*
X292Y2651D03*
X192Y2651D03*
X192Y2551D03*
X192Y2451D03*
X192Y2351D03*
G54D11*
X577Y1494D03*
X341Y857D03*
G54D13*
X1226Y4291D03*
X1176Y4216D03*
X1126Y4291D03*
G54D11*
X781Y300D03*
X1294Y1336D03*
G54D13*
X1244Y3701D03*
X1194Y3626D03*
X1144Y3701D03*
G54D11*
X1208Y1230D03*
X772Y407D03*
G54D13*
X1116Y1747D03*
X1166Y1822D03*
X1216Y1747D03*
G54D11*
X873Y3194D03*
X656Y561D03*
G54D13*
X1242Y3007D03*
X1192Y2932D03*
X1142Y3007D03*
G54D11*
X926Y3294D03*
X1313Y1132D03*
X1329Y3796D03*
X1117Y4008D03*
X870Y3384D03*
X1203Y1335D03*
X1337Y3181D03*
X1124Y3393D03*
X232Y859D03*
X472Y1493D03*
X1350Y1989D03*
X1050Y1989D03*
X1296Y2507D03*
X1084Y2719D03*
X1143Y4121D03*
X1355Y3909D03*
X1140Y3504D03*
X1352Y3291D03*
X1071Y1900D03*
X1371Y1900D03*
X1099Y2802D03*
X1366Y2664D03*
X403Y943D03*
X103Y943D03*
X399Y1031D03*
X99Y1031D03*
X401Y1129D03*
X101Y1129D03*
X398Y1223D03*
X98Y1223D03*
X1106Y937D03*
X806Y937D03*
X1106Y1037D03*
X806Y1037D03*
X1106Y1137D03*
X806Y1137D03*
X1106Y1237D03*
X806Y1237D03*
X1106Y1337D03*
X806Y1337D03*
X1106Y1437D03*
X806Y1437D03*
X1106Y1537D03*
X806Y1537D03*
X882Y758D03*
X1182Y758D03*
X882Y658D03*
X1182Y658D03*
X882Y558D03*
X1182Y558D03*
X882Y458D03*
X1182Y458D03*
X882Y358D03*
X1182Y358D03*
X882Y258D03*
X1182Y258D03*
X882Y158D03*
X1182Y158D03*
G54D10*
X497Y228D03*
X497Y328D03*
X497Y428D03*
X497Y528D03*
X947Y2128D03*
X1047Y2128D03*
X1147Y2128D03*
X1247Y2128D03*
X1347Y2128D03*
X497Y753D03*
X497Y853D03*
X497Y953D03*
X497Y1053D03*
X497Y1153D03*
G54D14*
X408Y4300D03*
X408Y4200D03*
X408Y4100D03*
X408Y4000D03*
X408Y3900D03*
X408Y3800D03*
X408Y3700D03*
X408Y3600D03*
X408Y3500D03*
X408Y3400D03*
X408Y3300D03*
X408Y3200D03*
X408Y3100D03*
X408Y3000D03*
X508Y3100D03*
X1008Y4300D03*
X1008Y4200D03*
X1008Y4100D03*
X1008Y4000D03*
X1008Y3900D03*
X1008Y3800D03*
X1008Y3700D03*
X1008Y3600D03*
X1008Y3500D03*
X1008Y3400D03*
X1008Y3300D03*
X1008Y3200D03*
X1008Y3100D03*
X1008Y3000D03*
X508Y3400D03*
X508Y3300D03*
X508Y3500D03*
X808Y4300D03*
X908Y4300D03*
X708Y4300D03*
X508Y4300D03*
X608Y4300D03*
X408Y4300D03*
X408Y4200D03*
X408Y4100D03*
X408Y4000D03*
X408Y3900D03*
X408Y3800D03*
X408Y3700D03*
X408Y3600D03*
X408Y3500D03*
X408Y3400D03*
X408Y3300D03*
X408Y3200D03*
X408Y3100D03*
X408Y3000D03*
X508Y3100D03*
X1008Y4300D03*
X1008Y4200D03*
X1008Y4100D03*
X1008Y4000D03*
X1008Y3900D03*
X1008Y3800D03*
X1008Y3700D03*
X1008Y3600D03*
X1008Y3500D03*
X1008Y3400D03*
X1008Y3300D03*
X1008Y3200D03*
X1008Y3100D03*
X1008Y3000D03*
X508Y3400D03*
X508Y3300D03*
X508Y3500D03*
X808Y4300D03*
X908Y4300D03*
X708Y4300D03*
X508Y4300D03*
X608Y4300D03*
X608Y4200D03*
X608Y4200D03*
X708Y4200D03*
X708Y4200D03*
X710Y4100D03*
X710Y4000D03*
X710Y3900D03*
X710Y3800D03*
X710Y3700D03*
X710Y3600D03*
X710Y4100D03*
X710Y4000D03*
X710Y3900D03*
X710Y3800D03*
X710Y3700D03*
X710Y3600D03*
X608Y4100D03*
X608Y4000D03*
X608Y3900D03*
X608Y3800D03*
X608Y3700D03*
X608Y3600D03*
X608Y4100D03*
X608Y4000D03*
X608Y3900D03*
X608Y3800D03*
X608Y3700D03*
X608Y3600D03*
G54D15*
X89Y762D03*
G54D16*
X1106Y937D03*
X882Y758D03*
G54D17*
X372Y581D02*
X325Y636D01*
D02*
X325Y636D02*
X339Y834D01*
G54D18*
D02*
X304Y2764D02*
X262Y2793D01*
G54D17*
D02*
X544Y4250D02*
X523Y4280D01*
D02*
X771Y4244D02*
X544Y4250D01*
D02*
X919Y3985D02*
X771Y4244D01*
D02*
X891Y3504D02*
X919Y3985D01*
D02*
X800Y3432D02*
X891Y3504D01*
D02*
X789Y2986D02*
X800Y3432D01*
D02*
X837Y2697D02*
X789Y2986D01*
D02*
X1181Y2510D02*
X837Y2697D01*
D02*
X1243Y2293D02*
X1181Y2510D01*
D02*
X1152Y2224D02*
X1243Y2293D01*
D02*
X759Y2217D02*
X1152Y2224D01*
D02*
X739Y2263D02*
X759Y2217D01*
D02*
X880Y2354D02*
X876Y2424D01*
D02*
X876Y2424D02*
X691Y2660D01*
D02*
X914Y2305D02*
X880Y2354D01*
D02*
X691Y2660D02*
X687Y2987D01*
D02*
X687Y2987D02*
X698Y3482D01*
D02*
X698Y3482D02*
X793Y3567D01*
D02*
X793Y3567D02*
X793Y3784D01*
D02*
X793Y3784D02*
X734Y3795D01*
G54D18*
D02*
X245Y1599D02*
X245Y1639D01*
D02*
X423Y2973D02*
X459Y2910D01*
D02*
X459Y2910D02*
X459Y2676D01*
D02*
X459Y2676D02*
X521Y2414D01*
D02*
X1074Y3569D02*
X1029Y3522D01*
D02*
X1131Y3677D02*
X1074Y3569D01*
G54D17*
D02*
X554Y3882D02*
X584Y3892D01*
D02*
X543Y3793D02*
X554Y3882D01*
D02*
X578Y3752D02*
X543Y3793D01*
D02*
X643Y3748D02*
X578Y3752D01*
D02*
X674Y3650D02*
X643Y3748D01*
D02*
X750Y3652D02*
X674Y3650D01*
D02*
X757Y3579D02*
X750Y3652D01*
D02*
X667Y3500D02*
X757Y3579D01*
D02*
X654Y2991D02*
X667Y3500D01*
D02*
X646Y2647D02*
X654Y2991D01*
D02*
X778Y2411D02*
X646Y2647D01*
D02*
X778Y2353D02*
X778Y2411D01*
D02*
X814Y2305D02*
X778Y2353D01*
G54D18*
D02*
X1136Y3475D02*
X1129Y3422D01*
D02*
X314Y2069D02*
X275Y2069D01*
D02*
X374Y1474D02*
X443Y1488D01*
D02*
X345Y1599D02*
X345Y1639D01*
D02*
X314Y1369D02*
X275Y1369D01*
D02*
X345Y1499D02*
X345Y1539D01*
D02*
X528Y2355D02*
X528Y2315D01*
D02*
X1116Y2826D02*
X1177Y2910D01*
G54D19*
D02*
X1100Y2024D02*
X968Y2114D01*
D02*
X1244Y1939D02*
X1100Y2024D01*
D02*
X1349Y1907D02*
X1244Y1939D01*
G54D18*
D02*
X854Y558D02*
X684Y561D01*
G54D17*
D02*
X350Y2948D02*
X350Y3067D01*
D02*
X350Y3067D02*
X386Y3087D01*
D02*
X422Y2903D02*
X350Y2948D01*
D02*
X425Y2695D02*
X422Y2903D01*
D02*
X386Y2633D02*
X425Y2695D01*
D02*
X343Y2502D02*
X386Y2633D01*
D02*
X154Y2500D02*
X343Y2502D01*
D02*
X111Y2460D02*
X154Y2500D01*
D02*
X111Y1761D02*
X111Y2460D01*
D02*
X224Y1683D02*
X111Y1761D01*
G54D18*
D02*
X906Y1044D02*
X834Y1039D01*
D02*
X873Y1241D02*
X906Y1044D01*
D02*
X834Y1239D02*
X873Y1241D01*
G54D19*
D02*
X384Y3495D02*
X330Y3484D01*
D02*
X330Y3484D02*
X93Y3398D01*
D02*
X93Y3398D02*
X89Y2893D01*
D02*
X89Y2893D02*
X90Y1353D01*
D02*
X90Y1353D02*
X195Y1314D01*
D02*
X195Y1314D02*
X222Y1080D01*
D02*
X222Y1080D02*
X118Y961D01*
G54D18*
D02*
X1079Y946D02*
X833Y1028D01*
G54D19*
D02*
X1313Y2460D02*
X1306Y2480D01*
D02*
X1315Y2250D02*
X1313Y2460D01*
D02*
X1222Y2195D02*
X1315Y2250D01*
D02*
X1166Y2144D02*
X1222Y2195D01*
G54D18*
D02*
X89Y693D02*
X89Y731D01*
D02*
X581Y2870D02*
X609Y3569D01*
D02*
X469Y317D02*
X433Y304D01*
D02*
X433Y304D02*
X411Y283D01*
D02*
X786Y1158D02*
X491Y1472D01*
D02*
X314Y1669D02*
X275Y1669D01*
D02*
X389Y693D02*
X389Y731D01*
G54D17*
D02*
X482Y547D02*
X405Y643D01*
G54D19*
D02*
X1071Y3095D02*
X1033Y3098D01*
D02*
X1080Y2886D02*
X1071Y3095D01*
D02*
X1037Y2878D02*
X1080Y2886D01*
D02*
X1011Y2673D02*
X1037Y2878D01*
D02*
X1224Y2539D02*
X1011Y2673D01*
D02*
X1248Y2456D02*
X1224Y2539D01*
D02*
X1293Y2267D02*
X1248Y2456D01*
D02*
X1202Y2213D02*
X1293Y2267D01*
D02*
X1174Y2189D02*
X1202Y2213D01*
D02*
X925Y2184D02*
X1174Y2189D01*
D02*
X889Y2161D02*
X925Y2184D01*
D02*
X896Y2074D02*
X889Y2161D01*
D02*
X931Y2054D02*
X896Y2074D01*
D02*
X985Y1798D02*
X931Y2054D01*
D02*
X1074Y1686D02*
X985Y1798D01*
D02*
X1178Y1682D02*
X1074Y1686D01*
D02*
X1205Y1728D02*
X1178Y1682D01*
D02*
X133Y1923D02*
X222Y1879D01*
D02*
X131Y2398D02*
X133Y1923D01*
D02*
X173Y2435D02*
X131Y2398D01*
D02*
X383Y4003D02*
X339Y4010D01*
D02*
X339Y4010D02*
X31Y3656D01*
D02*
X31Y3656D02*
X30Y2943D01*
D02*
X30Y2943D02*
X30Y1282D01*
D02*
X30Y1282D02*
X80Y1238D01*
G54D18*
D02*
X366Y1848D02*
X785Y1456D01*
D02*
X262Y2551D02*
X222Y2551D01*
D02*
X1285Y454D02*
X1211Y457D01*
D02*
X1285Y250D02*
X1285Y454D01*
D02*
X1211Y256D02*
X1285Y250D01*
D02*
X1111Y2058D02*
X1067Y2106D01*
D02*
X1322Y1997D02*
X1111Y2058D01*
G54D17*
D02*
X680Y2252D02*
X730Y2197D01*
D02*
X730Y2197D02*
X1163Y2208D01*
D02*
X678Y2317D02*
X680Y2252D01*
D02*
X1163Y2208D02*
X1267Y2286D01*
D02*
X714Y2365D02*
X678Y2317D01*
D02*
X1267Y2286D02*
X1198Y2524D01*
D02*
X1198Y2524D02*
X869Y2700D01*
D02*
X869Y2700D02*
X807Y2984D01*
D02*
X807Y2984D02*
X817Y3424D01*
D02*
X817Y3424D02*
X906Y3487D01*
D02*
X906Y3487D02*
X926Y3835D01*
D02*
X926Y3835D02*
X988Y3884D01*
G54D18*
D02*
X499Y2393D02*
X321Y2443D01*
D02*
X1152Y3530D02*
X1183Y3601D01*
D02*
X89Y231D02*
X89Y193D01*
D02*
X1364Y4298D02*
X1356Y3938D01*
D02*
X1253Y4292D02*
X1364Y4298D01*
D02*
X245Y1499D02*
X245Y1539D01*
D02*
X314Y1569D02*
X275Y1569D01*
G54D17*
D02*
X1127Y2410D02*
X1124Y2471D01*
D02*
X1124Y2471D02*
X780Y2678D01*
D02*
X780Y2678D02*
X757Y2987D01*
D02*
X757Y2987D02*
X769Y3447D01*
D02*
X769Y3447D02*
X859Y3523D01*
D02*
X859Y3523D02*
X881Y3956D01*
D02*
X881Y3956D02*
X729Y4084D01*
G54D18*
D02*
X1174Y1335D02*
X1135Y1336D01*
D02*
X782Y1353D02*
X601Y1478D01*
G54D19*
D02*
X383Y3901D02*
X344Y3902D01*
D02*
X344Y3902D02*
X50Y3639D01*
D02*
X50Y3639D02*
X50Y2922D01*
D02*
X50Y2922D02*
X51Y1313D01*
D02*
X51Y1313D02*
X144Y1281D01*
D02*
X144Y1281D02*
X159Y1191D01*
D02*
X159Y1191D02*
X117Y1146D01*
G54D18*
D02*
X616Y2413D02*
X504Y2671D01*
D02*
X504Y2671D02*
X504Y2969D01*
D02*
X504Y2969D02*
X463Y3048D01*
D02*
X463Y3048D02*
X430Y3079D01*
D02*
X1137Y4093D02*
X1124Y4036D01*
D02*
X1094Y2774D02*
X1089Y2747D01*
G54D19*
D02*
X479Y870D02*
X419Y927D01*
G54D18*
D02*
X1133Y927D02*
X1330Y858D01*
D02*
X1330Y858D02*
X1333Y713D01*
D02*
X1333Y713D02*
X1209Y667D01*
G54D17*
D02*
X333Y1276D02*
X519Y1298D01*
D02*
X519Y1298D02*
X789Y1052D01*
D02*
X326Y1058D02*
X333Y1276D01*
D02*
X108Y873D02*
X326Y1058D01*
D02*
X28Y843D02*
X108Y873D01*
D02*
X31Y487D02*
X28Y843D01*
D02*
X66Y472D02*
X31Y487D01*
G54D18*
D02*
X1258Y3648D02*
X1251Y3675D01*
D02*
X1214Y3189D02*
X1258Y3648D01*
D02*
X1238Y3034D02*
X1214Y3189D01*
G54D17*
D02*
X159Y874D02*
X98Y826D01*
D02*
X98Y826D02*
X92Y787D01*
D02*
X237Y936D02*
X159Y874D01*
D02*
X283Y931D02*
X237Y936D01*
D02*
X297Y589D02*
X283Y931D01*
D02*
X358Y511D02*
X297Y589D01*
D02*
X424Y513D02*
X358Y511D01*
D02*
X481Y447D02*
X424Y513D01*
G54D18*
D02*
X1266Y1336D02*
X1231Y1335D01*
D02*
X628Y2315D02*
X628Y2355D01*
D02*
X262Y2451D02*
X222Y2451D01*
D02*
X314Y1969D02*
X275Y1969D01*
D02*
X799Y1565D02*
X635Y2256D01*
G54D20*
D02*
X717Y359D02*
X754Y391D01*
D02*
X657Y32D02*
X717Y359D01*
D02*
X76Y36D02*
X657Y32D01*
D02*
X37Y65D02*
X76Y36D01*
D02*
X30Y299D02*
X37Y65D01*
D02*
X58Y311D02*
X30Y299D01*
D02*
X122Y313D02*
X58Y311D01*
D02*
X163Y361D02*
X122Y313D01*
D02*
X117Y413D02*
X162Y361D01*
D02*
X53Y411D02*
X117Y413D01*
D02*
X13Y436D02*
X53Y411D01*
D02*
X13Y2966D02*
X13Y436D01*
D02*
X15Y3684D02*
X13Y2966D01*
D02*
X353Y4195D02*
X15Y3684D01*
D02*
X383Y4197D02*
X353Y4195D01*
G54D18*
D02*
X262Y2351D02*
X222Y2351D01*
D02*
X978Y3297D02*
X955Y3296D01*
G54D17*
D02*
X1045Y2304D02*
X1078Y2342D01*
D02*
X1078Y2342D02*
X1078Y2413D01*
D02*
X1078Y2413D02*
X757Y2673D01*
D02*
X757Y2673D02*
X741Y2987D01*
D02*
X741Y2987D02*
X750Y3456D01*
D02*
X750Y3456D02*
X843Y3534D01*
D02*
X843Y3534D02*
X859Y3937D01*
D02*
X859Y3937D02*
X733Y3990D01*
G54D18*
D02*
X1081Y3328D02*
X1119Y3203D01*
D02*
X1119Y3203D02*
X1139Y3034D01*
D02*
X1030Y3378D02*
X1081Y3328D01*
G54D17*
D02*
X783Y936D02*
X586Y928D01*
D02*
X586Y928D02*
X574Y436D01*
D02*
X574Y436D02*
X549Y378D01*
D02*
X549Y378D02*
X464Y378D01*
D02*
X464Y378D02*
X413Y367D01*
G54D18*
D02*
X1397Y3820D02*
X1367Y3883D01*
D02*
X1397Y3364D02*
X1397Y3820D01*
D02*
X1367Y3316D02*
X1397Y3364D01*
D02*
X1179Y1232D02*
X1134Y1235D01*
G54D19*
D02*
X309Y3137D02*
X387Y3186D01*
D02*
X315Y2915D02*
X309Y3137D01*
D02*
X394Y2878D02*
X315Y2915D01*
D02*
X400Y2706D02*
X394Y2878D01*
D02*
X367Y2647D02*
X400Y2706D01*
D02*
X343Y2580D02*
X367Y2647D01*
D02*
X313Y2563D02*
X343Y2580D01*
G54D17*
D02*
X1016Y2406D02*
X983Y2460D01*
D02*
X983Y2460D02*
X733Y2669D01*
D02*
X733Y2669D02*
X722Y2989D01*
D02*
X722Y2989D02*
X733Y3465D01*
D02*
X733Y3465D02*
X828Y3545D01*
D02*
X828Y3545D02*
X835Y3850D01*
D02*
X835Y3850D02*
X733Y3891D01*
G54D18*
D02*
X1152Y4148D02*
X1167Y4191D01*
G54D19*
D02*
X1403Y1911D02*
X1393Y1908D01*
D02*
X1403Y2595D02*
X1403Y1911D01*
D02*
X1376Y2644D02*
X1403Y2595D01*
G54D17*
D02*
X661Y3958D02*
X628Y3984D01*
D02*
X661Y3873D02*
X661Y3958D01*
D02*
X683Y3854D02*
X661Y3873D01*
D02*
X759Y3850D02*
X683Y3854D01*
D02*
X811Y3815D02*
X759Y3850D01*
D02*
X810Y3557D02*
X811Y3815D01*
D02*
X715Y3474D02*
X810Y3557D01*
D02*
X706Y2993D02*
X715Y3474D01*
D02*
X711Y2663D02*
X706Y2993D01*
D02*
X919Y2454D02*
X711Y2663D01*
D02*
X925Y2409D02*
X919Y2454D01*
G54D19*
D02*
X1297Y3434D02*
X1327Y3773D01*
D02*
X1267Y3184D02*
X1297Y3434D01*
D02*
X1289Y3119D02*
X1267Y3184D01*
D02*
X1330Y3067D02*
X1289Y3119D01*
D02*
X1331Y2780D02*
X1330Y3067D01*
D02*
X1276Y2730D02*
X1331Y2780D01*
D02*
X1289Y2610D02*
X1276Y2730D01*
D02*
X1350Y2563D02*
X1289Y2610D01*
D02*
X1352Y2215D02*
X1350Y2563D01*
D02*
X1300Y2182D02*
X1352Y2215D01*
D02*
X1264Y2146D02*
X1300Y2182D01*
G54D18*
D02*
X873Y1241D02*
X834Y1239D01*
D02*
X873Y1450D02*
X873Y1241D01*
D02*
X834Y1442D02*
X873Y1450D01*
G54D19*
D02*
X477Y1167D02*
X416Y1210D01*
D02*
X695Y3580D02*
X643Y3508D01*
D02*
X643Y3508D02*
X630Y2798D01*
D02*
X630Y2798D02*
X606Y2767D01*
G54D18*
D02*
X267Y3208D02*
X378Y3202D01*
G54D19*
D02*
X1361Y3069D02*
X1342Y3159D01*
D02*
X1365Y2752D02*
X1361Y3069D01*
D02*
X1309Y2704D02*
X1365Y2752D01*
D02*
X1311Y2623D02*
X1309Y2704D01*
D02*
X1374Y2582D02*
X1311Y2623D01*
D02*
X1376Y2206D02*
X1374Y2582D01*
D02*
X1356Y2151D02*
X1376Y2206D01*
G54D18*
D02*
X857Y344D02*
X805Y314D01*
D02*
X339Y2237D02*
X583Y2191D01*
D02*
X583Y2191D02*
X615Y2258D01*
D02*
X303Y2323D02*
X339Y2237D01*
D02*
X307Y2858D02*
X261Y2892D01*
D02*
X856Y446D02*
X798Y419D01*
D02*
X1389Y139D02*
X1211Y155D01*
D02*
X1393Y558D02*
X1389Y139D01*
D02*
X1211Y558D02*
X1393Y558D01*
D02*
X1393Y558D02*
X1394Y1625D01*
D02*
X1394Y1625D02*
X1393Y1865D01*
D02*
X1393Y1865D02*
X1386Y1876D01*
D02*
X1394Y1625D02*
X898Y1617D01*
D02*
X898Y1617D02*
X828Y1556D01*
G54D17*
D02*
X230Y602D02*
X231Y836D01*
D02*
X307Y476D02*
X230Y602D01*
D02*
X364Y467D02*
X307Y476D01*
G54D21*
D02*
X449Y3343D02*
X490Y3382D01*
D02*
X386Y3343D02*
X449Y3343D01*
D02*
X350Y3339D02*
X386Y3343D01*
D02*
X151Y3291D02*
X350Y3339D01*
D02*
X151Y3030D02*
X151Y3291D01*
D02*
X213Y3015D02*
X151Y3030D01*
G54D19*
D02*
X1029Y3614D02*
X1067Y3639D01*
D02*
X1067Y3639D02*
X1061Y3734D01*
D02*
X1061Y3734D02*
X1192Y3792D01*
D02*
X1192Y3792D02*
X1186Y3867D01*
D02*
X1186Y3867D02*
X1064Y3961D01*
D02*
X1064Y3961D02*
X1058Y4036D01*
D02*
X1058Y4036D02*
X1121Y4270D01*
D02*
X478Y968D02*
X417Y1016D01*
G54D17*
D02*
X1151Y2295D02*
X1209Y2323D01*
D02*
X1209Y2323D02*
X1161Y2493D01*
D02*
X1161Y2493D02*
X807Y2686D01*
D02*
X807Y2686D02*
X774Y2987D01*
D02*
X774Y2987D02*
X783Y3439D01*
D02*
X783Y3439D02*
X874Y3513D01*
D02*
X874Y3513D02*
X900Y3973D01*
D02*
X900Y3973D02*
X726Y4181D01*
G54D21*
D02*
X215Y2728D02*
X275Y2668D01*
D02*
X133Y2774D02*
X215Y2728D01*
D02*
X133Y3324D02*
X133Y2774D01*
D02*
X359Y3367D02*
X133Y3324D01*
D02*
X386Y3356D02*
X359Y3367D01*
D02*
X430Y3357D02*
X386Y3356D01*
D02*
X461Y3382D02*
X430Y3357D01*
D02*
X487Y4098D02*
X461Y3382D01*
D02*
X583Y4099D02*
X487Y4098D01*
G54D17*
D02*
X497Y204D02*
X496Y95D01*
D02*
X496Y95D02*
X452Y56D01*
D02*
X452Y56D02*
X126Y61D01*
D02*
X126Y61D02*
X97Y139D01*
G54D18*
D02*
X314Y1869D02*
X275Y1869D01*
G54D17*
D02*
X1166Y741D02*
X936Y509D01*
D02*
X936Y509D02*
X828Y509D01*
D02*
X828Y509D02*
X608Y503D01*
D02*
X608Y503D02*
X608Y381D01*
D02*
X608Y381D02*
X533Y280D01*
D02*
X533Y280D02*
X457Y276D01*
D02*
X457Y276D02*
X436Y214D01*
D02*
X461Y106D02*
X419Y84D01*
D02*
X436Y214D02*
X457Y167D01*
D02*
X457Y167D02*
X461Y106D01*
D02*
X419Y84D02*
X346Y91D01*
D02*
X346Y91D02*
X183Y204D01*
D02*
X183Y204D02*
X194Y358D01*
D02*
X194Y358D02*
X165Y471D01*
D02*
X165Y471D02*
X105Y543D01*
G54D18*
D02*
X1163Y478D02*
X1100Y545D01*
D02*
X1100Y545D02*
X1165Y634D01*
D02*
X1084Y919D02*
X904Y775D01*
G54D17*
D02*
X222Y3129D02*
X171Y3193D01*
D02*
X171Y3193D02*
X171Y3253D01*
D02*
X171Y3253D02*
X244Y3288D01*
D02*
X244Y3288D02*
X314Y3249D01*
D02*
X314Y3249D02*
X517Y3246D01*
D02*
X517Y3246D02*
X561Y3266D01*
D02*
X561Y3266D02*
X564Y3475D01*
D02*
X564Y3475D02*
X531Y3490D01*
G54D19*
D02*
X115Y1047D02*
X193Y1128D01*
D02*
X193Y1128D02*
X170Y1299D01*
D02*
X170Y1299D02*
X70Y1337D01*
D02*
X70Y1337D02*
X70Y2907D01*
D02*
X70Y2907D02*
X70Y3447D01*
D02*
X70Y3447D02*
X337Y3561D01*
D02*
X337Y3561D02*
X386Y3588D01*
G54D18*
D02*
X314Y1469D02*
X275Y1469D01*
D02*
X1397Y3242D02*
X1372Y3270D01*
D02*
X1400Y2730D02*
X1397Y3242D01*
D02*
X1379Y2689D02*
X1400Y2730D01*
D02*
X389Y231D02*
X389Y193D01*
D02*
X1093Y1882D02*
X1145Y1839D01*
G54D19*
D02*
X478Y1068D02*
X419Y1115D01*
G54D18*
D02*
X1065Y1928D02*
X1057Y1961D01*
D02*
X902Y3195D02*
X978Y3198D01*
G54D20*
D02*
X583Y4200D02*
X475Y4201D01*
D02*
X475Y4201D02*
X452Y3484D01*
D02*
X452Y3484D02*
X436Y3451D01*
D02*
X436Y3451D02*
X375Y3450D01*
X375Y3450D02*
X111Y3358D01*
D02*
X111Y3358D02*
X115Y2734D01*
D02*
X115Y2734D02*
X175Y2669D01*
G54D18*
D02*
X1253Y3845D02*
X1246Y3728D01*
D02*
X1331Y3894D02*
X1253Y3845D01*
G54D17*
D02*
X1115Y348D02*
X1159Y354D01*
D02*
X1037Y121D02*
X1115Y348D01*
D02*
X943Y15D02*
X1037Y121D01*
D02*
X54Y15D02*
X943Y15D01*
D02*
X14Y53D02*
X54Y15D01*
D02*
X14Y331D02*
X14Y53D01*
D02*
X65Y352D02*
X14Y331D01*
G54D18*
D02*
X314Y1769D02*
X275Y1769D01*
G54D17*
D02*
X685Y3754D02*
X630Y3787D01*
D02*
X741Y3752D02*
X685Y3754D01*
D02*
X772Y3702D02*
X741Y3752D01*
D02*
X775Y3574D02*
X772Y3702D01*
D02*
X683Y3491D02*
X775Y3574D01*
D02*
X669Y2991D02*
X683Y3491D01*
D02*
X669Y2652D02*
X669Y2991D01*
D02*
X816Y2406D02*
X669Y2652D01*
D02*
X942Y3778D02*
X922Y3475D01*
D02*
X922Y3475D02*
X882Y3404D01*
D02*
X984Y3792D02*
X942Y3778D01*
G54D18*
D02*
X1225Y4375D02*
X1226Y4318D01*
D02*
X733Y4373D02*
X1225Y4375D01*
D02*
X718Y4329D02*
X733Y4373D01*
D02*
X1026Y1824D02*
X955Y2099D01*
D02*
X1095Y1764D02*
X1026Y1824D01*
D02*
X1285Y1133D02*
X1135Y1136D01*
G54D22*
X51Y4422D02*
X79Y4422D01*
X153Y4422D02*
X179Y4422D01*
X266Y4422D02*
X284Y4422D01*
X364Y4422D02*
X388Y4422D01*
X49Y4421D02*
X80Y4421D01*
X152Y4421D02*
X181Y4421D01*
X266Y4421D02*
X285Y4421D01*
X362Y4421D02*
X388Y4421D01*
X48Y4420D02*
X81Y4420D01*
X151Y4420D02*
X182Y4420D01*
X266Y4420D02*
X286Y4420D01*
X360Y4420D02*
X388Y4420D01*
X48Y4419D02*
X81Y4419D01*
X150Y4419D02*
X182Y4419D01*
X266Y4419D02*
X286Y4419D01*
X359Y4419D02*
X388Y4419D01*
X47Y4418D02*
X81Y4418D01*
X150Y4418D02*
X183Y4418D01*
X266Y4418D02*
X286Y4418D01*
X358Y4418D02*
X388Y4418D01*
X47Y4417D02*
X80Y4417D01*
X149Y4417D02*
X183Y4417D01*
X266Y4417D02*
X285Y4417D01*
X357Y4417D02*
X388Y4417D01*
X47Y4416D02*
X79Y4416D01*
X149Y4416D02*
X183Y4416D01*
X266Y4416D02*
X284Y4416D01*
X356Y4416D02*
X388Y4416D01*
X47Y4415D02*
X53Y4415D01*
X149Y4415D02*
X155Y4415D01*
X177Y4415D02*
X183Y4415D01*
X266Y4415D02*
X272Y4415D01*
X356Y4415D02*
X365Y4415D01*
X382Y4415D02*
X388Y4415D01*
X47Y4414D02*
X53Y4414D01*
X149Y4414D02*
X155Y4414D01*
X177Y4414D02*
X183Y4414D01*
X266Y4414D02*
X272Y4414D01*
X355Y4414D02*
X363Y4414D01*
X382Y4414D02*
X388Y4414D01*
X47Y4413D02*
X53Y4413D01*
X149Y4413D02*
X155Y4413D01*
X177Y4413D02*
X183Y4413D01*
X266Y4413D02*
X272Y4413D01*
X355Y4413D02*
X362Y4413D01*
X382Y4413D02*
X388Y4413D01*
X47Y4412D02*
X53Y4412D01*
X149Y4412D02*
X155Y4412D01*
X177Y4412D02*
X183Y4412D01*
X266Y4412D02*
X272Y4412D01*
X355Y4412D02*
X361Y4412D01*
X382Y4412D02*
X388Y4412D01*
X47Y4411D02*
X53Y4411D01*
X149Y4411D02*
X155Y4411D01*
X177Y4411D02*
X183Y4411D01*
X266Y4411D02*
X272Y4411D01*
X354Y4411D02*
X361Y4411D01*
X382Y4411D02*
X388Y4411D01*
X47Y4410D02*
X53Y4410D01*
X149Y4410D02*
X155Y4410D01*
X177Y4410D02*
X183Y4410D01*
X266Y4410D02*
X272Y4410D01*
X354Y4410D02*
X360Y4410D01*
X382Y4410D02*
X388Y4410D01*
X47Y4409D02*
X53Y4409D01*
X149Y4409D02*
X155Y4409D01*
X177Y4409D02*
X183Y4409D01*
X266Y4409D02*
X272Y4409D01*
X354Y4409D02*
X360Y4409D01*
X382Y4409D02*
X388Y4409D01*
X47Y4408D02*
X53Y4408D01*
X149Y4408D02*
X155Y4408D01*
X177Y4408D02*
X183Y4408D01*
X266Y4408D02*
X272Y4408D01*
X354Y4408D02*
X360Y4408D01*
X382Y4408D02*
X388Y4408D01*
X47Y4407D02*
X53Y4407D01*
X149Y4407D02*
X155Y4407D01*
X177Y4407D02*
X183Y4407D01*
X266Y4407D02*
X272Y4407D01*
X354Y4407D02*
X360Y4407D01*
X382Y4407D02*
X388Y4407D01*
X407Y4407D02*
X410Y4407D01*
X435Y4407D02*
X438Y4407D01*
X466Y4407D02*
X481Y4407D01*
X515Y4407D02*
X526Y4407D01*
X538Y4407D02*
X540Y4407D01*
X47Y4406D02*
X53Y4406D01*
X149Y4406D02*
X155Y4406D01*
X177Y4406D02*
X183Y4406D01*
X266Y4406D02*
X272Y4406D01*
X354Y4406D02*
X360Y4406D01*
X382Y4406D02*
X388Y4406D01*
X406Y4406D02*
X411Y4406D01*
X434Y4406D02*
X439Y4406D01*
X464Y4406D02*
X483Y4406D01*
X513Y4406D02*
X528Y4406D01*
X536Y4406D02*
X541Y4406D01*
X47Y4405D02*
X53Y4405D01*
X149Y4405D02*
X155Y4405D01*
X177Y4405D02*
X183Y4405D01*
X266Y4405D02*
X272Y4405D01*
X354Y4405D02*
X360Y4405D01*
X382Y4405D02*
X388Y4405D01*
X405Y4405D02*
X411Y4405D01*
X434Y4405D02*
X439Y4405D01*
X463Y4405D02*
X484Y4405D01*
X511Y4405D02*
X529Y4405D01*
X536Y4405D02*
X542Y4405D01*
X47Y4404D02*
X53Y4404D01*
X149Y4404D02*
X155Y4404D01*
X177Y4404D02*
X183Y4404D01*
X266Y4404D02*
X272Y4404D01*
X354Y4404D02*
X360Y4404D01*
X382Y4404D02*
X388Y4404D01*
X405Y4404D02*
X411Y4404D01*
X433Y4404D02*
X439Y4404D01*
X461Y4404D02*
X486Y4404D01*
X510Y4404D02*
X530Y4404D01*
X536Y4404D02*
X542Y4404D01*
X47Y4403D02*
X53Y4403D01*
X149Y4403D02*
X155Y4403D01*
X177Y4403D02*
X183Y4403D01*
X266Y4403D02*
X272Y4403D01*
X354Y4403D02*
X361Y4403D01*
X382Y4403D02*
X388Y4403D01*
X405Y4403D02*
X411Y4403D01*
X433Y4403D02*
X439Y4403D01*
X460Y4403D02*
X487Y4403D01*
X510Y4403D02*
X531Y4403D01*
X536Y4403D02*
X542Y4403D01*
X47Y4402D02*
X53Y4402D01*
X149Y4402D02*
X155Y4402D01*
X177Y4402D02*
X183Y4402D01*
X266Y4402D02*
X272Y4402D01*
X354Y4402D02*
X361Y4402D01*
X382Y4402D02*
X388Y4402D01*
X405Y4402D02*
X411Y4402D01*
X433Y4402D02*
X439Y4402D01*
X459Y4402D02*
X488Y4402D01*
X509Y4402D02*
X532Y4402D01*
X536Y4402D02*
X542Y4402D01*
X47Y4401D02*
X53Y4401D01*
X149Y4401D02*
X155Y4401D01*
X177Y4401D02*
X183Y4401D01*
X266Y4401D02*
X272Y4401D01*
X355Y4401D02*
X362Y4401D01*
X382Y4401D02*
X388Y4401D01*
X405Y4401D02*
X411Y4401D01*
X433Y4401D02*
X439Y4401D01*
X458Y4401D02*
X489Y4401D01*
X508Y4401D02*
X533Y4401D01*
X536Y4401D02*
X542Y4401D01*
X47Y4400D02*
X54Y4400D01*
X149Y4400D02*
X155Y4400D01*
X177Y4400D02*
X183Y4400D01*
X266Y4400D02*
X272Y4400D01*
X355Y4400D02*
X363Y4400D01*
X382Y4400D02*
X388Y4400D01*
X405Y4400D02*
X411Y4400D01*
X433Y4400D02*
X439Y4400D01*
X458Y4400D02*
X467Y4400D01*
X480Y4400D02*
X489Y4400D01*
X508Y4400D02*
X516Y4400D01*
X525Y4400D02*
X542Y4400D01*
X47Y4399D02*
X55Y4399D01*
X149Y4399D02*
X155Y4399D01*
X177Y4399D02*
X183Y4399D01*
X266Y4399D02*
X272Y4399D01*
X356Y4399D02*
X365Y4399D01*
X382Y4399D02*
X388Y4399D01*
X405Y4399D02*
X411Y4399D01*
X433Y4399D02*
X439Y4399D01*
X457Y4399D02*
X465Y4399D01*
X482Y4399D02*
X490Y4399D01*
X508Y4399D02*
X515Y4399D01*
X526Y4399D02*
X542Y4399D01*
X47Y4398D02*
X72Y4398D01*
X149Y4398D02*
X155Y4398D01*
X177Y4398D02*
X183Y4398D01*
X266Y4398D02*
X272Y4398D01*
X356Y4398D02*
X388Y4398D01*
X405Y4398D02*
X412Y4398D01*
X433Y4398D02*
X439Y4398D01*
X457Y4398D02*
X464Y4398D01*
X483Y4398D02*
X490Y4398D01*
X508Y4398D02*
X514Y4398D01*
X527Y4398D02*
X542Y4398D01*
X48Y4397D02*
X73Y4397D01*
X149Y4397D02*
X155Y4397D01*
X177Y4397D02*
X183Y4397D01*
X266Y4397D02*
X272Y4397D01*
X357Y4397D02*
X388Y4397D01*
X405Y4397D02*
X412Y4397D01*
X433Y4397D02*
X439Y4397D01*
X457Y4397D02*
X463Y4397D01*
X484Y4397D02*
X490Y4397D01*
X508Y4397D02*
X514Y4397D01*
X528Y4397D02*
X542Y4397D01*
X49Y4396D02*
X74Y4396D01*
X149Y4396D02*
X155Y4396D01*
X177Y4396D02*
X183Y4396D01*
X266Y4396D02*
X272Y4396D01*
X358Y4396D02*
X388Y4396D01*
X406Y4396D02*
X413Y4396D01*
X432Y4396D02*
X439Y4396D01*
X457Y4396D02*
X463Y4396D01*
X484Y4396D02*
X491Y4396D01*
X508Y4396D02*
X514Y4396D01*
X529Y4396D02*
X542Y4396D01*
X49Y4395D02*
X74Y4395D01*
X149Y4395D02*
X155Y4395D01*
X177Y4395D02*
X183Y4395D01*
X266Y4395D02*
X272Y4395D01*
X359Y4395D02*
X388Y4395D01*
X406Y4395D02*
X413Y4395D01*
X432Y4395D02*
X439Y4395D01*
X456Y4395D02*
X463Y4395D01*
X485Y4395D02*
X491Y4395D01*
X508Y4395D02*
X514Y4395D01*
X530Y4395D02*
X542Y4395D01*
X49Y4394D02*
X74Y4394D01*
X149Y4394D02*
X155Y4394D01*
X177Y4394D02*
X183Y4394D01*
X266Y4394D02*
X272Y4394D01*
X358Y4394D02*
X388Y4394D01*
X407Y4394D02*
X413Y4394D01*
X431Y4394D02*
X438Y4394D01*
X456Y4394D02*
X463Y4394D01*
X485Y4394D02*
X491Y4394D01*
X508Y4394D02*
X514Y4394D01*
X531Y4394D02*
X542Y4394D01*
X48Y4393D02*
X73Y4393D01*
X149Y4393D02*
X155Y4393D01*
X177Y4393D02*
X183Y4393D01*
X266Y4393D02*
X272Y4393D01*
X357Y4393D02*
X388Y4393D01*
X407Y4393D02*
X414Y4393D01*
X431Y4393D02*
X438Y4393D01*
X456Y4393D02*
X463Y4393D01*
X485Y4393D02*
X491Y4393D01*
X508Y4393D02*
X513Y4393D01*
X533Y4393D02*
X542Y4393D01*
X48Y4392D02*
X72Y4392D01*
X149Y4392D02*
X155Y4392D01*
X177Y4392D02*
X183Y4392D01*
X253Y4392D02*
X256Y4392D01*
X266Y4392D02*
X272Y4392D01*
X356Y4392D02*
X388Y4392D01*
X408Y4392D02*
X414Y4392D01*
X430Y4392D02*
X437Y4392D01*
X456Y4392D02*
X463Y4392D01*
X485Y4392D02*
X491Y4392D01*
X509Y4392D02*
X512Y4392D01*
X534Y4392D02*
X542Y4392D01*
X47Y4391D02*
X55Y4391D01*
X149Y4391D02*
X155Y4391D01*
X177Y4391D02*
X183Y4391D01*
X252Y4391D02*
X257Y4391D01*
X266Y4391D02*
X272Y4391D01*
X356Y4391D02*
X365Y4391D01*
X382Y4391D02*
X388Y4391D01*
X408Y4391D02*
X415Y4391D01*
X430Y4391D02*
X437Y4391D01*
X456Y4391D02*
X463Y4391D01*
X485Y4391D02*
X491Y4391D01*
X535Y4391D02*
X542Y4391D01*
X47Y4390D02*
X54Y4390D01*
X149Y4390D02*
X155Y4390D01*
X177Y4390D02*
X183Y4390D01*
X252Y4390D02*
X257Y4390D01*
X266Y4390D02*
X272Y4390D01*
X355Y4390D02*
X363Y4390D01*
X382Y4390D02*
X388Y4390D01*
X408Y4390D02*
X415Y4390D01*
X430Y4390D02*
X436Y4390D01*
X456Y4390D02*
X463Y4390D01*
X485Y4390D02*
X491Y4390D01*
X536Y4390D02*
X542Y4390D01*
X47Y4389D02*
X53Y4389D01*
X110Y4389D02*
X120Y4389D01*
X149Y4389D02*
X155Y4389D01*
X177Y4389D02*
X183Y4389D01*
X213Y4389D02*
X222Y4389D01*
X252Y4389D02*
X258Y4389D01*
X266Y4389D02*
X272Y4389D01*
X355Y4389D02*
X362Y4389D01*
X382Y4389D02*
X388Y4389D01*
X409Y4389D02*
X416Y4389D01*
X429Y4389D02*
X436Y4389D01*
X456Y4389D02*
X491Y4389D01*
X536Y4389D02*
X542Y4389D01*
X47Y4388D02*
X53Y4388D01*
X109Y4388D02*
X121Y4388D01*
X149Y4388D02*
X155Y4388D01*
X177Y4388D02*
X183Y4388D01*
X212Y4388D02*
X223Y4388D01*
X252Y4388D02*
X258Y4388D01*
X266Y4388D02*
X272Y4388D01*
X355Y4388D02*
X361Y4388D01*
X382Y4388D02*
X388Y4388D01*
X409Y4388D02*
X416Y4388D01*
X429Y4388D02*
X435Y4388D01*
X456Y4388D02*
X491Y4388D01*
X536Y4388D02*
X542Y4388D01*
X47Y4387D02*
X53Y4387D01*
X109Y4387D02*
X121Y4387D01*
X149Y4387D02*
X155Y4387D01*
X177Y4387D02*
X183Y4387D01*
X211Y4387D02*
X224Y4387D01*
X252Y4387D02*
X258Y4387D01*
X266Y4387D02*
X272Y4387D01*
X354Y4387D02*
X361Y4387D01*
X382Y4387D02*
X388Y4387D01*
X410Y4387D02*
X417Y4387D01*
X428Y4387D02*
X435Y4387D01*
X456Y4387D02*
X491Y4387D01*
X536Y4387D02*
X542Y4387D01*
X47Y4386D02*
X53Y4386D01*
X108Y4386D02*
X122Y4386D01*
X149Y4386D02*
X155Y4386D01*
X177Y4386D02*
X183Y4386D01*
X211Y4386D02*
X224Y4386D01*
X252Y4386D02*
X258Y4386D01*
X266Y4386D02*
X272Y4386D01*
X354Y4386D02*
X360Y4386D01*
X382Y4386D02*
X388Y4386D01*
X410Y4386D02*
X417Y4386D01*
X428Y4386D02*
X435Y4386D01*
X456Y4386D02*
X491Y4386D01*
X536Y4386D02*
X542Y4386D01*
X47Y4385D02*
X53Y4385D01*
X108Y4385D02*
X122Y4385D01*
X149Y4385D02*
X155Y4385D01*
X177Y4385D02*
X183Y4385D01*
X211Y4385D02*
X224Y4385D01*
X252Y4385D02*
X258Y4385D01*
X266Y4385D02*
X272Y4385D01*
X354Y4385D02*
X360Y4385D01*
X382Y4385D02*
X388Y4385D01*
X411Y4385D02*
X417Y4385D01*
X427Y4385D02*
X434Y4385D01*
X457Y4385D02*
X491Y4385D01*
X536Y4385D02*
X542Y4385D01*
X47Y4384D02*
X53Y4384D01*
X108Y4384D02*
X122Y4384D01*
X149Y4384D02*
X155Y4384D01*
X177Y4384D02*
X183Y4384D01*
X211Y4384D02*
X224Y4384D01*
X252Y4384D02*
X258Y4384D01*
X266Y4384D02*
X272Y4384D01*
X354Y4384D02*
X360Y4384D01*
X382Y4384D02*
X388Y4384D01*
X411Y4384D02*
X418Y4384D01*
X427Y4384D02*
X434Y4384D01*
X457Y4384D02*
X491Y4384D01*
X536Y4384D02*
X542Y4384D01*
X47Y4383D02*
X53Y4383D01*
X108Y4383D02*
X122Y4383D01*
X149Y4383D02*
X155Y4383D01*
X177Y4383D02*
X183Y4383D01*
X211Y4383D02*
X224Y4383D01*
X252Y4383D02*
X258Y4383D01*
X266Y4383D02*
X272Y4383D01*
X354Y4383D02*
X360Y4383D01*
X382Y4383D02*
X388Y4383D01*
X411Y4383D02*
X418Y4383D01*
X427Y4383D02*
X433Y4383D01*
X458Y4383D02*
X491Y4383D01*
X536Y4383D02*
X542Y4383D01*
X47Y4382D02*
X53Y4382D01*
X108Y4382D02*
X122Y4382D01*
X149Y4382D02*
X155Y4382D01*
X177Y4382D02*
X183Y4382D01*
X211Y4382D02*
X224Y4382D01*
X252Y4382D02*
X258Y4382D01*
X266Y4382D02*
X272Y4382D01*
X354Y4382D02*
X360Y4382D01*
X382Y4382D02*
X388Y4382D01*
X412Y4382D02*
X419Y4382D01*
X426Y4382D02*
X433Y4382D01*
X484Y4382D02*
X491Y4382D01*
X536Y4382D02*
X542Y4382D01*
X47Y4381D02*
X53Y4381D01*
X108Y4381D02*
X122Y4381D01*
X149Y4381D02*
X155Y4381D01*
X177Y4381D02*
X183Y4381D01*
X211Y4381D02*
X224Y4381D01*
X252Y4381D02*
X258Y4381D01*
X266Y4381D02*
X272Y4381D01*
X354Y4381D02*
X360Y4381D01*
X382Y4381D02*
X388Y4381D01*
X412Y4381D02*
X419Y4381D01*
X426Y4381D02*
X432Y4381D01*
X485Y4381D02*
X491Y4381D01*
X536Y4381D02*
X542Y4381D01*
X47Y4380D02*
X53Y4380D01*
X108Y4380D02*
X122Y4380D01*
X149Y4380D02*
X155Y4380D01*
X177Y4380D02*
X183Y4380D01*
X211Y4380D02*
X224Y4380D01*
X252Y4380D02*
X258Y4380D01*
X266Y4380D02*
X272Y4380D01*
X354Y4380D02*
X360Y4380D01*
X382Y4380D02*
X388Y4380D01*
X413Y4380D02*
X420Y4380D01*
X425Y4380D02*
X432Y4380D01*
X485Y4380D02*
X491Y4380D01*
X536Y4380D02*
X542Y4380D01*
X47Y4379D02*
X53Y4379D01*
X109Y4379D02*
X121Y4379D01*
X149Y4379D02*
X155Y4379D01*
X177Y4379D02*
X183Y4379D01*
X211Y4379D02*
X224Y4379D01*
X252Y4379D02*
X258Y4379D01*
X266Y4379D02*
X272Y4379D01*
X354Y4379D02*
X361Y4379D01*
X382Y4379D02*
X388Y4379D01*
X413Y4379D02*
X420Y4379D01*
X425Y4379D02*
X432Y4379D01*
X484Y4379D02*
X491Y4379D01*
X536Y4379D02*
X542Y4379D01*
X47Y4378D02*
X53Y4378D01*
X109Y4378D02*
X121Y4378D01*
X149Y4378D02*
X155Y4378D01*
X177Y4378D02*
X183Y4378D01*
X212Y4378D02*
X223Y4378D01*
X252Y4378D02*
X258Y4378D01*
X266Y4378D02*
X272Y4378D01*
X355Y4378D02*
X361Y4378D01*
X382Y4378D02*
X388Y4378D01*
X414Y4378D02*
X420Y4378D01*
X424Y4378D02*
X431Y4378D01*
X484Y4378D02*
X490Y4378D01*
X536Y4378D02*
X542Y4378D01*
X47Y4377D02*
X53Y4377D01*
X110Y4377D02*
X120Y4377D01*
X149Y4377D02*
X155Y4377D01*
X177Y4377D02*
X183Y4377D01*
X213Y4377D02*
X222Y4377D01*
X252Y4377D02*
X258Y4377D01*
X266Y4377D02*
X272Y4377D01*
X355Y4377D02*
X362Y4377D01*
X382Y4377D02*
X388Y4377D01*
X414Y4377D02*
X421Y4377D01*
X424Y4377D02*
X431Y4377D01*
X483Y4377D02*
X490Y4377D01*
X536Y4377D02*
X542Y4377D01*
X47Y4376D02*
X53Y4376D01*
X149Y4376D02*
X155Y4376D01*
X177Y4376D02*
X183Y4376D01*
X252Y4376D02*
X258Y4376D01*
X266Y4376D02*
X272Y4376D01*
X355Y4376D02*
X363Y4376D01*
X382Y4376D02*
X388Y4376D01*
X415Y4376D02*
X421Y4376D01*
X423Y4376D02*
X430Y4376D01*
X482Y4376D02*
X490Y4376D01*
X536Y4376D02*
X542Y4376D01*
X47Y4375D02*
X53Y4375D01*
X149Y4375D02*
X155Y4375D01*
X177Y4375D02*
X183Y4375D01*
X252Y4375D02*
X258Y4375D01*
X266Y4375D02*
X272Y4375D01*
X356Y4375D02*
X365Y4375D01*
X382Y4375D02*
X388Y4375D01*
X415Y4375D02*
X430Y4375D01*
X480Y4375D02*
X489Y4375D01*
X536Y4375D02*
X542Y4375D01*
X47Y4374D02*
X79Y4374D01*
X149Y4374D02*
X183Y4374D01*
X252Y4374D02*
X284Y4374D01*
X356Y4374D02*
X388Y4374D01*
X415Y4374D02*
X429Y4374D01*
X458Y4374D02*
X489Y4374D01*
X536Y4374D02*
X542Y4374D01*
X47Y4373D02*
X80Y4373D01*
X149Y4373D02*
X183Y4373D01*
X252Y4373D02*
X285Y4373D01*
X357Y4373D02*
X388Y4373D01*
X416Y4373D02*
X429Y4373D01*
X457Y4373D02*
X488Y4373D01*
X536Y4373D02*
X542Y4373D01*
X47Y4372D02*
X81Y4372D01*
X150Y4372D02*
X183Y4372D01*
X252Y4372D02*
X286Y4372D01*
X358Y4372D02*
X388Y4372D01*
X416Y4372D02*
X428Y4372D01*
X457Y4372D02*
X487Y4372D01*
X536Y4372D02*
X542Y4372D01*
X48Y4371D02*
X81Y4371D01*
X150Y4371D02*
X182Y4371D01*
X252Y4371D02*
X286Y4371D01*
X359Y4371D02*
X388Y4371D01*
X417Y4371D02*
X428Y4371D01*
X456Y4371D02*
X486Y4371D01*
X536Y4371D02*
X542Y4371D01*
X48Y4370D02*
X81Y4370D01*
X151Y4370D02*
X182Y4370D01*
X252Y4370D02*
X286Y4370D01*
X360Y4370D02*
X388Y4370D01*
X417Y4370D02*
X428Y4370D01*
X457Y4370D02*
X485Y4370D01*
X536Y4370D02*
X542Y4370D01*
X49Y4369D02*
X80Y4369D01*
X152Y4369D02*
X181Y4369D01*
X252Y4369D02*
X285Y4369D01*
X362Y4369D02*
X388Y4369D01*
X418Y4369D02*
X427Y4369D01*
X457Y4369D02*
X483Y4369D01*
X536Y4369D02*
X541Y4369D01*
X51Y4368D02*
X79Y4368D01*
X153Y4368D02*
X179Y4368D01*
X253Y4368D02*
X284Y4368D01*
X364Y4368D02*
X388Y4368D01*
X419Y4368D02*
X426Y4368D01*
X458Y4368D02*
X481Y4368D01*
X537Y4368D02*
X540Y4368D01*
X305Y4367D02*
X335Y4367D01*
X304Y4366D02*
X336Y4366D01*
X303Y4365D02*
X337Y4365D01*
X303Y4364D02*
X337Y4364D01*
X303Y4363D02*
X337Y4363D01*
X303Y4362D02*
X337Y4362D01*
X304Y4361D02*
X336Y4361D01*
D02*
G04 End of Copper0*
M02*