G04 MADE WITH FRITZING*
G04 WWW.FRITZING.ORG*
G04 DOUBLE SIDED*
G04 HOLES PLATED*
G04 CONTOUR ON CENTER OF CONTOUR VECTOR*
%ASAXBY*%
%FSLAX23Y23*%
%MOIN*%
%OFA0B0*%
%SFA1.0B1.0*%
%ADD10C,0.088000*%
%ADD11C,0.085000*%
%ADD12C,0.089370*%
%ADD13C,0.084000*%
%ADD14C,0.035000*%
%ADD15R,0.089370X0.089370*%
%ADD16R,0.085000X0.085000*%
%ADD17R,0.001000X0.001000*%
%LNMASK1*%
G90*
G70*
G54D10*
X237Y3210D03*
X237Y3110D03*
X237Y3010D03*
X237Y2910D03*
X237Y2810D03*
X458Y2330D03*
X558Y2330D03*
X658Y2330D03*
X758Y2330D03*
X858Y2330D03*
X958Y2330D03*
X1058Y2330D03*
X458Y2330D03*
X558Y2330D03*
X658Y2330D03*
X758Y2330D03*
X858Y2330D03*
X958Y2330D03*
X1058Y2330D03*
X1058Y2430D03*
X958Y2430D03*
X858Y2430D03*
X758Y2430D03*
X658Y2430D03*
X558Y2430D03*
X458Y2430D03*
G54D11*
X330Y2841D03*
X580Y2841D03*
X328Y2748D03*
X593Y2748D03*
G54D10*
X237Y2109D03*
X237Y2009D03*
X237Y1909D03*
X237Y1809D03*
X237Y1709D03*
X237Y1609D03*
X237Y1509D03*
X237Y1409D03*
X237Y2109D03*
X237Y2009D03*
X237Y1909D03*
X237Y1809D03*
X237Y1709D03*
X237Y1609D03*
X237Y1509D03*
X237Y1409D03*
X337Y1409D03*
X337Y1509D03*
X337Y1609D03*
X337Y1709D03*
X337Y1809D03*
X337Y1909D03*
X337Y2009D03*
X337Y2109D03*
G54D12*
X89Y762D03*
X389Y762D03*
X89Y662D03*
X389Y662D03*
X89Y562D03*
X389Y562D03*
X89Y462D03*
X389Y462D03*
X89Y362D03*
X389Y362D03*
X89Y262D03*
X389Y262D03*
X89Y162D03*
X389Y162D03*
G54D10*
X292Y2295D03*
X292Y2395D03*
X292Y2495D03*
X292Y2595D03*
X292Y2295D03*
X292Y2395D03*
X292Y2495D03*
X292Y2595D03*
X192Y2595D03*
X192Y2495D03*
X192Y2395D03*
X192Y2295D03*
G54D11*
X577Y1494D03*
X341Y857D03*
G54D13*
X1226Y4291D03*
X1176Y4216D03*
X1126Y4291D03*
X1226Y4291D03*
X1176Y4216D03*
X1126Y4291D03*
G54D11*
X778Y348D03*
X1203Y1336D03*
G54D13*
X1244Y3701D03*
X1194Y3626D03*
X1144Y3701D03*
X1244Y3701D03*
X1194Y3626D03*
X1144Y3701D03*
G54D11*
X1208Y1232D03*
X777Y454D03*
G54D13*
X1116Y1747D03*
X1166Y1822D03*
X1216Y1747D03*
X1116Y1747D03*
X1166Y1822D03*
X1216Y1747D03*
G54D11*
X869Y3081D03*
X656Y561D03*
G54D13*
X1242Y3007D03*
X1192Y2932D03*
X1142Y3007D03*
X1242Y3007D03*
X1192Y2932D03*
X1142Y3007D03*
G54D11*
X897Y3295D03*
X1213Y1129D03*
X1329Y3796D03*
X1117Y4008D03*
X914Y3403D03*
X1306Y1339D03*
X1337Y3181D03*
X1124Y3393D03*
X232Y859D03*
X472Y1493D03*
X1350Y1989D03*
X1050Y1989D03*
X1237Y2246D03*
X1237Y2546D03*
X1143Y4121D03*
X1355Y3909D03*
X1140Y3504D03*
X1352Y3291D03*
X1071Y1900D03*
X1371Y1900D03*
X1196Y2840D03*
G54D14*
X1381Y2604D03*
G54D11*
X403Y943D03*
X103Y943D03*
X399Y1031D03*
X99Y1031D03*
X401Y1129D03*
X101Y1129D03*
X398Y1223D03*
X98Y1223D03*
X1106Y937D03*
X806Y937D03*
X1106Y1037D03*
X806Y1037D03*
X1106Y1137D03*
X806Y1137D03*
X1106Y1237D03*
X806Y1237D03*
X1106Y1337D03*
X806Y1337D03*
X1106Y1437D03*
X806Y1437D03*
X1106Y1537D03*
X806Y1537D03*
X882Y758D03*
X1182Y758D03*
X882Y658D03*
X1182Y658D03*
X882Y558D03*
X1182Y558D03*
X882Y458D03*
X1182Y458D03*
X882Y358D03*
X1182Y358D03*
X882Y258D03*
X1182Y258D03*
X882Y158D03*
X1182Y158D03*
G54D10*
X497Y228D03*
X497Y328D03*
X497Y428D03*
X497Y528D03*
X947Y2128D03*
X1047Y2128D03*
X1147Y2128D03*
X1247Y2128D03*
X1347Y2128D03*
X497Y753D03*
X497Y853D03*
X497Y953D03*
X497Y1053D03*
X497Y1153D03*
G54D15*
X89Y762D03*
G54D16*
X1106Y937D03*
X882Y758D03*
G54D17*
X1373Y2646D02*
X1387Y2646D01*
X1368Y2645D02*
X1391Y2645D01*
X1365Y2644D02*
X1394Y2644D01*
X1363Y2643D02*
X1397Y2643D01*
X1361Y2642D02*
X1399Y2642D01*
X1359Y2641D02*
X1401Y2641D01*
X1357Y2640D02*
X1402Y2640D01*
X1356Y2639D02*
X1404Y2639D01*
X1355Y2638D02*
X1405Y2638D01*
X1353Y2637D02*
X1406Y2637D01*
X1352Y2636D02*
X1407Y2636D01*
X1351Y2635D02*
X1408Y2635D01*
X1350Y2634D02*
X1410Y2634D01*
X1349Y2633D02*
X1411Y2633D01*
X1348Y2632D02*
X1411Y2632D01*
X1347Y2631D02*
X1412Y2631D01*
X1347Y2630D02*
X1413Y2630D01*
X1346Y2629D02*
X1414Y2629D01*
X1345Y2628D02*
X1414Y2628D01*
X1344Y2627D02*
X1415Y2627D01*
X1344Y2626D02*
X1416Y2626D01*
X1343Y2625D02*
X1416Y2625D01*
X1343Y2624D02*
X1417Y2624D01*
X1342Y2623D02*
X1417Y2623D01*
X1342Y2622D02*
X1418Y2622D01*
X1341Y2621D02*
X1418Y2621D01*
X1341Y2620D02*
X1419Y2620D01*
X1341Y2619D02*
X1419Y2619D01*
X1340Y2618D02*
X1419Y2618D01*
X1340Y2590D02*
X1419Y2590D01*
X1341Y2589D02*
X1419Y2589D01*
X1341Y2588D02*
X1418Y2588D01*
X1342Y2587D02*
X1418Y2587D01*
X1342Y2586D02*
X1418Y2586D01*
X1343Y2585D02*
X1417Y2585D01*
X1343Y2584D02*
X1417Y2584D01*
X1344Y2583D02*
X1416Y2583D01*
X1344Y2582D02*
X1415Y2582D01*
X1345Y2581D02*
X1415Y2581D01*
X1345Y2580D02*
X1414Y2580D01*
X1346Y2579D02*
X1413Y2579D01*
X1347Y2578D02*
X1413Y2578D01*
X1348Y2577D02*
X1412Y2577D01*
X1349Y2576D02*
X1411Y2576D01*
X1350Y2575D02*
X1410Y2575D01*
X1351Y2574D02*
X1409Y2574D01*
X1352Y2573D02*
X1408Y2573D01*
X1353Y2572D02*
X1407Y2572D01*
X1354Y2571D02*
X1406Y2571D01*
X1355Y2570D02*
X1404Y2570D01*
X1357Y2569D02*
X1403Y2569D01*
X1358Y2568D02*
X1401Y2568D01*
X1360Y2567D02*
X1400Y2567D01*
X1362Y2566D02*
X1398Y2566D01*
X1364Y2565D02*
X1395Y2565D01*
X1367Y2564D02*
X1393Y2564D01*
X1370Y2563D02*
X1389Y2563D01*
X1376Y2562D02*
X1383Y2562D01*
D02*
G04 End of Mask1*
M02*