; NON-PLATED HOLES START AT T1
; THROUGH (PLATED) HOLES START AT T100
M48
INCH
T100C0.038889
T101C0.035000
T102C0.032000
T103C0.038000
T104C0.039370
%
T100
X010081Y037997
X006081Y041997
X004081Y041997
X010081Y029997
X004081Y033997
X007081Y041997
X010081Y030997
X005081Y033997
X006081Y038997
X004081Y038997
X007095Y039997
X010081Y035997
X007095Y040997
X004081Y031997
X010081Y041997
X006081Y036997
X004081Y036997
X007095Y037997
X010081Y033997
X010081Y038997
X006081Y042997
X004081Y042997
X004081Y034997
X007095Y035997
X005081Y042997
X007081Y042997
X009081Y042997
X010081Y031997
X005081Y034997
X006081Y039997
X008081Y042997
X004081Y039997
X010081Y036997
X006081Y040997
X004081Y040997
X004081Y032997
X010081Y042997
X005081Y032997
X006081Y037997
X004081Y037997
X007095Y038997
X010081Y034997
X004081Y029997
X010081Y039997
X004081Y030997
X010081Y040997
X005081Y030997
X006081Y035997
X004081Y035997
X007095Y036997
X010081Y032997
T101
X011429Y041211
X003990Y010306
X013714Y019004
X007805Y003003
X005800Y028414
X009261Y032935
X008731Y031938
X003277Y027480
X010496Y019887
X013366Y031813
X013132Y011324
X001026Y009431
X003300Y028414
X011402Y035035
X013496Y019887
X011821Y007575
X006555Y005614
X012963Y025068
X004026Y009431
X005925Y027480
X013550Y039090
X011059Y015367
X013523Y032914
X011821Y006575
X011244Y033934
X011059Y014367
X011821Y005575
X008821Y007575
X013294Y037960
X011059Y013367
X011821Y004575
X012027Y013345
X008059Y015367
X008821Y006575
X010841Y027189
X011059Y009367
X004715Y014932
X012076Y012296
X011059Y012367
X011821Y003575
X008059Y014367
X008821Y005575
X002315Y008587
X000975Y012232
X011173Y040081
X011059Y011367
X011821Y002575
X008059Y013367
X008821Y004575
X013655Y026638
X008703Y033836
X008059Y009367
X011059Y010367
X011821Y001575
X003975Y012232
X008059Y012367
X008821Y003575
X010994Y028023
X005771Y014937
X001013Y011290
X008059Y011367
X008821Y002575
X012944Y013364
X000990Y010306
X010714Y019004
X007715Y004065
X004013Y011290
X008059Y010367
X003410Y008565
X008821Y001575
T102
X011261Y042912
X011659Y018217
X012261Y042912
X011159Y017467
X012159Y017467
X011424Y030071
X012424Y030071
X011761Y042162
X011924Y029321
X011941Y036259
X011441Y037009
X012441Y037009
T103
X004972Y007530
X002445Y014687
X004972Y010530
X011472Y021280
X003445Y018687
X010283Y022851
X002445Y013687
X003445Y017687
X007283Y023851
X003445Y020687
X001919Y026507
X003445Y016687
X007283Y022851
X001919Y025507
X003445Y015687
X011283Y023851
X001919Y024507
X003445Y014687
X012472Y021280
X005283Y023851
X011283Y022851
X001919Y023507
X003445Y013687
X005283Y022851
X008283Y023851
X004972Y005280
X002919Y026507
X009472Y021280
X002445Y019687
X008283Y022851
X004972Y004280
X002919Y025507
X010472Y021280
X002370Y029095
X002445Y018687
X004972Y003280
X002370Y032095
X002919Y024507
X002370Y028095
X013472Y021280
X002445Y017687
X004972Y002280
X002370Y031095
X006283Y023851
X002445Y020687
X002919Y023507
X004972Y009530
X002445Y016687
X002370Y030095
X006283Y022851
X009283Y023851
X004972Y008530
X002445Y015687
X004972Y011530
X003445Y019687
X010283Y023851
X009283Y022851
T104
X000887Y006622
X003887Y004622
X000887Y007622
X000887Y001622
X003887Y005622
X000887Y002622
X003887Y006622
X000887Y003622
X003887Y007622
X003887Y001622
X000887Y004622
X003887Y002622
X000887Y005622
X003887Y003622
T00
M30
