G04 MADE WITH FRITZING*
G04 WWW.FRITZING.ORG*
G04 DOUBLE SIDED*
G04 HOLES PLATED*
G04 CONTOUR ON CENTER OF CONTOUR VECTOR*
%ASAXBY*%
%FSLAX23Y23*%
%MOIN*%
%OFA0B0*%
%SFA1.0B1.0*%
%ADD10C,0.078000*%
%ADD11C,0.086614*%
%ADD12C,0.086555*%
%ADD13C,0.070232*%
%ADD14C,0.039370*%
%ADD15R,0.236220X0.355556*%
%ADD16R,0.086614X0.086614*%
%ADD17C,0.024000*%
%ADD18C,0.006000*%
%ADD19C,0.012000*%
%ADD20C,0.008000*%
%ADD21R,0.001000X0.001000*%
%LNCOPPER0*%
G90*
G70*
G54D10*
X139Y2963D03*
X139Y2863D03*
X139Y2763D03*
X139Y2663D03*
X139Y2563D03*
X139Y2463D03*
X139Y2363D03*
X139Y2963D03*
X139Y2863D03*
X139Y2763D03*
X139Y2663D03*
X139Y2563D03*
X139Y2463D03*
X139Y2363D03*
X239Y2363D03*
X239Y2463D03*
X239Y2563D03*
X239Y2663D03*
X239Y2763D03*
X239Y2863D03*
X239Y2963D03*
G54D11*
X191Y3564D03*
G54D12*
X193Y3237D03*
G54D13*
X193Y3134D03*
G54D14*
X72Y4735D03*
X189Y4691D03*
X317Y4180D03*
X89Y3813D03*
X83Y4202D03*
X94Y4469D03*
X228Y4002D03*
X286Y3069D03*
X306Y4657D03*
X272Y3680D03*
X50Y3985D03*
X228Y4457D03*
X133Y4241D03*
G54D15*
X124Y2017D03*
X128Y1357D03*
X129Y678D03*
G54D16*
X191Y3564D03*
G54D17*
X28Y2187D02*
X20Y2598D01*
D02*
X20Y2598D02*
X112Y2649D01*
D02*
X124Y2017D02*
X28Y2187D01*
D02*
X231Y1365D02*
X224Y1513D01*
D02*
X320Y2409D02*
X264Y2446D01*
D02*
X317Y1676D02*
X320Y2409D01*
D02*
X224Y1513D02*
X317Y1676D01*
D02*
X128Y1357D02*
X231Y1365D01*
D02*
X358Y2563D02*
X262Y2644D01*
D02*
X357Y961D02*
X358Y2563D01*
D02*
X256Y874D02*
X357Y961D01*
D02*
X240Y850D02*
X256Y874D01*
D02*
X23Y2826D02*
X112Y2777D01*
D02*
X23Y3506D02*
X23Y2826D01*
D02*
X151Y3550D02*
X23Y3506D01*
D02*
X69Y2891D02*
X72Y3057D01*
D02*
X72Y3057D02*
X163Y3115D01*
D02*
X111Y2874D02*
X69Y2891D01*
G54D18*
D02*
X189Y3028D02*
X189Y2620D01*
D02*
X274Y3063D02*
X189Y3028D01*
D02*
X189Y2620D02*
X223Y2581D01*
G54D17*
D02*
X311Y3907D02*
X292Y3788D01*
D02*
X344Y3691D02*
X353Y3157D01*
D02*
X353Y3157D02*
X298Y3084D01*
D02*
X292Y3788D02*
X344Y3691D01*
D02*
X240Y3988D02*
X311Y3907D01*
D02*
X211Y3757D02*
X226Y3983D01*
D02*
X156Y3674D02*
X211Y3757D01*
D02*
X97Y3796D02*
X156Y3674D01*
D02*
X94Y4450D02*
X84Y4221D01*
D02*
X171Y4697D02*
X90Y4728D01*
D02*
X150Y4307D02*
X278Y4380D01*
D02*
X278Y4380D02*
X313Y4198D01*
D02*
X101Y4451D02*
X150Y4307D01*
D02*
X181Y4673D02*
X102Y4486D01*
G54D19*
D02*
X189Y4074D02*
X89Y4080D01*
D02*
X228Y4113D02*
X178Y4224D01*
D02*
X178Y4224D02*
X189Y4074D01*
D02*
X139Y4007D02*
X92Y3826D01*
D02*
X89Y4080D02*
X139Y4007D01*
D02*
X306Y4172D02*
X228Y4113D01*
G54D17*
D02*
X261Y4546D02*
X299Y4640D01*
D02*
X112Y4477D02*
X261Y4546D01*
G54D19*
D02*
X264Y3690D02*
X58Y3974D01*
G54D20*
D02*
X222Y4445D02*
X139Y4253D01*
G54D21*
X228Y417D02*
X232Y417D01*
X327Y417D02*
X331Y417D01*
X225Y416D02*
X235Y416D01*
X324Y416D02*
X334Y416D01*
X223Y415D02*
X236Y415D01*
X323Y415D02*
X336Y415D01*
X222Y414D02*
X238Y414D01*
X322Y414D02*
X337Y414D01*
X221Y413D02*
X239Y413D01*
X320Y413D02*
X338Y413D01*
X220Y412D02*
X240Y412D01*
X320Y412D02*
X339Y412D01*
X219Y411D02*
X241Y411D01*
X319Y411D02*
X340Y411D01*
X219Y410D02*
X242Y410D01*
X318Y410D02*
X340Y410D01*
X218Y409D02*
X244Y409D01*
X318Y409D02*
X341Y409D01*
X218Y408D02*
X245Y408D01*
X318Y408D02*
X341Y408D01*
X218Y407D02*
X246Y407D01*
X317Y407D02*
X341Y407D01*
X218Y406D02*
X247Y406D01*
X317Y406D02*
X341Y406D01*
X217Y405D02*
X248Y405D01*
X317Y405D02*
X341Y405D01*
X217Y404D02*
X249Y404D01*
X317Y404D02*
X341Y404D01*
X218Y403D02*
X251Y403D01*
X317Y403D02*
X341Y403D01*
X218Y402D02*
X252Y402D01*
X317Y402D02*
X341Y402D01*
X218Y401D02*
X253Y401D01*
X317Y401D02*
X341Y401D01*
X218Y400D02*
X254Y400D01*
X317Y400D02*
X341Y400D01*
X219Y399D02*
X255Y399D01*
X317Y399D02*
X341Y399D01*
X219Y398D02*
X256Y398D01*
X317Y398D02*
X341Y398D01*
X220Y397D02*
X258Y397D01*
X317Y397D02*
X341Y397D01*
X221Y396D02*
X259Y396D01*
X317Y396D02*
X341Y396D01*
X222Y395D02*
X260Y395D01*
X317Y395D02*
X341Y395D01*
X223Y394D02*
X261Y394D01*
X317Y394D02*
X341Y394D01*
X224Y393D02*
X262Y393D01*
X317Y393D02*
X341Y393D01*
X225Y392D02*
X263Y392D01*
X317Y392D02*
X341Y392D01*
X226Y391D02*
X265Y391D01*
X317Y391D02*
X341Y391D01*
X228Y390D02*
X266Y390D01*
X317Y390D02*
X341Y390D01*
X229Y389D02*
X267Y389D01*
X317Y389D02*
X341Y389D01*
X230Y388D02*
X268Y388D01*
X317Y388D02*
X341Y388D01*
X231Y387D02*
X269Y387D01*
X317Y387D02*
X341Y387D01*
X232Y386D02*
X270Y386D01*
X317Y386D02*
X341Y386D01*
X233Y385D02*
X272Y385D01*
X317Y385D02*
X341Y385D01*
X235Y384D02*
X273Y384D01*
X317Y384D02*
X341Y384D01*
X236Y383D02*
X274Y383D01*
X317Y383D02*
X341Y383D01*
X237Y382D02*
X275Y382D01*
X317Y382D02*
X341Y382D01*
X238Y381D02*
X276Y381D01*
X317Y381D02*
X341Y381D01*
X239Y380D02*
X277Y380D01*
X317Y380D02*
X341Y380D01*
X240Y379D02*
X279Y379D01*
X317Y379D02*
X341Y379D01*
X242Y378D02*
X280Y378D01*
X317Y378D02*
X341Y378D01*
X243Y377D02*
X281Y377D01*
X317Y377D02*
X341Y377D01*
X244Y376D02*
X282Y376D01*
X317Y376D02*
X341Y376D01*
X245Y375D02*
X283Y375D01*
X317Y375D02*
X341Y375D01*
X246Y374D02*
X284Y374D01*
X317Y374D02*
X341Y374D01*
X247Y373D02*
X286Y373D01*
X317Y373D02*
X341Y373D01*
X249Y372D02*
X287Y372D01*
X317Y372D02*
X341Y372D01*
X250Y371D02*
X288Y371D01*
X317Y371D02*
X341Y371D01*
X251Y370D02*
X289Y370D01*
X317Y370D02*
X341Y370D01*
X252Y369D02*
X290Y369D01*
X317Y369D02*
X341Y369D01*
X253Y368D02*
X291Y368D01*
X317Y368D02*
X341Y368D01*
X254Y367D02*
X293Y367D01*
X317Y367D02*
X341Y367D01*
X256Y366D02*
X294Y366D01*
X317Y366D02*
X341Y366D01*
X257Y365D02*
X295Y365D01*
X317Y365D02*
X341Y365D01*
X258Y364D02*
X296Y364D01*
X317Y364D02*
X341Y364D01*
X259Y363D02*
X297Y363D01*
X317Y363D02*
X341Y363D01*
X260Y362D02*
X298Y362D01*
X317Y362D02*
X341Y362D01*
X261Y361D02*
X300Y361D01*
X317Y361D02*
X341Y361D01*
X263Y360D02*
X301Y360D01*
X317Y360D02*
X341Y360D01*
X264Y359D02*
X302Y359D01*
X317Y359D02*
X341Y359D01*
X265Y358D02*
X303Y358D01*
X317Y358D02*
X341Y358D01*
X266Y357D02*
X304Y357D01*
X317Y357D02*
X341Y357D01*
X267Y356D02*
X305Y356D01*
X317Y356D02*
X341Y356D01*
X268Y355D02*
X307Y355D01*
X317Y355D02*
X341Y355D01*
X270Y354D02*
X308Y354D01*
X317Y354D02*
X341Y354D01*
X271Y353D02*
X309Y353D01*
X317Y353D02*
X341Y353D01*
X272Y352D02*
X310Y352D01*
X317Y352D02*
X341Y352D01*
X273Y351D02*
X311Y351D01*
X317Y351D02*
X341Y351D01*
X274Y350D02*
X312Y350D01*
X317Y350D02*
X341Y350D01*
X275Y349D02*
X313Y349D01*
X317Y349D02*
X341Y349D01*
X277Y348D02*
X315Y348D01*
X317Y348D02*
X341Y348D01*
X278Y347D02*
X341Y347D01*
X279Y346D02*
X341Y346D01*
X280Y345D02*
X341Y345D01*
X281Y344D02*
X341Y344D01*
X282Y343D02*
X341Y343D01*
X284Y342D02*
X341Y342D01*
X285Y341D02*
X341Y341D01*
X286Y340D02*
X341Y340D01*
X287Y339D02*
X341Y339D01*
X288Y338D02*
X341Y338D01*
X289Y337D02*
X341Y337D01*
X291Y336D02*
X341Y336D01*
X292Y335D02*
X341Y335D01*
X293Y334D02*
X341Y334D01*
X294Y333D02*
X341Y333D01*
X295Y332D02*
X341Y332D01*
X296Y331D02*
X341Y331D01*
X298Y330D02*
X341Y330D01*
X299Y329D02*
X341Y329D01*
X300Y328D02*
X341Y328D01*
X301Y327D02*
X341Y327D01*
X302Y326D02*
X341Y326D01*
X303Y325D02*
X341Y325D01*
X305Y324D02*
X341Y324D01*
X306Y323D02*
X341Y323D01*
X307Y322D02*
X341Y322D01*
X308Y321D02*
X341Y321D01*
X309Y320D02*
X341Y320D01*
X310Y319D02*
X341Y319D01*
X309Y318D02*
X341Y318D01*
X308Y317D02*
X341Y317D01*
X307Y316D02*
X341Y316D01*
X306Y315D02*
X341Y315D01*
X304Y314D02*
X341Y314D01*
X303Y313D02*
X341Y313D01*
X302Y312D02*
X341Y312D01*
X301Y311D02*
X341Y311D01*
X300Y310D02*
X341Y310D01*
X299Y309D02*
X341Y309D01*
X297Y308D02*
X341Y308D01*
X296Y307D02*
X341Y307D01*
X295Y306D02*
X341Y306D01*
X294Y305D02*
X341Y305D01*
X293Y304D02*
X341Y304D01*
X292Y303D02*
X341Y303D01*
X290Y302D02*
X341Y302D01*
X289Y301D02*
X341Y301D01*
X288Y300D02*
X341Y300D01*
X287Y299D02*
X341Y299D01*
X286Y298D02*
X341Y298D01*
X285Y297D02*
X341Y297D01*
X283Y296D02*
X341Y296D01*
X282Y295D02*
X341Y295D01*
X281Y294D02*
X341Y294D01*
X280Y293D02*
X341Y293D01*
X279Y292D02*
X341Y292D01*
X278Y291D02*
X341Y291D01*
X276Y290D02*
X315Y290D01*
X317Y290D02*
X341Y290D01*
X275Y289D02*
X313Y289D01*
X317Y289D02*
X341Y289D01*
X274Y288D02*
X312Y288D01*
X317Y288D02*
X341Y288D01*
X273Y287D02*
X311Y287D01*
X317Y287D02*
X341Y287D01*
X272Y286D02*
X310Y286D01*
X317Y286D02*
X341Y286D01*
X271Y285D02*
X309Y285D01*
X317Y285D02*
X341Y285D01*
X269Y284D02*
X308Y284D01*
X317Y284D02*
X341Y284D01*
X268Y283D02*
X306Y283D01*
X317Y283D02*
X341Y283D01*
X267Y282D02*
X305Y282D01*
X317Y282D02*
X341Y282D01*
X266Y281D02*
X304Y281D01*
X317Y281D02*
X341Y281D01*
X265Y280D02*
X303Y280D01*
X317Y280D02*
X341Y280D01*
X264Y279D02*
X302Y279D01*
X317Y279D02*
X341Y279D01*
X262Y278D02*
X301Y278D01*
X317Y278D02*
X341Y278D01*
X261Y277D02*
X299Y277D01*
X317Y277D02*
X341Y277D01*
X260Y276D02*
X298Y276D01*
X317Y276D02*
X341Y276D01*
X259Y275D02*
X297Y275D01*
X317Y275D02*
X341Y275D01*
X258Y274D02*
X296Y274D01*
X317Y274D02*
X341Y274D01*
X257Y273D02*
X295Y273D01*
X317Y273D02*
X341Y273D01*
X255Y272D02*
X294Y272D01*
X317Y272D02*
X341Y272D01*
X254Y271D02*
X292Y271D01*
X317Y271D02*
X341Y271D01*
X253Y270D02*
X291Y270D01*
X317Y270D02*
X341Y270D01*
X252Y269D02*
X290Y269D01*
X317Y269D02*
X341Y269D01*
X251Y268D02*
X289Y268D01*
X317Y268D02*
X341Y268D01*
X250Y267D02*
X288Y267D01*
X317Y267D02*
X341Y267D01*
X248Y266D02*
X287Y266D01*
X317Y266D02*
X341Y266D01*
X247Y265D02*
X285Y265D01*
X317Y265D02*
X341Y265D01*
X246Y264D02*
X284Y264D01*
X317Y264D02*
X341Y264D01*
X245Y263D02*
X283Y263D01*
X317Y263D02*
X341Y263D01*
X244Y262D02*
X282Y262D01*
X317Y262D02*
X341Y262D01*
X243Y261D02*
X281Y261D01*
X317Y261D02*
X341Y261D01*
X241Y260D02*
X280Y260D01*
X317Y260D02*
X341Y260D01*
X240Y259D02*
X278Y259D01*
X317Y259D02*
X341Y259D01*
X239Y258D02*
X277Y258D01*
X317Y258D02*
X341Y258D01*
X238Y257D02*
X276Y257D01*
X317Y257D02*
X341Y257D01*
X237Y256D02*
X275Y256D01*
X317Y256D02*
X341Y256D01*
X236Y255D02*
X274Y255D01*
X317Y255D02*
X341Y255D01*
X234Y254D02*
X273Y254D01*
X317Y254D02*
X341Y254D01*
X233Y253D02*
X271Y253D01*
X317Y253D02*
X341Y253D01*
X232Y252D02*
X270Y252D01*
X317Y252D02*
X341Y252D01*
X231Y251D02*
X269Y251D01*
X317Y251D02*
X341Y251D01*
X230Y250D02*
X268Y250D01*
X317Y250D02*
X341Y250D01*
X229Y249D02*
X267Y249D01*
X317Y249D02*
X341Y249D01*
X227Y248D02*
X266Y248D01*
X317Y248D02*
X341Y248D01*
X226Y247D02*
X264Y247D01*
X317Y247D02*
X341Y247D01*
X225Y246D02*
X263Y246D01*
X317Y246D02*
X341Y246D01*
X224Y245D02*
X262Y245D01*
X317Y245D02*
X341Y245D01*
X223Y244D02*
X261Y244D01*
X317Y244D02*
X341Y244D01*
X222Y243D02*
X260Y243D01*
X317Y243D02*
X341Y243D01*
X221Y242D02*
X259Y242D01*
X317Y242D02*
X341Y242D01*
X220Y241D02*
X257Y241D01*
X317Y241D02*
X341Y241D01*
X219Y240D02*
X256Y240D01*
X317Y240D02*
X341Y240D01*
X219Y239D02*
X255Y239D01*
X317Y239D02*
X341Y239D01*
X218Y238D02*
X254Y238D01*
X317Y238D02*
X341Y238D01*
X218Y237D02*
X253Y237D01*
X317Y237D02*
X341Y237D01*
X218Y236D02*
X252Y236D01*
X317Y236D02*
X341Y236D01*
X218Y235D02*
X250Y235D01*
X317Y235D02*
X341Y235D01*
X217Y234D02*
X249Y234D01*
X317Y234D02*
X341Y234D01*
X217Y233D02*
X248Y233D01*
X317Y233D02*
X341Y233D01*
X218Y232D02*
X247Y232D01*
X317Y232D02*
X341Y232D01*
X218Y231D02*
X246Y231D01*
X317Y231D02*
X341Y231D01*
X218Y230D02*
X245Y230D01*
X318Y230D02*
X341Y230D01*
X218Y229D02*
X243Y229D01*
X318Y229D02*
X341Y229D01*
X219Y228D02*
X242Y228D01*
X318Y228D02*
X340Y228D01*
X219Y227D02*
X241Y227D01*
X319Y227D02*
X340Y227D01*
X220Y226D02*
X240Y226D01*
X320Y226D02*
X339Y226D01*
X221Y225D02*
X239Y225D01*
X321Y225D02*
X338Y225D01*
X222Y224D02*
X238Y224D01*
X322Y224D02*
X337Y224D01*
X223Y223D02*
X236Y223D01*
X323Y223D02*
X336Y223D01*
X225Y222D02*
X234Y222D01*
X325Y222D02*
X334Y222D01*
X229Y221D02*
X231Y221D01*
X329Y221D02*
X330Y221D01*
X44Y220D02*
X152Y220D01*
X42Y219D02*
X154Y219D01*
X41Y218D02*
X155Y218D01*
X39Y217D02*
X156Y217D01*
X39Y216D02*
X157Y216D01*
X38Y215D02*
X158Y215D01*
X37Y214D02*
X158Y214D01*
X37Y213D02*
X159Y213D01*
X36Y212D02*
X159Y212D01*
X36Y211D02*
X160Y211D01*
X36Y210D02*
X160Y210D01*
X36Y209D02*
X160Y209D01*
X36Y208D02*
X160Y208D01*
X36Y207D02*
X160Y207D01*
X36Y206D02*
X160Y206D01*
X36Y205D02*
X159Y205D01*
X36Y204D02*
X159Y204D01*
X37Y203D02*
X159Y203D01*
X37Y202D02*
X158Y202D01*
X38Y201D02*
X158Y201D01*
X39Y200D02*
X157Y200D01*
X40Y199D02*
X156Y199D01*
X41Y198D02*
X155Y198D01*
X43Y197D02*
X153Y197D01*
X45Y196D02*
X151Y196D01*
D02*
G04 End of Copper0*
M02*