; NON-PLATED HOLES START AT T1
; THROUGH (PLATED) HOLES START AT T100
M48
INCH
T1C0.086614
T2C0.125984
T100C0.015748
T101C0.061867
T102C0.061825
T103C0.038000
T104C0.050165
%
T1
X002444Y000758
T2
X003071Y000770
X002749Y000759
X001944Y033444
X001626Y007535
X003000Y048888
X001615Y014370
X002750Y048897
X001537Y020962
X002416Y048897
T100
X002861Y030481
X003055Y046370
X001333Y042203
X000499Y039647
X000888Y037925
X002277Y039814
X000944Y044481
X003166Y041592
X000833Y041814
X001888Y046703
X002277Y044370
X000722Y047147
X002722Y036592
T101
X001909Y035437
T102
X001934Y032161
T103
X001388Y029425
X001388Y026425
X001388Y023425
X002388Y027425
X002388Y024425
X001388Y028425
X001388Y025425
X002388Y029425
X002388Y026425
X002388Y023425
X001388Y027425
X001388Y024425
X002388Y028425
X002388Y025425
T104
X001934Y031137
T00
M30
