; NON-PLATED HOLES START AT T1
; THROUGH (PLATED) HOLES START AT T100
M48
INCH
T1C0.086614
T2C0.125984
T100C0.015748
T101C0.061867
T102C0.061825
T103C0.038000
T104C0.050165
%
T1
X002444Y000962
T2
X003071Y000974
X001537Y021166
X001944Y033648
X001626Y007739
X002750Y049101
X003000Y049092
X002416Y049101
X001615Y014574
X002749Y000963
T100
X002722Y036796
X000888Y038129
X000833Y042018
X002861Y030685
X003055Y046574
X001333Y042407
X002277Y040018
X000722Y047351
X000944Y044685
X003166Y041796
X001888Y046907
X002277Y044574
X000499Y039851
T101
X001909Y035641
T102
X001934Y032365
T103
X002388Y024629
X001388Y028629
X001388Y025629
X002388Y029629
X002388Y026629
X002388Y023629
X001388Y027629
X001388Y024629
X002388Y028629
X002388Y025629
X001388Y029629
X001388Y026629
X001388Y023629
X002388Y027629
T104
X001934Y031341
T00
M30
