G04 MADE WITH FRITZING*
G04 WWW.FRITZING.ORG*
G04 DOUBLE SIDED*
G04 HOLES PLATED*
G04 CONTOUR ON CENTER OF CONTOUR VECTOR*
%ASAXBY*%
%FSLAX23Y23*%
%MOIN*%
%OFA0B0*%
%SFA1.0B1.0*%
%ADD10C,0.078000*%
%ADD11C,0.086614*%
%ADD12C,0.086555*%
%ADD13C,0.070232*%
%ADD14C,0.039370*%
%ADD15R,0.236220X0.355556*%
%ADD16R,0.086614X0.086614*%
%ADD17C,0.024000*%
%ADD18C,0.006000*%
%ADD19C,0.012000*%
%ADD20C,0.008000*%
%ADD21R,0.001000X0.001000*%
%LNCOPPER0*%
G90*
G70*
G54D10*
X139Y2943D03*
X139Y2843D03*
X139Y2743D03*
X139Y2643D03*
X139Y2543D03*
X139Y2443D03*
X139Y2343D03*
X139Y2943D03*
X139Y2843D03*
X139Y2743D03*
X139Y2643D03*
X139Y2543D03*
X139Y2443D03*
X139Y2343D03*
X239Y2343D03*
X239Y2443D03*
X239Y2543D03*
X239Y2643D03*
X239Y2743D03*
X239Y2843D03*
X239Y2943D03*
G54D11*
X191Y3544D03*
G54D12*
X193Y3216D03*
G54D13*
X193Y3114D03*
G54D14*
X72Y4715D03*
X189Y4670D03*
X317Y4159D03*
X89Y3793D03*
X83Y4181D03*
X94Y4448D03*
X228Y3981D03*
X286Y3048D03*
X306Y4637D03*
X272Y3659D03*
X50Y3965D03*
X228Y4437D03*
X133Y4220D03*
G54D15*
X124Y1996D03*
X128Y1337D03*
X129Y657D03*
G54D16*
X191Y3544D03*
G54D17*
X28Y2167D02*
X20Y2578D01*
D02*
X20Y2578D02*
X112Y2628D01*
D02*
X124Y1996D02*
X28Y2167D01*
D02*
X231Y1344D02*
X224Y1493D01*
D02*
X320Y2389D02*
X264Y2426D01*
D02*
X317Y1656D02*
X320Y2389D01*
D02*
X224Y1493D02*
X317Y1656D01*
D02*
X128Y1337D02*
X231Y1344D01*
D02*
X358Y2543D02*
X262Y2623D01*
D02*
X357Y941D02*
X358Y2543D01*
D02*
X256Y854D02*
X357Y941D01*
D02*
X240Y830D02*
X256Y854D01*
D02*
X23Y2806D02*
X112Y2757D01*
D02*
X23Y3486D02*
X23Y2806D01*
D02*
X151Y3530D02*
X23Y3486D01*
D02*
X69Y2870D02*
X72Y3037D01*
D02*
X72Y3037D02*
X163Y3094D01*
D02*
X111Y2854D02*
X69Y2870D01*
G54D18*
D02*
X189Y3007D02*
X189Y2600D01*
D02*
X274Y3043D02*
X189Y3007D01*
D02*
X189Y2600D02*
X223Y2561D01*
G54D17*
D02*
X311Y3887D02*
X292Y3768D01*
D02*
X344Y3670D02*
X353Y3137D01*
D02*
X353Y3137D02*
X298Y3063D01*
D02*
X292Y3768D02*
X344Y3670D01*
D02*
X240Y3967D02*
X311Y3887D01*
D02*
X211Y3737D02*
X226Y3963D01*
D02*
X156Y3654D02*
X211Y3737D01*
D02*
X97Y3775D02*
X156Y3654D01*
D02*
X94Y4429D02*
X84Y4200D01*
D02*
X171Y4677D02*
X90Y4708D01*
D02*
X150Y4287D02*
X278Y4359D01*
D02*
X278Y4359D02*
X313Y4178D01*
D02*
X101Y4430D02*
X150Y4287D01*
D02*
X181Y4653D02*
X102Y4466D01*
G54D19*
D02*
X189Y4054D02*
X89Y4059D01*
D02*
X228Y4093D02*
X178Y4204D01*
D02*
X178Y4204D02*
X189Y4054D01*
D02*
X139Y3987D02*
X92Y3806D01*
D02*
X89Y4059D02*
X139Y3987D01*
D02*
X306Y4151D02*
X228Y4093D01*
G54D17*
D02*
X261Y4526D02*
X299Y4619D01*
D02*
X112Y4456D02*
X261Y4526D01*
G54D19*
D02*
X264Y3670D02*
X58Y3954D01*
G54D20*
D02*
X222Y4425D02*
X139Y4233D01*
G54D21*
X226Y397D02*
X234Y397D01*
X325Y397D02*
X333Y397D01*
X224Y396D02*
X236Y396D01*
X323Y396D02*
X335Y396D01*
X222Y395D02*
X237Y395D01*
X322Y395D02*
X337Y395D01*
X221Y394D02*
X238Y394D01*
X321Y394D02*
X338Y394D01*
X220Y393D02*
X240Y393D01*
X320Y393D02*
X339Y393D01*
X219Y392D02*
X241Y392D01*
X319Y392D02*
X339Y392D01*
X219Y391D02*
X242Y391D01*
X319Y391D02*
X340Y391D01*
X218Y390D02*
X243Y390D01*
X318Y390D02*
X341Y390D01*
X218Y389D02*
X244Y389D01*
X318Y389D02*
X341Y389D01*
X218Y388D02*
X245Y388D01*
X317Y388D02*
X341Y388D01*
X218Y387D02*
X247Y387D01*
X317Y387D02*
X341Y387D01*
X217Y386D02*
X248Y386D01*
X317Y386D02*
X341Y386D01*
X217Y385D02*
X249Y385D01*
X317Y385D02*
X341Y385D01*
X217Y384D02*
X250Y384D01*
X317Y384D02*
X341Y384D01*
X218Y383D02*
X251Y383D01*
X317Y383D02*
X341Y383D01*
X218Y382D02*
X252Y382D01*
X317Y382D02*
X341Y382D01*
X218Y381D02*
X254Y381D01*
X317Y381D02*
X341Y381D01*
X218Y380D02*
X255Y380D01*
X317Y380D02*
X341Y380D01*
X219Y379D02*
X256Y379D01*
X317Y379D02*
X341Y379D01*
X220Y378D02*
X257Y378D01*
X317Y378D02*
X341Y378D01*
X220Y377D02*
X258Y377D01*
X317Y377D02*
X341Y377D01*
X221Y376D02*
X259Y376D01*
X317Y376D02*
X341Y376D01*
X222Y375D02*
X261Y375D01*
X317Y375D02*
X341Y375D01*
X224Y374D02*
X262Y374D01*
X317Y374D02*
X341Y374D01*
X225Y373D02*
X263Y373D01*
X317Y373D02*
X341Y373D01*
X226Y372D02*
X264Y372D01*
X317Y372D02*
X341Y372D01*
X227Y371D02*
X265Y371D01*
X317Y371D02*
X341Y371D01*
X228Y370D02*
X266Y370D01*
X317Y370D02*
X341Y370D01*
X229Y369D02*
X268Y369D01*
X317Y369D02*
X341Y369D01*
X231Y368D02*
X269Y368D01*
X317Y368D02*
X341Y368D01*
X232Y367D02*
X270Y367D01*
X317Y367D02*
X341Y367D01*
X233Y366D02*
X271Y366D01*
X317Y366D02*
X341Y366D01*
X234Y365D02*
X272Y365D01*
X317Y365D02*
X341Y365D01*
X235Y364D02*
X273Y364D01*
X317Y364D02*
X341Y364D01*
X236Y363D02*
X275Y363D01*
X317Y363D02*
X341Y363D01*
X238Y362D02*
X276Y362D01*
X317Y362D02*
X341Y362D01*
X239Y361D02*
X277Y361D01*
X317Y361D02*
X341Y361D01*
X240Y360D02*
X278Y360D01*
X317Y360D02*
X341Y360D01*
X241Y359D02*
X279Y359D01*
X317Y359D02*
X341Y359D01*
X242Y358D02*
X280Y358D01*
X317Y358D02*
X341Y358D01*
X243Y357D02*
X282Y357D01*
X317Y357D02*
X341Y357D01*
X245Y356D02*
X283Y356D01*
X317Y356D02*
X341Y356D01*
X246Y355D02*
X284Y355D01*
X317Y355D02*
X341Y355D01*
X247Y354D02*
X285Y354D01*
X317Y354D02*
X341Y354D01*
X248Y353D02*
X286Y353D01*
X317Y353D02*
X341Y353D01*
X249Y352D02*
X287Y352D01*
X317Y352D02*
X341Y352D01*
X250Y351D02*
X289Y351D01*
X317Y351D02*
X341Y351D01*
X252Y350D02*
X290Y350D01*
X317Y350D02*
X341Y350D01*
X253Y349D02*
X291Y349D01*
X317Y349D02*
X341Y349D01*
X254Y348D02*
X292Y348D01*
X317Y348D02*
X341Y348D01*
X255Y347D02*
X293Y347D01*
X317Y347D02*
X341Y347D01*
X256Y346D02*
X294Y346D01*
X317Y346D02*
X341Y346D01*
X257Y345D02*
X296Y345D01*
X317Y345D02*
X341Y345D01*
X259Y344D02*
X297Y344D01*
X317Y344D02*
X341Y344D01*
X260Y343D02*
X298Y343D01*
X317Y343D02*
X341Y343D01*
X261Y342D02*
X299Y342D01*
X317Y342D02*
X341Y342D01*
X262Y341D02*
X300Y341D01*
X317Y341D02*
X341Y341D01*
X263Y340D02*
X301Y340D01*
X317Y340D02*
X341Y340D01*
X264Y339D02*
X303Y339D01*
X317Y339D02*
X341Y339D01*
X266Y338D02*
X304Y338D01*
X317Y338D02*
X341Y338D01*
X267Y337D02*
X305Y337D01*
X317Y337D02*
X341Y337D01*
X268Y336D02*
X306Y336D01*
X317Y336D02*
X341Y336D01*
X269Y335D02*
X307Y335D01*
X317Y335D02*
X341Y335D01*
X270Y334D02*
X308Y334D01*
X317Y334D02*
X341Y334D01*
X271Y333D02*
X310Y333D01*
X317Y333D02*
X341Y333D01*
X273Y332D02*
X311Y332D01*
X317Y332D02*
X341Y332D01*
X274Y331D02*
X312Y331D01*
X317Y331D02*
X341Y331D01*
X275Y330D02*
X313Y330D01*
X317Y330D02*
X341Y330D01*
X276Y329D02*
X314Y329D01*
X317Y329D02*
X341Y329D01*
X277Y328D02*
X315Y328D01*
X317Y328D02*
X341Y328D01*
X278Y327D02*
X341Y327D01*
X280Y326D02*
X341Y326D01*
X281Y325D02*
X341Y325D01*
X282Y324D02*
X341Y324D01*
X283Y323D02*
X341Y323D01*
X284Y322D02*
X341Y322D01*
X285Y321D02*
X341Y321D01*
X287Y320D02*
X341Y320D01*
X288Y319D02*
X341Y319D01*
X289Y318D02*
X341Y318D01*
X290Y317D02*
X341Y317D01*
X291Y316D02*
X341Y316D01*
X292Y315D02*
X341Y315D01*
X294Y314D02*
X341Y314D01*
X295Y313D02*
X341Y313D01*
X296Y312D02*
X341Y312D01*
X297Y311D02*
X341Y311D01*
X298Y310D02*
X341Y310D01*
X299Y309D02*
X341Y309D01*
X301Y308D02*
X341Y308D01*
X302Y307D02*
X341Y307D01*
X303Y306D02*
X341Y306D01*
X304Y305D02*
X341Y305D01*
X305Y304D02*
X341Y304D01*
X306Y303D02*
X341Y303D01*
X308Y302D02*
X341Y302D01*
X309Y301D02*
X341Y301D01*
X310Y300D02*
X341Y300D01*
X310Y299D02*
X341Y299D01*
X308Y298D02*
X341Y298D01*
X307Y297D02*
X341Y297D01*
X306Y296D02*
X341Y296D01*
X305Y295D02*
X341Y295D01*
X304Y294D02*
X341Y294D01*
X303Y293D02*
X341Y293D01*
X301Y292D02*
X341Y292D01*
X300Y291D02*
X341Y291D01*
X299Y290D02*
X341Y290D01*
X298Y289D02*
X341Y289D01*
X297Y288D02*
X341Y288D01*
X296Y287D02*
X341Y287D01*
X294Y286D02*
X341Y286D01*
X293Y285D02*
X341Y285D01*
X292Y284D02*
X341Y284D01*
X291Y283D02*
X341Y283D01*
X290Y282D02*
X341Y282D01*
X289Y281D02*
X341Y281D01*
X287Y280D02*
X341Y280D01*
X286Y279D02*
X341Y279D01*
X285Y278D02*
X341Y278D01*
X284Y277D02*
X341Y277D01*
X283Y276D02*
X341Y276D01*
X282Y275D02*
X341Y275D01*
X280Y274D02*
X341Y274D01*
X279Y273D02*
X341Y273D01*
X278Y272D02*
X341Y272D01*
X277Y271D02*
X315Y271D01*
X317Y271D02*
X341Y271D01*
X276Y270D02*
X314Y270D01*
X317Y270D02*
X341Y270D01*
X275Y269D02*
X313Y269D01*
X317Y269D02*
X341Y269D01*
X273Y268D02*
X312Y268D01*
X317Y268D02*
X341Y268D01*
X272Y267D02*
X310Y267D01*
X317Y267D02*
X341Y267D01*
X271Y266D02*
X309Y266D01*
X317Y266D02*
X341Y266D01*
X270Y265D02*
X308Y265D01*
X317Y265D02*
X341Y265D01*
X269Y264D02*
X307Y264D01*
X317Y264D02*
X341Y264D01*
X268Y263D02*
X306Y263D01*
X317Y263D02*
X341Y263D01*
X266Y262D02*
X305Y262D01*
X317Y262D02*
X341Y262D01*
X265Y261D02*
X303Y261D01*
X317Y261D02*
X341Y261D01*
X264Y260D02*
X302Y260D01*
X317Y260D02*
X341Y260D01*
X263Y259D02*
X301Y259D01*
X317Y259D02*
X341Y259D01*
X262Y258D02*
X300Y258D01*
X317Y258D02*
X341Y258D01*
X261Y257D02*
X299Y257D01*
X317Y257D02*
X341Y257D01*
X259Y256D02*
X298Y256D01*
X317Y256D02*
X341Y256D01*
X258Y255D02*
X296Y255D01*
X317Y255D02*
X341Y255D01*
X257Y254D02*
X295Y254D01*
X317Y254D02*
X341Y254D01*
X256Y253D02*
X294Y253D01*
X317Y253D02*
X341Y253D01*
X255Y252D02*
X293Y252D01*
X317Y252D02*
X341Y252D01*
X254Y251D02*
X292Y251D01*
X317Y251D02*
X341Y251D01*
X252Y250D02*
X291Y250D01*
X317Y250D02*
X341Y250D01*
X251Y249D02*
X289Y249D01*
X317Y249D02*
X341Y249D01*
X250Y248D02*
X288Y248D01*
X317Y248D02*
X341Y248D01*
X249Y247D02*
X287Y247D01*
X317Y247D02*
X341Y247D01*
X248Y246D02*
X286Y246D01*
X317Y246D02*
X341Y246D01*
X247Y245D02*
X285Y245D01*
X317Y245D02*
X341Y245D01*
X245Y244D02*
X284Y244D01*
X317Y244D02*
X341Y244D01*
X244Y243D02*
X282Y243D01*
X317Y243D02*
X341Y243D01*
X243Y242D02*
X281Y242D01*
X317Y242D02*
X341Y242D01*
X242Y241D02*
X280Y241D01*
X317Y241D02*
X341Y241D01*
X241Y240D02*
X279Y240D01*
X317Y240D02*
X341Y240D01*
X240Y239D02*
X278Y239D01*
X317Y239D02*
X341Y239D01*
X238Y238D02*
X277Y238D01*
X317Y238D02*
X341Y238D01*
X237Y237D02*
X275Y237D01*
X317Y237D02*
X341Y237D01*
X236Y236D02*
X274Y236D01*
X317Y236D02*
X341Y236D01*
X235Y235D02*
X273Y235D01*
X317Y235D02*
X341Y235D01*
X234Y234D02*
X272Y234D01*
X317Y234D02*
X341Y234D01*
X233Y233D02*
X271Y233D01*
X317Y233D02*
X341Y233D01*
X231Y232D02*
X270Y232D01*
X317Y232D02*
X341Y232D01*
X230Y231D02*
X268Y231D01*
X317Y231D02*
X341Y231D01*
X229Y230D02*
X267Y230D01*
X317Y230D02*
X341Y230D01*
X228Y229D02*
X266Y229D01*
X317Y229D02*
X341Y229D01*
X227Y228D02*
X265Y228D01*
X317Y228D02*
X341Y228D01*
X226Y227D02*
X264Y227D01*
X317Y227D02*
X341Y227D01*
X224Y226D02*
X263Y226D01*
X317Y226D02*
X341Y226D01*
X223Y225D02*
X261Y225D01*
X317Y225D02*
X341Y225D01*
X222Y224D02*
X260Y224D01*
X317Y224D02*
X341Y224D01*
X221Y223D02*
X259Y223D01*
X317Y223D02*
X341Y223D01*
X220Y222D02*
X258Y222D01*
X317Y222D02*
X341Y222D01*
X219Y221D02*
X257Y221D01*
X317Y221D02*
X341Y221D01*
X219Y220D02*
X256Y220D01*
X317Y220D02*
X341Y220D01*
X218Y219D02*
X254Y219D01*
X317Y219D02*
X341Y219D01*
X218Y218D02*
X253Y218D01*
X317Y218D02*
X341Y218D01*
X218Y217D02*
X252Y217D01*
X317Y217D02*
X341Y217D01*
X218Y216D02*
X251Y216D01*
X317Y216D02*
X341Y216D01*
X217Y215D02*
X250Y215D01*
X317Y215D02*
X341Y215D01*
X217Y214D02*
X249Y214D01*
X317Y214D02*
X341Y214D01*
X217Y213D02*
X247Y213D01*
X317Y213D02*
X341Y213D01*
X218Y212D02*
X246Y212D01*
X317Y212D02*
X341Y212D01*
X218Y211D02*
X245Y211D01*
X318Y211D02*
X341Y211D01*
X218Y210D02*
X244Y210D01*
X318Y210D02*
X341Y210D01*
X219Y209D02*
X243Y209D01*
X318Y209D02*
X340Y209D01*
X219Y208D02*
X242Y208D01*
X319Y208D02*
X340Y208D01*
X220Y207D02*
X240Y207D01*
X319Y207D02*
X339Y207D01*
X221Y206D02*
X239Y206D01*
X320Y206D02*
X338Y206D01*
X221Y205D02*
X238Y205D01*
X321Y205D02*
X338Y205D01*
X223Y204D02*
X237Y204D01*
X322Y204D02*
X336Y204D01*
X224Y203D02*
X235Y203D01*
X324Y203D02*
X335Y203D01*
X227Y202D02*
X233Y202D01*
X326Y202D02*
X332Y202D01*
X45Y201D02*
X151Y201D01*
X43Y200D02*
X153Y200D01*
X41Y199D02*
X155Y199D01*
X40Y198D02*
X156Y198D01*
X39Y197D02*
X157Y197D01*
X38Y196D02*
X158Y196D01*
X37Y195D02*
X158Y195D01*
X37Y194D02*
X159Y194D01*
X37Y193D02*
X159Y193D01*
X36Y192D02*
X159Y192D01*
X36Y191D02*
X160Y191D01*
X36Y190D02*
X160Y190D01*
X36Y189D02*
X160Y189D01*
X36Y188D02*
X160Y188D01*
X36Y187D02*
X160Y187D01*
X36Y186D02*
X160Y186D01*
X36Y185D02*
X159Y185D01*
X37Y184D02*
X159Y184D01*
X37Y183D02*
X158Y183D01*
X38Y182D02*
X158Y182D01*
X39Y181D02*
X157Y181D01*
X39Y180D02*
X156Y180D01*
X40Y179D02*
X155Y179D01*
X42Y178D02*
X154Y178D01*
X44Y177D02*
X152Y177D01*
D02*
G04 End of Copper0*
M02*