G04 MADE WITH FRITZING*
G04 WWW.FRITZING.ORG*
G04 DOUBLE SIDED*
G04 HOLES PLATED*
G04 CONTOUR ON CENTER OF CONTOUR VECTOR*
%ASAXBY*%
%FSLAX23Y23*%
%MOIN*%
%OFA0B0*%
%SFA1.0B1.0*%
%ADD10C,0.088000*%
%ADD11C,0.085000*%
%ADD12C,0.089370*%
%ADD13C,0.084000*%
%ADD14C,0.035000*%
%ADD15C,0.076667*%
%ADD16R,0.089370X0.089370*%
%ADD17R,0.085000X0.085000*%
%ADD18R,0.001000X0.001000*%
%LNMASK0*%
G90*
G70*
G54D10*
X237Y3210D03*
X237Y3110D03*
X237Y3010D03*
X237Y2910D03*
X237Y2810D03*
X528Y2285D03*
X628Y2285D03*
X728Y2285D03*
X828Y2285D03*
X928Y2285D03*
X1028Y2285D03*
X1128Y2285D03*
X528Y2285D03*
X628Y2285D03*
X728Y2285D03*
X828Y2285D03*
X928Y2285D03*
X1028Y2285D03*
X1128Y2285D03*
X1128Y2385D03*
X1028Y2385D03*
X928Y2385D03*
X828Y2385D03*
X728Y2385D03*
X628Y2385D03*
X528Y2385D03*
G54D11*
X330Y2841D03*
X580Y2841D03*
X328Y2748D03*
X593Y2748D03*
G54D10*
X245Y2069D03*
X245Y1969D03*
X245Y1869D03*
X245Y1769D03*
X245Y1669D03*
X245Y1569D03*
X245Y1469D03*
X245Y1369D03*
X245Y2069D03*
X245Y1969D03*
X245Y1869D03*
X245Y1769D03*
X245Y1669D03*
X245Y1569D03*
X245Y1469D03*
X245Y1369D03*
X345Y1369D03*
X345Y1469D03*
X345Y1569D03*
X345Y1669D03*
X345Y1769D03*
X345Y1869D03*
X345Y1969D03*
X345Y2069D03*
G54D12*
X89Y762D03*
X389Y762D03*
X89Y662D03*
X389Y662D03*
X89Y562D03*
X389Y562D03*
X89Y462D03*
X389Y462D03*
X89Y362D03*
X389Y362D03*
X89Y262D03*
X389Y262D03*
X89Y162D03*
X389Y162D03*
G54D10*
X292Y2351D03*
X292Y2451D03*
X292Y2551D03*
X292Y2651D03*
X292Y2351D03*
X292Y2451D03*
X292Y2551D03*
X292Y2651D03*
X192Y2651D03*
X192Y2551D03*
X192Y2451D03*
X192Y2351D03*
G54D11*
X577Y1494D03*
X341Y857D03*
G54D13*
X1226Y4291D03*
X1176Y4216D03*
X1126Y4291D03*
G54D11*
X781Y300D03*
X1294Y1336D03*
G54D13*
X1244Y3701D03*
X1194Y3626D03*
X1144Y3701D03*
G54D11*
X1208Y1230D03*
X772Y407D03*
G54D13*
X1116Y1747D03*
X1166Y1822D03*
X1216Y1747D03*
G54D11*
X873Y3194D03*
X656Y561D03*
G54D13*
X1242Y3007D03*
X1192Y2932D03*
X1142Y3007D03*
G54D11*
X926Y3294D03*
X1313Y1132D03*
X1329Y3796D03*
X1117Y4008D03*
X870Y3384D03*
X1203Y1335D03*
X1337Y3181D03*
X1124Y3393D03*
X232Y859D03*
X472Y1493D03*
X1350Y1989D03*
X1050Y1989D03*
X1296Y2507D03*
X1084Y2719D03*
X1143Y4121D03*
X1355Y3909D03*
X1140Y3504D03*
X1352Y3291D03*
X1071Y1900D03*
X1371Y1900D03*
X1099Y2802D03*
G54D14*
X1366Y2664D03*
G54D11*
X403Y943D03*
X103Y943D03*
X399Y1031D03*
X99Y1031D03*
X401Y1129D03*
X101Y1129D03*
X398Y1223D03*
X98Y1223D03*
X1106Y937D03*
X806Y937D03*
X1106Y1037D03*
X806Y1037D03*
X1106Y1137D03*
X806Y1137D03*
X1106Y1237D03*
X806Y1237D03*
X1106Y1337D03*
X806Y1337D03*
X1106Y1437D03*
X806Y1437D03*
X1106Y1537D03*
X806Y1537D03*
X882Y758D03*
X1182Y758D03*
X882Y658D03*
X1182Y658D03*
X882Y558D03*
X1182Y558D03*
X882Y458D03*
X1182Y458D03*
X882Y358D03*
X1182Y358D03*
X882Y258D03*
X1182Y258D03*
X882Y158D03*
X1182Y158D03*
G54D10*
X497Y228D03*
X497Y328D03*
X497Y428D03*
X497Y528D03*
X947Y2128D03*
X1047Y2128D03*
X1147Y2128D03*
X1247Y2128D03*
X1347Y2128D03*
X497Y753D03*
X497Y853D03*
X497Y953D03*
X497Y1053D03*
X497Y1153D03*
G54D15*
X408Y4300D03*
X408Y4200D03*
X408Y4100D03*
X408Y4000D03*
X408Y3900D03*
X408Y3800D03*
X408Y3700D03*
X408Y3600D03*
X408Y3500D03*
X408Y3400D03*
X408Y3300D03*
X408Y3200D03*
X408Y3100D03*
X408Y3000D03*
X508Y3100D03*
X1008Y4300D03*
X1008Y4200D03*
X1008Y4100D03*
X1008Y4000D03*
X1008Y3900D03*
X1008Y3800D03*
X1008Y3700D03*
X1008Y3600D03*
X1008Y3500D03*
X1008Y3400D03*
X1008Y3300D03*
X1008Y3200D03*
X1008Y3100D03*
X1008Y3000D03*
X508Y3400D03*
X508Y3300D03*
X508Y3500D03*
X808Y4300D03*
X908Y4300D03*
X708Y4300D03*
X508Y4300D03*
X608Y4300D03*
X408Y4300D03*
X408Y4200D03*
X408Y4100D03*
X408Y4000D03*
X408Y3900D03*
X408Y3800D03*
X408Y3700D03*
X408Y3600D03*
X408Y3500D03*
X408Y3400D03*
X408Y3300D03*
X408Y3200D03*
X408Y3100D03*
X408Y3000D03*
X508Y3100D03*
X1008Y4300D03*
X1008Y4200D03*
X1008Y4100D03*
X1008Y4000D03*
X1008Y3900D03*
X1008Y3800D03*
X1008Y3700D03*
X1008Y3600D03*
X1008Y3500D03*
X1008Y3400D03*
X1008Y3300D03*
X1008Y3200D03*
X1008Y3100D03*
X1008Y3000D03*
X508Y3400D03*
X508Y3300D03*
X508Y3500D03*
X808Y4300D03*
X908Y4300D03*
X708Y4300D03*
X508Y4300D03*
X608Y4300D03*
X608Y4200D03*
X608Y4200D03*
X708Y4200D03*
X708Y4200D03*
X710Y4100D03*
X710Y4000D03*
X710Y3900D03*
X710Y3800D03*
X710Y3700D03*
X710Y3600D03*
X710Y4100D03*
X710Y4000D03*
X710Y3900D03*
X710Y3800D03*
X710Y3700D03*
X710Y3600D03*
X608Y4100D03*
X608Y4000D03*
X608Y3900D03*
X608Y3800D03*
X608Y3700D03*
X608Y3600D03*
X608Y4100D03*
X608Y4000D03*
X608Y3900D03*
X608Y3800D03*
X608Y3700D03*
X608Y3600D03*
G54D16*
X89Y762D03*
G54D17*
X1106Y937D03*
X882Y758D03*
G54D18*
X1358Y2706D02*
X1372Y2706D01*
X1354Y2705D02*
X1376Y2705D01*
X1351Y2704D02*
X1379Y2704D01*
X1348Y2703D02*
X1382Y2703D01*
X1346Y2702D02*
X1384Y2702D01*
X1344Y2701D02*
X1385Y2701D01*
X1343Y2700D02*
X1387Y2700D01*
X1341Y2699D02*
X1389Y2699D01*
X1340Y2698D02*
X1390Y2698D01*
X1338Y2697D02*
X1391Y2697D01*
X1337Y2696D02*
X1392Y2696D01*
X1336Y2695D02*
X1393Y2695D01*
X1335Y2694D02*
X1395Y2694D01*
X1334Y2693D02*
X1395Y2693D01*
X1333Y2692D02*
X1396Y2692D01*
X1332Y2691D02*
X1397Y2691D01*
X1332Y2690D02*
X1398Y2690D01*
X1331Y2689D02*
X1399Y2689D01*
X1330Y2688D02*
X1399Y2688D01*
X1330Y2687D02*
X1400Y2687D01*
X1329Y2686D02*
X1401Y2686D01*
X1328Y2685D02*
X1401Y2685D01*
X1328Y2684D02*
X1402Y2684D01*
X1327Y2683D02*
X1402Y2683D01*
X1327Y2682D02*
X1403Y2682D01*
X1326Y2681D02*
X1403Y2681D01*
X1326Y2680D02*
X1404Y2680D01*
X1326Y2679D02*
X1404Y2679D01*
X1325Y2678D02*
X1404Y2678D01*
X1325Y2677D02*
X1405Y2677D01*
X1325Y2676D02*
X1405Y2676D01*
X1324Y2675D02*
X1405Y2675D01*
X1324Y2674D02*
X1406Y2674D01*
X1324Y2673D02*
X1406Y2673D01*
X1324Y2672D02*
X1406Y2672D01*
X1323Y2671D02*
X1406Y2671D01*
X1323Y2670D02*
X1406Y2670D01*
X1323Y2669D02*
X1406Y2669D01*
X1323Y2668D02*
X1407Y2668D01*
X1323Y2667D02*
X1407Y2667D01*
X1323Y2666D02*
X1407Y2666D01*
X1323Y2665D02*
X1407Y2665D01*
X1323Y2664D02*
X1407Y2664D01*
X1323Y2663D02*
X1407Y2663D01*
X1323Y2662D02*
X1407Y2662D01*
X1323Y2661D02*
X1407Y2661D01*
X1323Y2660D02*
X1407Y2660D01*
X1323Y2659D02*
X1406Y2659D01*
X1323Y2658D02*
X1406Y2658D01*
X1324Y2657D02*
X1406Y2657D01*
X1324Y2656D02*
X1406Y2656D01*
X1324Y2655D02*
X1406Y2655D01*
X1324Y2654D02*
X1405Y2654D01*
X1324Y2653D02*
X1405Y2653D01*
X1325Y2652D02*
X1405Y2652D01*
X1325Y2651D02*
X1405Y2651D01*
X1325Y2650D02*
X1404Y2650D01*
X1326Y2649D02*
X1404Y2649D01*
X1326Y2648D02*
X1404Y2648D01*
X1327Y2647D02*
X1403Y2647D01*
X1327Y2646D02*
X1403Y2646D01*
X1328Y2645D02*
X1402Y2645D01*
X1328Y2644D02*
X1402Y2644D01*
X1329Y2643D02*
X1401Y2643D01*
X1329Y2642D02*
X1400Y2642D01*
X1330Y2641D02*
X1400Y2641D01*
X1330Y2640D02*
X1399Y2640D01*
X1331Y2639D02*
X1398Y2639D01*
X1332Y2638D02*
X1398Y2638D01*
X1333Y2637D02*
X1397Y2637D01*
X1334Y2636D02*
X1396Y2636D01*
X1335Y2635D02*
X1395Y2635D01*
X1335Y2634D02*
X1394Y2634D01*
X1337Y2633D02*
X1393Y2633D01*
X1338Y2632D02*
X1392Y2632D01*
X1339Y2631D02*
X1391Y2631D01*
X1340Y2630D02*
X1389Y2630D01*
X1342Y2629D02*
X1388Y2629D01*
X1343Y2628D02*
X1386Y2628D01*
X1345Y2627D02*
X1385Y2627D01*
X1347Y2626D02*
X1383Y2626D01*
X1349Y2625D02*
X1381Y2625D01*
X1352Y2624D02*
X1378Y2624D01*
X1355Y2623D02*
X1374Y2623D01*
X1361Y2622D02*
X1368Y2622D01*
D02*
G04 End of Mask0*
M02*