; NON-PLATED HOLES START AT T1
; THROUGH (PLATED) HOLES START AT T100
M48
INCH
T1C0.125984
T100C0.061825
T101C0.050165
T102C0.061867
T103C0.038000
%
T1
X001546Y020759
X001583Y002907
X001546Y007500
X001546Y025426
T100
X001520Y022073
X001572Y006224
X001539Y004211
X001554Y024140
T101
X001554Y023117
X001572Y005200
X001520Y023096
X001539Y005235
T102
X001565Y000935
X001528Y027417
X001546Y009500
X001546Y018796
T103
X002032Y015574
X002032Y013574
X002032Y011574
X002032Y014574
X002032Y012574
T00
M30
